<svg version="1.1" id="Layer_1" xmlns="http://www.w3.org/2000/svg" xmlns:xlink="http://www.w3.org/1999/xlink" x="0px" y="0px"
	 width="100%" viewBox="0 0 992 992" enable-background="new 0 0 992 992" xml:space="preserve">
<path fill="#000000" opacity="1.000000" stroke="none" 
	d="
M730.069702,513.372803 
	C729.939453,515.055908 728.278931,515.802734 728.777344,517.679871 
	C733.713318,517.237061 738.585388,518.357788 743.523071,518.841431 
	C748.480103,519.327148 752.650391,521.878540 756.515442,524.499512 
	C760.520691,527.215576 757.446411,538.913879 752.541382,540.686157 
	C750.025452,541.595215 747.797913,542.184021 749.417175,545.816223 
	C751.568237,550.641296 747.690430,555.823792 742.245056,555.753174 
	C741.251953,555.740295 740.184387,555.712158 739.282959,555.356750 
	C734.547729,553.489868 732.064331,555.345581 731.352783,560.072815 
	C731.114563,561.655579 730.644226,563.374207 729.273560,563.849915 
	C724.285278,565.581177 722.720032,569.779785 721.051697,574.098022 
	C720.373352,575.853882 718.858154,577.141907 716.805420,577.108032 
	C713.840393,577.059204 711.390015,578.305847 708.812805,579.560791 
	C702.683105,582.545654 702.452332,582.533142 705.603821,588.286377 
	C707.193054,591.187744 707.787659,594.298035 708.058044,597.338867 
	C708.896912,606.772095 711.593079,615.741699 713.773865,624.879700 
	C715.957886,634.031250 716.492432,643.564270 718.357361,652.807556 
	C720.251953,662.197937 721.920288,671.660339 723.589722,681.060364 
	C725.435120,691.451782 726.917725,701.996887 728.452515,712.480957 
	C729.564514,720.077759 732.389343,727.425537 734.474060,734.877747 
	C736.193909,741.025940 738.289856,747.096130 739.536438,753.337280 
	C740.116577,756.241394 741.075073,759.043152 741.902527,761.789490 
	C743.872070,768.326782 742.235657,773.676819 737.740112,778.170715 
	C728.331055,787.576355 716.418030,792.800232 704.074646,796.926025 
	C696.882080,799.330200 694.635620,801.256470 695.656128,808.804016 
	C697.068176,819.247192 698.830688,829.723755 702.770508,839.561646 
	C706.955505,850.011780 715.312927,856.403503 725.346680,860.836121 
	C725.954956,861.104797 726.640686,861.242554 727.187927,861.598694 
	C744.984680,873.181335 766.144165,876.278687 785.249512,884.576965 
	C792.217407,887.603455 796.902832,893.044617 800.553711,899.023193 
	C803.550171,903.930176 797.454468,911.729492 791.352539,914.009338 
	C784.817993,916.450867 777.982056,917.457397 770.863281,917.404053 
	C759.463989,917.318481 748.060242,918.059204 736.656006,918.362183 
	C722.588623,918.735962 709.521240,914.463928 696.761353,909.229431 
	C689.881409,906.407104 683.303894,902.847778 676.387634,899.523743 
	C674.636230,901.948486 675.104187,904.477356 675.602844,906.786743 
	C676.216919,909.630676 675.206726,910.943909 672.520264,911.222595 
	C666.305481,911.867188 659.805359,913.278381 653.906433,912.666504 
	C643.379333,911.574585 632.508301,910.169983 623.160828,904.053101 
	C620.748047,902.474182 619.968994,900.459839 620.000244,897.756348 
	C620.071228,891.615356 620.022583,885.473022 620.022583,879.326111 
	C609.077209,875.801636 599.072205,869.678467 586.786926,870.550110 
	C586.931702,873.484375 587.249573,876.238831 587.154724,878.979004 
	C587.046570,882.104187 585.615112,883.681641 582.256042,882.205811 
	C579.676880,881.072693 577.163452,880.290833 575.667114,883.877075 
	C575.411804,884.488953 574.114563,885.317871 573.759155,885.137756 
	C569.019226,882.736206 564.689453,885.966003 560.144226,886.028259 
	C556.574646,886.077087 553.237305,885.725647 550.017395,884.019287 
	C547.406311,882.635559 544.820068,881.245300 541.610229,881.206055 
	C538.479919,881.167847 536.031616,878.834229 535.393005,876.126221 
	C531.835327,861.038696 529.160645,846.153870 537.022827,831.133911 
	C543.236511,819.263184 548.925110,807.095703 555.301575,795.289917 
	C556.081482,793.845886 557.045349,792.501221 558.135925,790.775085 
	C554.176697,788.973206 554.297913,785.895935 554.474121,781.818054 
	C555.219543,764.569702 557.880676,747.655396 561.462036,730.817078 
	C562.388306,726.461792 562.435181,721.911804 562.787537,717.443481 
	C564.076660,701.091309 568.196655,685.210876 570.888428,669.093323 
	C571.596497,664.853760 570.406555,662.800781 566.490723,661.132385 
	C556.346619,656.810364 545.627686,655.095337 534.889954,653.338684 
	C531.485413,652.781799 528.096008,653.131714 525.251953,655.035156 
	C518.432556,659.599060 510.411072,660.658447 502.862885,663.057983 
	C489.933624,667.168274 476.922852,671.022217 463.946991,674.986023 
	C454.875946,677.757019 445.504395,679.167847 436.143402,680.113525 
	C425.083771,681.230774 413.943176,681.835632 402.792297,681.416992 
	C399.208527,681.282410 397.371002,682.715393 397.123047,686.642944 
	C396.018860,704.132629 394.356171,721.592163 393.526276,739.092529 
	C392.866638,753.002380 392.949677,766.957153 393.081726,780.888428 
	C393.117767,784.692749 390.552521,788.211487 392.396057,792.246277 
	C396.004425,794.819458 400.646149,794.936157 404.947845,795.582520 
	C417.581787,797.481018 427.502289,804.194275 437.597931,811.457153 
	C447.374359,818.490356 457.003784,825.830261 467.627197,831.758728 
	C474.622803,835.662598 481.586670,839.350342 489.191772,841.849487 
	C493.021942,843.108154 495.445770,845.192871 494.462128,849.947571 
	C493.730164,853.485413 494.541290,857.237061 493.440277,860.837952 
	C492.797607,862.939758 493.976135,864.582947 496.043152,864.946228 
	C506.531860,866.789734 507.998260,874.568787 508.236298,883.186707 
	C508.433380,890.321655 508.886932,897.443726 507.234558,904.528320 
	C505.689087,911.154419 497.866150,916.670715 491.135986,915.523438 
	C489.108673,915.177856 487.724518,914.085693 487.449341,912.027588 
	C487.156677,909.839111 487.085754,907.418640 489.479889,906.356323 
	C493.878204,904.404785 495.242188,901.995667 493.230347,897.057800 
	C492.088379,894.254822 493.183258,890.507874 493.401123,887.194580 
	C493.552521,884.891785 492.781952,884.161499 490.341003,883.856689 
	C482.877167,882.924683 475.614136,880.922668 468.985077,877.306824 
	C459.529236,872.148987 449.721710,867.398193 441.049072,861.114441 
	C433.542206,855.675293 425.497284,851.085449 417.917236,845.788940 
	C406.326538,837.689819 393.479767,832.663574 378.194336,833.327148 
	C361.665222,834.044678 347.104462,839.845154 331.995850,845.082275 
	C320.819550,848.956360 310.576904,854.659668 299.750427,859.126892 
	C291.902100,862.365295 285.089783,867.429077 277.230957,870.618164 
	C271.937653,872.766174 266.489380,873.953430 260.997772,875.157593 
	C259.179352,875.556396 257.443848,875.893372 256.207794,877.490051 
	C253.593918,880.866516 252.662903,894.303101 254.835129,898.056641 
	C258.129425,903.748962 257.010498,905.772949 250.424896,906.031860 
	C249.925400,906.051514 249.425537,906.066101 248.925720,906.073425 
	C238.456924,906.225342 238.625778,905.720825 240.138809,895.121033 
	C241.306793,886.938416 242.173172,878.500488 240.616089,870.163696 
	C239.860550,866.118530 241.206818,863.753723 245.421829,863.070862 
	C248.504852,862.571533 251.543259,861.796692 254.772522,861.108276 
	C252.434067,853.765747 255.733093,846.519714 254.803177,839.214783 
	C254.552261,837.243713 255.923080,836.239258 257.841766,835.973755 
	C277.218384,833.292053 293.296356,823.375122 308.927673,812.548340 
	C314.927704,808.392456 320.691345,803.897034 326.637329,799.661011 
	C336.181885,792.861328 347.234528,789.895691 358.505707,787.822693 
	C361.554474,787.262024 362.297546,786.313660 363.092041,783.395264 
	C365.685181,773.869751 364.215546,764.227051 364.763062,754.658447 
	C365.958344,733.769714 367.144104,712.880371 368.337524,691.991455 
	C368.356415,691.660889 368.448425,691.334351 368.464264,691.003845 
	C369.013763,679.530518 369.016602,679.508545 356.022675,677.394897 
	C347.852325,676.065979 339.942627,673.709351 331.933014,671.711975 
	C321.284760,669.056396 310.827179,666.054993 300.748688,661.729309 
	C300.303070,661.538086 299.767365,661.438232 299.284882,661.469482 
	C294.225677,661.797852 291.590454,660.203430 289.834930,654.635498 
	C287.164612,646.166016 282.709442,638.268860 279.977448,629.698059 
	C275.054688,614.254456 269.991760,598.879639 267.512421,582.775452 
	C266.840363,578.410095 265.201172,574.187256 263.929260,569.921814 
	C261.238068,560.896729 259.279205,551.706543 258.829010,542.307434 
	C258.423981,533.851074 256.078186,525.727844 255.256531,517.326172 
	C254.277954,507.320038 252.827545,497.341156 251.674118,487.335907 
	C250.046188,473.214691 249.264114,458.967224 247.252533,444.949860 
	C245.214645,430.749084 243.392059,416.533813 241.597061,402.304108 
	C240.812790,396.086823 239.317703,389.947906 237.931808,383.821716 
	C236.992905,379.671417 238.073502,378.014191 242.472076,377.695587 
	C252.815628,376.946442 252.839294,376.951508 255.029999,366.688599 
	C256.907410,357.893372 260.835083,349.782898 263.637329,341.297150 
	C266.537994,332.513306 268.661713,323.423370 272.672943,315.009949 
	C273.239655,313.821289 273.705780,312.584106 274.204315,311.363586 
	C276.347504,306.116791 277.184204,301.378082 273.351624,295.999573 
	C268.348694,288.978546 261.553650,283.561462 257.059784,276.106384 
	C250.742752,265.626923 246.408783,254.861084 245.447784,242.350739 
	C244.733322,233.049881 245.110336,224.207291 247.535095,215.325256 
	C248.927536,210.224655 252.126419,206.167572 255.191589,202.045273 
	C264.894684,188.995728 279.437286,183.880020 293.988556,179.257401 
	C299.012604,177.661362 304.809021,178.082291 310.243408,179.609329 
	C313.574158,180.545288 317.030975,181.180008 320.473816,181.528778 
	C323.987518,181.884689 325.289734,179.893417 324.594238,176.511078 
	C324.198975,174.588959 322.677338,173.431946 321.546173,172.017593 
	C320.418396,170.607483 319.664795,169.238449 321.144928,167.599884 
	C322.434601,166.172134 323.782990,165.815613 325.551941,166.869034 
	C328.401520,168.565994 331.562347,169.827103 333.834198,172.328110 
	C335.026215,173.640350 336.229553,174.197174 337.743958,173.322113 
	C339.167694,172.499466 339.848999,171.180557 339.166687,169.500626 
	C338.428284,167.682648 339.330139,165.853958 339.088989,164.071808 
	C338.772247,161.731033 339.736053,160.553177 341.945679,160.321167 
	C344.108368,160.094086 346.115662,159.862289 347.297211,162.606552 
	C349.448303,167.602798 352.752319,172.018204 354.525757,177.264984 
	C355.600067,180.443451 357.877411,180.465408 359.417114,177.450073 
	C360.881836,174.581604 363.123993,174.292511 365.699432,175.005066 
	C368.408081,175.754486 369.053497,178.040298 368.997894,180.530563 
	C368.860565,186.681503 368.667114,192.831345 368.455811,198.980240 
	C368.434021,199.614014 368.336853,200.426346 367.942841,200.838806 
	C362.699066,206.327957 364.563324,211.686813 368.209473,216.974548 
	C370.925293,220.913116 371.569489,225.011719 370.128387,229.642578 
	C368.499969,234.875168 372.005219,242.149902 377.071899,244.539978 
	C381.281464,246.525711 384.371552,250.208710 388.704620,252.029846 
	C390.160614,252.641769 390.272034,254.086823 389.484161,255.445816 
	C388.400330,257.315155 387.358429,259.218018 386.140869,260.998718 
	C383.493225,264.870972 382.763367,268.515686 385.372925,272.993835 
	C387.658691,276.916321 388.127106,281.522644 385.123932,285.586639 
	C383.594177,287.656769 383.925598,289.514313 384.792236,291.643066 
	C388.774292,301.424469 384.351379,308.280334 373.652527,308.997437 
	C367.492981,309.410309 361.437561,310.212189 356.064911,313.614532 
	C354.962158,314.312866 353.466919,314.767090 353.471619,316.368347 
	C353.476440,318.020325 354.813965,318.494446 356.172974,318.805908 
	C356.335175,318.843109 356.558258,318.834076 356.647736,318.937561 
	C360.584961,323.490906 364.011780,328.556122 369.570831,331.474548 
	C369.956268,331.676910 369.948181,333.054535 369.783417,333.811707 
	C368.519714,339.618317 372.779297,343.452484 375.291321,347.587006 
	C377.142670,350.634033 380.888489,349.272919 382.815155,346.479126 
	C385.922272,341.973663 388.873291,337.318756 391.431915,332.484406 
	C400.292511,315.743073 411.641418,301.567444 428.503357,291.949097 
	C447.957184,280.852295 466.230499,267.605499 487.310059,259.529846 
	C492.343964,257.601318 497.233002,255.102890 502.836578,254.498672 
	C507.752258,253.968643 510.546082,249.535660 514.049561,246.571365 
	C515.289673,245.522079 514.808044,243.428329 514.299988,241.803284 
	C510.572266,229.880508 507.917542,217.776154 508.760315,205.186188 
	C509.928833,187.729584 515.346252,171.640549 526.507446,158.123138 
	C534.417358,148.543396 545.997925,143.998764 557.765320,142.000870 
	C578.219543,138.528122 597.721497,141.534698 614.542847,155.113358 
	C615.908508,156.215744 617.303955,158.691727 619.617737,157.024246 
	C621.910889,155.371658 621.949829,152.718033 621.533203,150.176819 
	C621.349304,149.054855 620.659851,148.025269 620.361328,146.910507 
	C619.860718,145.040909 620.712952,143.654861 622.251831,142.686615 
	C623.873840,141.666077 625.196777,142.511215 626.197937,143.700500 
	C628.874695,146.880280 631.301331,150.244171 632.769653,154.186127 
	C633.296326,155.600327 633.645447,157.307266 635.416382,157.469162 
	C637.552551,157.664444 637.984680,155.640030 638.687805,154.220764 
	C639.793091,151.989716 640.769775,149.689575 641.698120,147.377457 
	C643.293579,143.403946 646.406921,142.789474 649.241089,146.019714 
	C650.724915,147.710876 651.310425,149.772766 651.243896,152.039215 
	C651.044983,158.814301 652.110962,165.628952 650.082825,172.605530 
	C652.893799,172.553040 654.484497,171.222412 656.139404,169.913193 
	C658.287170,168.214096 660.542480,167.757126 662.987610,169.522095 
	C665.239136,171.147369 665.072327,173.041290 664.783264,175.623840 
	C663.669373,185.575378 656.245605,191.717072 650.960693,199.051178 
	C647.951782,203.226913 646.069031,206.599579 647.830383,212.052246 
	C649.068604,215.885437 649.690430,220.817993 645.957275,224.278320 
	C639.958557,229.838562 641.629883,235.381485 645.284302,241.353973 
	C648.204895,246.127075 650.213501,251.416962 653.705078,255.909210 
	C655.351135,258.027008 655.074280,260.134247 652.161560,261.533325 
	C650.092896,262.527008 648.292053,264.094727 646.412292,265.462036 
	C642.617493,268.222382 639.507141,270.389740 642.078308,276.624237 
	C643.433167,279.909546 641.847534,286.079926 636.671936,288.448273 
	C633.712280,289.802643 632.649719,292.237549 633.617188,294.931122 
	C635.660645,300.620544 632.063721,304.008820 628.299438,305.948669 
	C624.065308,308.130585 618.804749,309.695953 613.966675,307.945221 
	C606.336792,305.184174 598.625732,303.929047 590.565308,304.259705 
	C588.461365,304.346008 586.144287,304.541870 585.159485,306.268341 
	C581.915405,311.955811 577.027832,315.281464 571.476318,318.592255 
	C563.487244,323.356750 561.691345,331.553650 563.429260,340.400269 
	C564.181885,344.231354 563.862732,347.097198 559.130127,347.648834 
	C560.001709,350.666595 559.982605,353.383972 558.974243,356.068726 
	C558.749268,356.667633 558.385437,357.538177 558.635925,357.943237 
	C562.397888,364.026031 560.014160,370.640656 559.976379,376.910065 
	C559.898193,389.904907 560.624146,402.913574 561.741882,415.754211 
	C562.592529,425.526062 561.930054,435.496460 564.830017,445.493530 
	C567.860901,446.187683 569.945190,443.267487 572.536011,441.821594 
	C580.359558,437.455383 589.220337,435.608704 597.654541,435.305573 
	C604.225708,435.069427 610.682007,439.891998 616.646179,443.636200 
	C618.956360,445.086487 621.527344,446.834351 620.787903,449.787292 
	C619.973511,453.039734 616.682861,450.145294 614.408508,451.442780 
	C616.728577,455.276581 614.575562,457.760162 611.747803,460.182220 
	C609.048706,462.493958 607.895813,465.966431 605.862976,468.760010 
	C603.157532,472.478058 601.635498,476.993683 597.828857,480.001007 
	C594.627991,482.529785 595.883667,486.121643 596.727234,489.242188 
	C597.523743,492.188629 597.657288,494.658630 594.248840,496.581085 
	C601.150391,499.830444 608.075745,500.350525 614.785461,501.660797 
	C616.453979,501.986572 618.193054,502.206512 619.443848,503.268921 
	C627.046326,509.726532 636.708191,510.233276 645.743713,512.544312 
	C648.269775,513.190369 651.180115,513.112427 651.568481,516.805786 
	C651.698792,518.045166 652.962646,518.594727 654.159546,518.849609 
	C660.291138,520.155273 665.639160,524.842285 672.151550,523.968445 
	C679.952087,522.921814 688.826233,524.596191 694.265930,516.219360 
	C696.870667,512.208130 701.061279,511.127075 705.809326,510.381134 
	C710.784302,509.599548 716.006836,509.254272 720.719299,506.911407 
	C728.887024,502.850647 730.549744,503.976685 730.069702,513.372803 
M568.264648,802.542725 
	C569.581604,803.800354 570.629578,804.792175 569.707092,807.123413 
	C565.366882,818.091248 563.739929,829.606628 563.669250,841.349121 
	C563.649780,844.591064 565.447754,846.536072 568.756409,845.741638 
	C575.202759,844.194031 580.383240,840.825134 582.670776,834.205017 
	C585.867493,824.953552 587.554260,815.428711 587.659241,805.622253 
	C587.763306,795.907837 587.802673,795.896729 577.961487,796.019897 
	C576.009583,796.044373 573.314575,795.547607 572.826477,797.930298 
	C572.210571,800.936462 569.898621,801.050964 567.559143,801.577209 
	C565.817078,800.735901 567.023438,798.323669 565.436646,797.424011 
	C562.356689,798.132324 562.124451,798.022705 561.161438,800.063049 
	C555.387512,812.296143 547.722351,823.562744 542.864746,836.273743 
	C540.977905,841.211121 537.104553,846.616577 538.777283,851.222961 
	C541.416504,858.490784 539.397888,865.629700 540.652710,872.699280 
	C540.938538,874.309814 541.526184,875.149536 542.821167,875.594543 
	C545.782715,876.612427 548.612488,878.018982 551.945618,877.759094 
	C558.191467,877.272034 564.399536,878.036438 570.720398,876.330811 
	C578.125671,874.332581 578.287903,874.988403 578.823975,867.273621 
	C579.090332,863.440369 580.211426,861.984558 584.865845,862.853027 
	C592.636475,864.302856 600.064514,867.491943 608.055054,867.648560 
	C613.028503,867.745972 617.548828,868.688660 621.616760,873.730469 
	C620.893799,868.629822 625.499695,866.756104 625.486267,863.470825 
	C625.462219,857.605225 628.118530,852.534119 629.234253,847.039734 
	C629.914917,843.688171 629.296326,841.998718 626.493103,840.039185 
	C621.195862,836.336243 616.086853,832.304138 611.673218,827.506348 
	C609.894470,825.572876 609.177734,822.716492 606.514465,821.552124 
	C603.725098,820.332825 602.702087,817.981750 601.381897,815.316895 
	C598.610291,809.722412 598.767456,803.730774 597.669983,797.917175 
	C597.392822,796.449341 597.609314,794.545166 595.532410,794.617188 
	C593.387878,794.691589 592.341309,796.271851 592.436218,798.394653 
	C592.796875,806.467163 592.823120,814.458374 591.499634,822.534607 
	C590.859131,826.443420 588.255920,829.445984 588.075562,833.348389 
	C587.651367,842.523804 581.929688,847.574890 574.032776,850.580444 
	C564.931946,854.044312 557.901489,848.968811 557.553162,839.507751 
	C557.181824,829.421753 558.647522,819.633850 562.237488,810.357910 
	C563.354126,807.472595 563.074524,802.622498 568.264648,802.542725 
M446.658356,471.061554 
	C448.357635,471.307739 449.011780,472.221497 449.413696,473.986023 
	C450.902954,480.523804 454.976257,485.291504 460.267212,489.259735 
	C467.591095,494.752716 476.317352,492.480499 484.377838,493.800964 
	C486.462585,494.142487 487.739899,491.760437 488.339539,489.826263 
	C488.928040,487.928009 489.423370,485.518555 487.247498,484.417542 
	C480.115753,480.808960 473.956329,475.636353 467.106506,471.749542 
	C458.430786,466.826660 451.652283,460.118835 445.957703,452.448456 
	C439.886017,444.270203 436.306519,434.452881 429.586884,426.498840 
	C426.416412,422.745941 422.377045,419.587646 420.273224,414.921783 
	C418.646393,411.313782 417.307312,407.462708 415.060028,404.268646 
	C407.730194,393.850769 400.056519,383.674316 392.478088,373.432373 
	C391.340942,371.895538 390.218750,370.184326 386.267548,370.107361 
	C394.742920,388.316650 406.397156,403.743927 415.580414,420.891479 
	C411.917908,421.529938 410.450775,419.628815 409.236237,418.001129 
	C402.900024,409.509827 396.744415,400.888092 391.735779,391.509094 
	C388.613068,385.661621 385.414337,379.853638 382.162628,374.076965 
	C381.464050,372.835938 380.749451,371.322968 378.705414,371.559174 
	C377.033508,372.893585 376.412018,375.026398 375.214844,376.751160 
	C371.686615,381.834167 371.012512,388.186920 367.459015,393.223358 
	C363.098663,399.403381 361.288452,406.828918 357.780426,413.433411 
	C357.131683,414.654816 357.035431,416.115082 357.714417,417.305023 
	C362.035156,424.877045 360.579742,433.804810 363.917053,441.862885 
	C367.007874,449.325714 367.801025,457.704346 373.838440,463.901459 
	C374.721405,464.807800 375.072083,466.241364 375.639435,467.444977 
	C379.026978,474.631195 382.690643,481.704559 385.706238,489.043945 
	C388.627686,496.154327 394.260529,498.552612 401.100891,498.721161 
	C414.744659,499.057251 428.399689,499.486877 442.046448,498.783447 
	C447.798584,498.486908 453.171356,496.806610 458.223022,494.502167 
	C457.855408,492.038086 455.995331,491.848022 455.096008,490.784485 
	C450.416992,485.251129 446.203583,479.420044 445.346039,471.696625 
	C445.569122,471.488647 445.779266,471.268311 446.658356,471.061554 
M429.780365,573.767517 
	C425.480835,574.692017 421.198853,574.478882 416.914368,573.624634 
	C411.604584,572.566040 406.682281,573.869629 400.396057,575.937256 
	C414.747040,584.042480 427.781128,591.443726 442.454681,595.351929 
	C459.649109,599.931580 476.851501,604.481812 494.065460,608.987488 
	C509.480591,613.022339 524.256775,618.495178 537.671509,627.330872 
	C541.095825,629.586304 544.961548,628.568176 547.616638,625.927551 
	C549.600891,623.954041 551.497986,623.064636 554.111450,622.979919 
	C556.784790,622.893250 559.452637,622.636963 562.500549,622.429199 
	C559.121582,618.962219 553.206665,621.730957 551.329529,617.182678 
	C557.812988,608.560547 564.849854,612.367737 571.875916,615.917664 
	C572.470459,616.218140 573.034851,616.586792 573.647461,616.841614 
	C581.297546,620.023499 588.649292,624.166443 596.943237,625.378540 
	C599.947754,625.817688 601.859192,626.449219 603.801086,629.056335 
	C606.503052,632.683777 609.930969,635.991577 615.140625,636.051270 
	C617.290833,636.075928 620.152710,636.128479 620.279297,638.814453 
	C620.414856,641.692627 617.901794,643.069885 615.152039,643.127808 
	C611.675720,643.201050 610.603577,644.693909 611.865540,647.875366 
	C614.622498,654.825684 615.529053,662.257141 617.065552,669.475403 
	C621.237000,689.073059 626.845703,708.288574 632.371704,727.492310 
	C638.049988,747.225037 640.786987,767.415161 644.080017,787.544189 
	C644.973511,793.005981 646.144897,794.819031 651.731384,794.662415 
	C664.842529,794.294983 677.916016,795.062866 691.095459,793.576233 
	C704.048828,792.114990 714.664246,786.036072 725.478699,780.160706 
	C732.813965,776.175476 733.259216,772.960754 730.296082,764.920715 
	C726.104858,753.549072 723.549072,741.674622 722.024536,729.794983 
	C720.087280,714.699341 715.531677,700.008789 715.210876,684.707886 
	C715.027649,675.969543 711.394897,667.931152 710.240417,659.489746 
	C708.223389,644.741394 704.696411,630.323853 701.988403,615.733948 
	C700.752136,609.073242 698.147827,602.663452 697.722107,595.863037 
	C696.801819,581.163696 688.809326,570.387939 674.436584,566.484070 
	C663.131470,563.413452 651.660828,560.475098 640.070374,559.042725 
	C622.489136,556.869812 604.873657,554.695679 587.104736,554.050476 
	C582.243286,553.873901 577.285767,553.721008 572.391296,553.407959 
	C568.448181,553.155701 565.336243,550.325378 561.539001,550.658813 
	C555.887390,551.155029 550.251465,550.146973 544.811890,549.549316 
	C530.604187,547.988464 517.364563,549.293091 504.335785,555.580139 
	C494.858582,560.153381 484.964447,564.050354 474.466309,565.984619 
	C459.872498,568.673706 444.955048,569.463562 429.780365,573.767517 
M277.161743,391.727325 
	C277.976959,396.293121 280.405304,400.550629 280.174316,405.283752 
	C279.825806,412.425507 282.122040,419.134216 284.137817,425.657928 
	C288.063202,438.361694 292.463196,450.944580 296.854706,463.514587 
	C302.326080,479.175537 310.581390,493.097076 319.718414,506.718628 
	C329.018951,520.583984 341.818298,531.278015 352.721924,543.686279 
	C360.540161,552.583313 370.448883,559.325562 380.441681,565.797607 
	C383.740204,567.934021 386.980957,568.225952 390.350586,567.490234 
	C400.999573,565.164978 411.721252,563.626038 422.605804,562.894897 
	C429.204132,562.451660 436.006470,562.037109 442.263672,560.125427 
	C457.156250,555.575500 472.589935,553.944702 487.704285,550.660339 
	C489.573883,550.254089 491.072601,549.731323 491.976990,548.033264 
	C489.860809,545.992004 487.509644,546.047058 485.172821,546.049683 
	C475.174622,546.060913 465.172119,545.912231 455.180786,546.179688 
	C452.088715,546.262512 449.025970,543.894897 446.574738,544.924805 
	C441.210022,547.178894 435.567139,544.829956 430.338074,546.807129 
	C429.310455,547.195679 428.128296,546.760681 427.901611,545.674805 
	C427.227661,542.446960 425.009460,540.484985 422.589752,538.153137 
	C431.607239,538.153137 440.624756,538.153137 449.490509,538.153137 
	C450.623047,537.043457 448.169617,535.373596 450.337677,534.671509 
	C453.225922,534.499878 452.021179,538.908081 455.215271,538.789978 
	C461.618591,538.553345 468.036835,538.719788 474.860626,538.719788 
	C473.915863,536.577759 471.431305,537.811829 471.209595,535.582214 
	C472.596069,534.565796 474.295593,534.833679 475.886871,534.740295 
	C478.509674,534.586426 480.275330,532.825317 479.884125,530.667664 
	C479.417328,528.093323 480.628113,526.172852 480.938080,523.944946 
	C481.933014,516.793884 484.735870,509.956665 484.958405,502.557343 
	C481.147919,500.990509 477.626007,501.005646 474.036316,502.178040 
	C472.791382,502.584656 471.514862,502.925842 470.228729,503.170166 
	C459.950500,505.122253 449.477142,504.139008 439.080139,505.454224 
	C426.697571,507.020630 414.118286,508.348083 401.513977,507.363312 
	C399.917358,507.238586 398.078583,507.075653 398.025513,509.709503 
	C397.986603,511.644012 396.520325,512.612305 394.771576,512.965942 
	C392.587463,513.407532 391.378937,511.910889 390.349884,510.359192 
	C389.253723,508.706238 388.707611,506.100311 387.218872,505.396637 
	C380.382141,502.165222 379.639221,494.694000 375.567627,489.591675 
	C370.226562,482.898438 368.758850,474.547058 366.510498,466.619995 
	C363.939484,457.555267 359.879181,448.972046 358.335846,439.556885 
	C357.537506,434.686584 356.436829,429.629822 352.637421,425.042480 
	C350.673370,428.756073 348.900208,431.737946 347.471588,434.876648 
	C342.345428,446.138702 339.844971,458.552765 333.054779,469.039185 
	C330.795807,472.527802 330.652679,476.996704 327.953247,479.811676 
	C324.327576,483.592468 324.816742,487.021637 326.735504,491.109161 
	C328.169983,494.165070 330.310699,496.985077 330.821899,500.362061 
	C329.424805,501.046600 328.749908,500.493286 328.261719,499.842102 
	C324.046143,494.218658 321.510345,487.649017 318.049652,481.598358 
	C317.321411,480.325073 317.625519,479.122986 318.224243,477.811005 
	C327.738068,456.963684 337.018402,436.006622 347.572357,415.651245 
	C348.535675,413.793304 348.832886,411.873291 348.625397,409.848328 
	C348.412018,407.765381 347.264526,406.041199 345.149994,406.433075 
	C340.513336,407.292389 339.393250,403.831970 338.966278,400.975983 
	C337.450439,390.837341 334.102448,381.494110 329.123077,372.542206 
	C324.879395,364.912903 319.630920,358.157654 313.523407,352.035400 
	C311.697510,350.205109 309.233765,350.049713 306.528015,350.440796 
	C300.329163,351.336761 295.021027,354.323639 290.860504,358.436859 
	C284.825684,364.403107 277.992676,370.093018 275.982544,379.071930 
	C275.251923,382.335480 273.087006,381.441925 270.820892,381.096649 
	C271.172333,378.913177 271.068634,376.798431 271.867981,375.111572 
	C274.211365,370.166138 274.078613,363.808990 279.937500,360.760925 
	C280.791351,360.316742 281.080811,358.827576 281.683380,357.854156 
	C286.113892,350.697144 290.762146,344.010132 300.089996,342.426514 
	C303.410583,341.862762 308.017700,342.841064 309.278778,336.623016 
	C311.327759,339.629791 313.662079,340.649170 315.393555,342.309387 
	C318.625793,345.408630 323.460846,347.023041 325.269836,351.302673 
	C327.644836,356.921265 331.952698,361.150452 334.950836,366.322876 
	C340.465393,375.836792 347.821472,384.291138 351.278412,394.979797 
	C351.716156,396.333221 352.129974,397.540253 353.764801,397.663025 
	C355.094574,397.762878 355.971924,396.971497 356.588837,395.931061 
	C360.924225,388.619476 364.579865,380.962219 367.948029,373.170410 
	C368.845551,371.094147 368.251099,369.507629 365.643494,369.461761 
	C360.659424,369.374115 358.325012,366.885590 358.736542,361.914276 
	C359.107422,357.434052 356.962921,354.302826 353.527283,351.779419 
	C348.549683,348.123505 344.449432,342.715668 337.153778,343.734192 
	C336.813141,343.781738 336.288177,343.251160 336.007202,342.872498 
	C331.833832,337.248535 325.202148,335.905548 319.275696,333.520874 
	C307.141327,328.638275 294.116089,326.323608 282.137634,320.930695 
	C280.010345,319.972961 278.661835,320.423798 277.197449,322.555389 
	C272.775818,328.991669 271.343536,336.413605 269.129028,343.669495 
	C266.154968,353.414154 261.185486,362.425018 259.403778,372.705780 
	C258.006226,380.769775 257.498199,381.244232 265.165222,384.571991 
	C266.984070,385.361389 268.963135,385.778687 270.862213,386.386841 
	C273.430695,387.209351 275.924866,388.142303 277.161743,391.727325 
M391.132507,347.575348 
	C390.210327,349.138611 389.251434,350.681610 388.373901,352.269592 
	C386.720001,355.262482 386.374725,358.284607 388.682068,361.100769 
	C391.730835,364.821838 394.950470,368.403564 397.978210,372.141113 
	C405.269104,381.141144 412.762634,390.035431 418.330994,400.244324 
	C424.314209,411.213898 432.945740,420.159943 440.303955,430.075378 
	C445.044708,436.463715 450.964661,441.862732 455.843048,448.076965 
	C462.189240,456.160889 469.766602,462.984802 476.897217,470.252167 
	C479.380432,472.782990 482.403412,475.426971 486.646240,475.900757 
	C486.831055,474.616882 487.365906,473.490295 487.049377,472.708374 
	C482.894470,462.444061 482.173096,451.281128 477.961060,440.908112 
	C472.907227,428.462067 472.307556,414.722565 471.997437,401.456360 
	C471.543549,382.044250 470.468384,362.556488 472.825989,343.140503 
	C473.668640,336.201141 476.431976,333.710907 483.388733,335.114197 
	C485.445190,335.529022 486.379089,335.345825 487.878326,333.577576 
	C492.397552,328.247467 494.957153,321.764862 498.916931,316.113007 
	C505.051910,307.356445 512.842834,302.713837 523.741211,304.331207 
	C525.867737,304.646820 528.407654,305.609314 529.707214,303.444672 
	C530.978271,301.327545 529.830872,299.018341 528.448425,296.977875 
	C523.707275,289.980194 519.057129,282.920868 514.366150,275.889130 
	C509.800964,269.045990 498.870331,264.999023 491.173798,267.908081 
	C478.315308,272.768188 466.037170,278.993439 453.897308,285.383636 
	C445.603180,289.749512 437.806580,295.082184 429.901337,300.159760 
	C420.362457,306.286560 412.006866,313.410614 405.824249,323.361450 
	C400.973785,331.168121 395.899536,338.841919 391.132507,347.575348 
M551.703247,349.678345 
	C549.273682,343.949860 548.365295,337.986053 548.591125,331.768799 
	C548.664368,329.752411 547.603516,327.754883 545.871643,326.644287 
	C543.028442,324.820953 541.720886,321.914337 540.144775,319.226318 
	C535.232483,310.848999 520.326660,307.672882 511.945557,312.667419 
	C501.328918,318.994171 498.355255,330.982208 490.949554,339.642792 
	C490.292969,340.410645 490.294830,341.849426 490.221863,342.991333 
	C489.686035,351.376831 486.172760,359.140076 485.712128,367.670685 
	C485.268738,375.881439 481.229187,383.936371 485.454803,392.231415 
	C485.781067,392.871826 485.639587,393.892761 485.417511,394.649353 
	C480.683990,410.775848 484.239807,426.521332 488.737732,441.814362 
	C491.940613,452.704193 497.306030,462.981476 501.993469,473.403015 
	C505.143616,480.406708 509.220367,481.137634 514.500610,475.623444 
	C523.997253,465.706055 534.552917,457.299683 546.920227,451.223206 
	C548.827759,450.286011 549.613525,448.741608 549.207581,446.278442 
	C548.402344,441.392639 547.770691,436.427460 547.683838,431.484283 
	C547.484924,420.166901 547.834167,408.839661 547.619873,397.522858 
	C547.457520,388.946869 548.135193,380.324799 546.039734,371.807159 
	C545.374573,369.103210 545.220642,365.439636 549.935547,365.412933 
	C552.041382,365.401001 552.574707,363.964630 552.168274,362.382996 
	C551.151428,358.426758 552.560974,354.421692 551.703247,349.678345 
M624.032959,301.654938 
	C627.585510,299.467834 628.513184,296.359924 626.800537,292.665619 
	C625.678284,290.244934 626.254333,288.569397 628.148132,286.966187 
	C629.081787,286.175751 630.574219,285.571106 629.864441,283.676300 
	C628.495789,283.318298 626.948486,283.172028 625.663818,282.513275 
	C623.991638,281.655853 621.522888,281.036072 622.124390,278.385651 
	C622.701843,275.841827 625.025391,276.080505 627.019348,275.984161 
	C629.262207,275.875793 631.605591,276.457336 633.771057,275.310486 
	C633.372498,272.530853 631.864807,271.104828 629.805664,269.689148 
	C627.386841,268.026215 624.741150,265.694977 625.816467,262.324219 
	C627.173157,258.071533 635.367554,256.180664 638.679871,259.379089 
	C640.636780,261.268616 642.029602,261.542389 644.224487,260.146881 
	C646.896912,258.447815 645.865479,256.526459 644.818481,254.579498 
	C643.170105,251.514145 641.234985,248.585999 639.795044,245.429245 
	C637.297119,239.953247 632.262817,235.271835 634.749573,228.163071 
	C635.651489,225.584763 633.339905,225.972794 631.643738,226.071762 
	C631.123352,228.380997 630.546265,230.462143 630.209717,232.581467 
	C629.918701,234.413956 629.956055,236.370880 627.698792,236.975601 
	C625.570496,237.545761 623.643616,236.971069 622.345459,235.204666 
	C620.748413,233.031555 619.084167,232.445801 616.995300,234.422195 
	C615.403076,235.928680 613.759644,235.954178 612.043701,234.713425 
	C610.697998,233.740417 610.088623,232.390076 610.548828,230.784073 
	C611.119324,228.793121 612.697998,228.183029 614.616699,227.638977 
	C618.081055,226.656677 621.959961,226.551071 624.964233,223.895554 
	C622.584167,221.574203 620.141052,221.065247 617.309875,221.641830 
	C614.414490,222.231491 611.879089,221.307770 610.576477,218.631943 
	C609.535461,216.493607 609.429626,213.836685 610.965820,211.947144 
	C612.926575,209.535461 615.662903,210.639313 617.829529,211.793289 
	C623.261963,214.686722 629.438049,214.453522 635.113892,216.250687 
	C639.136292,217.524323 640.573181,216.578278 639.750183,212.666687 
	C639.056030,209.367554 638.729309,206.101898 638.773132,202.772690 
	C638.799683,200.758835 637.677185,199.430466 636.494629,197.967484 
	C629.945312,189.865433 620.460144,186.341629 611.534485,182.040161 
	C608.498047,180.576797 605.622986,180.931519 602.886841,184.302063 
	C597.677246,190.719604 595.351196,198.425125 591.883545,205.614273 
	C588.532837,212.560867 589.448242,216.663788 595.226746,221.964096 
	C597.176575,223.752609 597.646301,225.065155 595.538391,227.291367 
	C593.076355,229.891586 589.943848,232.086761 588.858093,235.797577 
	C587.679077,239.827393 585.041321,239.289413 582.868164,237.185120 
	C580.186829,234.588791 577.606140,232.448013 573.372375,233.638916 
	C572.816406,230.459396 572.360779,227.677109 570.947388,225.173203 
	C568.083557,220.099701 564.525146,219.266190 560.743103,223.729706 
	C556.059387,229.257324 552.862366,235.655350 554.398621,243.353851 
	C555.744019,250.095703 560.609436,253.588715 567.292419,252.567062 
	C568.801819,252.336304 570.371765,251.595215 571.009155,253.651413 
	C571.597290,255.548859 570.586243,256.716736 568.897095,257.623047 
	C566.876953,258.706940 564.944214,259.198578 562.707581,258.313538 
	C559.973633,257.231689 557.218628,256.138824 553.581116,255.845154 
	C552.655212,261.733429 551.523621,268.070129 552.596680,273.043335 
	C553.695557,278.136627 556.827637,282.308441 555.371704,288.454224 
	C553.652466,295.711548 557.340820,303.061737 557.603027,310.545288 
	C557.704346,313.437408 557.449341,317.099915 559.931152,320.165741 
	C562.468567,316.631897 565.510071,314.309601 568.684326,312.278900 
	C570.548096,311.086578 573.597717,311.568512 574.606689,309.102600 
	C577.089600,303.034424 581.962280,299.996307 588.443542,298.067139 
	C585.873047,295.825928 583.110718,295.081635 580.775024,293.643585 
	C572.446838,288.516205 565.797729,282.001984 564.753662,271.600586 
	C564.563049,269.701965 563.684509,266.688812 566.921265,266.406281 
	C569.446045,266.185883 572.153625,267.356415 572.760132,270.114685 
	C574.251892,276.899902 578.502991,280.940033 583.955139,285.075226 
	C594.494690,293.068878 606.016113,298.485840 618.513184,302.257996 
	C620.225952,302.775024 621.770386,302.759216 624.032959,301.654938 
M689.145691,900.423462 
	C690.714050,900.970886 692.352173,901.373047 693.839844,902.088257 
	C707.973267,908.883423 722.454773,913.509583 738.555115,911.958130 
	C747.140991,911.130859 755.887024,911.404907 764.526672,911.847412 
	C774.000366,912.332581 782.445190,910.957581 789.327698,903.617432 
	C792.165833,900.590576 792.755310,896.183716 788.975952,894.546570 
	C783.842834,892.322998 779.128113,888.867554 773.298035,888.379089 
	C761.049744,887.352783 749.848328,883.172729 738.914185,877.703552 
	C725.098206,870.793030 712.945007,861.775024 702.092957,850.884888 
	C699.512817,848.295654 696.405151,845.977600 695.362244,842.338257 
	C693.225403,834.881836 691.273621,827.386414 690.054932,819.678467 
	C689.381348,815.418091 688.832153,811.194397 688.519348,806.902466 
	C688.388550,805.106812 687.674805,803.133179 685.184143,803.372009 
	C682.719727,803.608521 683.113342,805.805664 683.104065,807.267395 
	C683.092773,809.029419 684.083008,810.799744 684.061218,812.559326 
	C683.892273,826.209900 684.961731,839.829407 681.555420,853.429932 
	C679.207947,862.802612 675.022766,869.401062 665.764099,872.511597 
	C657.515686,875.282776 646.353699,869.585571 645.928650,861.893982 
	C645.306152,850.631409 645.443909,839.321716 648.238708,828.305603 
	C649.068604,825.034302 648.302734,821.612366 649.430115,818.618286 
	C651.437134,813.288086 650.357178,807.668457 652.459473,801.864746 
	C649.148193,802.280457 645.058289,797.339661 644.544800,803.370239 
	C643.895813,810.992065 642.395752,818.426941 641.469055,825.957581 
	C640.089355,837.170593 637.651855,848.109619 634.333191,858.814941 
	C630.441833,871.367737 627.155884,883.887451 628.131531,897.202576 
	C628.321411,899.794861 628.845520,901.587830 631.434692,902.646606 
	C638.183655,905.406250 645.225952,906.637024 652.392395,905.827698 
	C656.043152,905.415466 659.332092,903.092285 663.413147,903.900146 
	C665.471680,904.307617 665.773193,902.050842 665.805298,900.295532 
	C665.866272,896.965942 665.654114,893.597778 666.093811,890.317749 
	C666.581421,886.680603 669.184937,885.510620 671.577209,887.918091 
	C676.566711,892.939331 682.410767,896.631836 689.145691,900.423462 
M327.566498,245.016830 
	C331.021118,250.177002 325.029968,254.594040 326.300232,259.645599 
	C326.357330,259.872620 323.921722,261.325836 323.409088,261.001953 
	C319.294006,258.401978 313.622345,260.153778 310.071228,255.904099 
	C307.324585,252.617111 304.138428,252.775833 301.002014,255.743423 
	C297.164581,259.374298 295.862244,267.515717 298.231659,273.390900 
	C301.000458,280.256500 304.704041,285.145111 314.372650,281.755005 
	C315.423798,281.386414 316.755493,280.254486 318.073181,281.673645 
	C317.500977,284.510254 314.739380,284.669769 312.843353,285.693146 
	C310.484650,286.966278 306.323761,284.753479 305.367218,288.126282 
	C304.631805,290.719360 305.945679,293.894135 306.353088,296.809570 
	C306.375854,296.972534 306.438843,297.130493 306.489349,297.288788 
	C306.885529,298.530396 307.706512,299.871674 306.307800,300.927948 
	C305.030060,301.892883 303.764221,301.315369 302.676697,300.418549 
	C300.623657,298.725464 297.786591,298.183777 295.657776,298.355408 
	C292.314362,298.624939 289.375092,299.044708 286.116760,297.472229 
	C284.281555,296.586578 282.651245,298.353333 282.909332,300.649841 
	C283.186462,303.115570 284.085541,305.557129 284.052856,308.000427 
	C284.011383,311.099854 285.791229,312.295227 288.208069,312.633759 
	C291.491608,313.093719 294.807709,314.454224 297.895721,314.417572 
	C312.703522,314.241913 327.427765,316.537018 342.230560,315.695496 
	C345.622864,315.502625 347.796387,313.459747 349.360535,310.095062 
	C346.567230,308.667297 343.864899,309.345917 341.309479,309.038086 
	C332.520264,307.979095 325.077576,304.486206 320.130768,296.787750 
	C319.262329,295.436218 318.044159,293.751587 319.937561,292.385468 
	C321.446045,291.297089 323.322083,291.595764 324.459930,293.031891 
	C329.629608,299.556702 337.069916,300.914551 344.587769,302.652222 
	C355.725616,305.226624 366.789490,305.559540 377.872986,303.003601 
	C382.333008,301.975037 383.540497,299.235504 381.963898,295.151215 
	C380.480103,291.307465 377.102417,287.841278 381.202484,282.916321 
	C378.526062,283.049835 377.229584,283.161499 375.932678,283.166840 
	C374.441223,283.172974 372.652740,283.345886 372.147766,281.531586 
	C371.604034,279.577942 373.194611,279.099030 374.710236,278.604370 
	C376.836731,277.910339 378.470825,276.567780 379.309967,274.441711 
	C378.155945,271.277435 374.984436,271.622467 372.711060,270.506958 
	C370.088898,269.220306 367.525787,267.385345 369.396240,264.490326 
	C371.022156,261.973785 372.611450,257.429169 377.301056,259.916412 
	C379.983002,261.338837 381.352478,259.944153 382.781586,258.237061 
	C384.686768,255.961273 382.863922,254.596390 381.381378,253.268509 
	C376.938751,249.289352 372.477386,245.330307 367.973969,241.420273 
	C365.810303,239.541672 365.081787,237.649765 365.522064,234.501678 
	C366.165314,229.902130 365.588531,225.111267 361.389862,220.988312 
	C357.491516,227.154388 351.910339,229.604324 345.676727,231.174088 
	C343.071594,231.830139 341.969879,230.849228 341.091736,228.758820 
	C340.054443,226.289490 341.647308,225.462006 343.500458,224.804062 
	C347.745300,223.297012 351.790466,221.376663 355.459686,218.760178 
	C359.582184,215.820480 359.472961,211.991669 355.051270,209.453613 
	C344.663422,203.490952 333.361755,202.961502 321.895966,204.674591 
	C318.823761,205.133591 317.044098,207.019485 316.451416,211.112869 
	C315.636383,216.741714 318.250854,221.849533 317.311798,227.265228 
	C315.866455,235.601151 319.047211,241.432053 327.566498,245.016830 
M455.043762,861.355652 
	C468.593201,870.674927 483.339539,876.926331 499.904755,878.585876 
	C500.305084,876.414490 499.722443,875.026917 497.120544,873.934326 
	C491.207184,871.451172 485.521423,868.424988 479.748993,865.607666 
	C471.552795,861.607300 464.260925,856.229004 456.711304,851.166809 
	C446.788940,844.513733 437.943787,837.001526 430.806488,827.493774 
	C423.432831,817.671204 414.728821,810.093384 402.361664,806.863708 
	C396.012726,805.205750 389.389740,803.918030 383.468536,800.787659 
	C379.442200,798.658997 379.126617,796.197388 382.601166,793.152771 
	C384.169891,791.778137 384.583679,790.292297 384.704529,788.371399 
	C386.048920,767.007263 384.907349,745.564819 387.442169,724.208252 
	C388.964874,711.379028 388.668701,698.337219 389.318207,685.397400 
	C389.411926,683.530701 388.907318,682.458740 387.167755,682.115906 
	C385.212952,681.730591 383.141235,681.782654 381.264496,681.188965 
	C377.283325,679.929382 376.185486,681.902222 375.892548,685.334717 
	C375.318420,692.062195 375.642548,698.800232 375.010895,705.564392 
	C373.811188,718.411865 373.710236,731.362061 373.157135,744.269836 
	C372.711121,754.678284 373.283112,765.063477 371.716003,775.522095 
	C370.871643,781.157227 370.958008,787.319763 371.226410,793.254944 
	C371.360260,796.215210 370.369415,798.644714 366.880249,798.755127 
	C357.660339,799.047058 349.432556,802.572571 341.856598,807.276184 
	C333.258545,812.614441 325.494141,819.128174 318.297150,826.347107 
	C310.971008,833.695557 303.831268,841.265686 295.257538,847.304382 
	C280.895447,857.419922 265.207153,864.737305 248.569870,870.147095 
	C247.360718,870.540283 246.363647,870.895142 246.344421,872.368774 
	C246.241425,880.267639 246.116470,888.166321 246.060989,896.065491 
	C246.054932,896.927246 245.908768,898.191772 247.906677,898.032166 
	C246.678162,891.825073 248.668182,885.840515 248.933075,879.708496 
	C249.207062,873.366333 252.247208,869.651489 257.432007,869.029480 
	C265.164612,868.101990 272.149780,864.901733 279.062012,861.803345 
	C291.766724,856.108398 304.263794,849.928833 316.686157,843.633179 
	C324.851593,839.494873 333.650574,837.163330 342.059753,833.797546 
	C351.844849,829.880981 361.983856,827.482361 372.224518,826.269836 
	C388.663574,824.323303 404.006409,828.404175 417.764038,837.933838 
	C429.636017,846.157288 441.651459,854.164490 455.043762,861.355652 
M620.270142,744.721069 
	C619.255737,739.882629 618.582214,734.941406 617.160217,730.225891 
	C613.533997,718.200623 611.166931,705.900635 608.800476,693.605469 
	C607.368408,686.165039 606.478760,678.675781 603.621399,671.516418 
	C600.320251,663.245117 597.170227,654.843567 594.903503,646.248291 
	C592.425842,636.852905 588.113159,633.220154 577.933289,633.973755 
	C576.860352,635.744324 578.124817,637.187805 578.756592,638.612000 
	C582.964417,648.097656 584.331055,658.178772 585.574341,668.362061 
	C586.230713,673.737915 584.460938,678.773743 584.599609,684.091492 
	C584.757935,690.160461 584.062378,696.443848 582.539429,702.323608 
	C579.595703,713.688477 578.242798,725.335815 575.660339,736.763611 
	C573.667053,745.584900 571.693481,754.358215 569.197815,763.067017 
	C567.510620,768.954651 566.665771,775.290588 567.516357,782.029846 
	C587.853027,780.375671 606.760010,772.236267 627.710632,773.224854 
	C625.224060,763.763306 622.817383,754.605530 620.270142,744.721069 
M643.104431,519.125793 
	C637.163574,518.577698 631.554077,516.890564 626.255798,514.170227 
	C622.838989,512.415955 619.021240,513.757507 615.480164,512.641174 
	C608.717407,510.509155 601.870544,508.644379 595.066650,506.641479 
	C592.106873,505.770172 590.563110,506.317963 589.990173,509.864716 
	C588.990295,516.054810 585.834290,521.509583 579.713318,523.426880 
	C574.795898,524.967224 570.957397,527.621521 566.878479,530.436462 
	C563.076294,533.060547 558.926086,537.268005 553.796692,532.092957 
	C552.830261,531.117981 551.643982,532.148987 550.736389,532.929688 
	C549.239990,534.216858 547.724304,535.481567 546.216797,536.755737 
	C546.359009,537.184082 546.501282,537.612427 546.643555,538.040833 
	C578.620117,541.922852 610.902039,543.481201 642.759460,550.209534 
	C642.778870,541.242676 645.395691,533.092773 647.408203,524.812866 
	C648.096008,521.983154 647.650879,519.353943 643.104431,519.125793 
M736.532288,547.812134 
	C738.235107,548.133606 739.873291,549.554871 741.751160,548.127625 
	C741.938354,545.768005 742.342896,542.806824 740.031616,541.789246 
	C734.830994,539.499634 731.350769,534.832214 725.860291,532.814209 
	C718.479370,530.101501 710.591248,530.031067 703.219238,527.465088 
	C700.996582,526.691467 697.836731,526.346741 695.911987,527.807861 
	C692.166809,530.650940 688.065857,530.280029 683.976562,530.168579 
	C680.743713,530.080566 677.742188,531.063049 674.623047,531.456543 
	C673.185791,531.637817 671.707397,532.441528 671.697754,533.776367 
	C671.647644,540.759949 668.204712,547.134644 667.857910,553.872314 
	C669.400574,554.971619 670.993652,555.091919 672.046204,554.653442 
	C678.614929,551.916870 682.308167,554.299377 686.369629,559.976562 
	C690.006409,565.059998 696.063293,568.410828 701.047241,572.532349 
	C703.950195,574.932922 716.520386,571.074097 717.481018,567.448425 
	C717.690613,566.657227 717.647644,565.794922 717.687622,564.963745 
	C717.814148,562.332825 719.305908,560.099670 721.532043,559.607178 
	C726.033020,558.611145 726.860168,555.316162 727.926636,551.751587 
	C729.759766,545.623718 729.859253,545.653503 736.532288,547.812134 
M554.329956,473.492493 
	C553.492798,471.098877 552.106506,471.877563 550.399719,472.574371 
	C547.483765,473.764862 544.441650,474.719177 541.195129,474.203796 
	C539.655945,473.959503 538.366333,472.014862 539.553162,471.746490 
	C544.087341,470.721008 544.182434,465.485779 547.892761,463.925293 
	C552.448242,462.009308 552.433228,459.336578 549.065613,456.112244 
	C546.605347,457.374023 544.101807,458.241425 542.528992,460.636627 
	C539.582886,465.123199 535.432861,468.410461 531.082214,471.399597 
	C528.434021,473.219055 526.181702,475.425903 524.224548,477.876099 
	C521.292847,481.546509 522.232300,484.556061 526.650879,486.218597 
	C527.910522,486.692535 528.339417,487.708008 528.982361,488.653198 
	C532.462952,493.770111 537.830200,497.300903 539.925232,503.768463 
	C540.942017,506.907440 544.031494,509.461029 544.541077,513.345825 
	C544.906067,516.127747 547.597656,516.574036 549.632385,515.408997 
	C554.202942,512.792053 556.708435,514.409668 557.971069,518.822815 
	C564.941711,518.993713 571.447693,518.680054 577.836853,516.287354 
	C581.597961,514.878845 582.615051,512.455994 581.260864,509.419495 
	C580.115723,506.851959 580.598572,505.066650 582.179382,503.223419 
	C576.847717,501.167450 571.708496,499.433197 566.798950,497.195221 
	C564.065186,495.949066 560.827454,494.821777 560.196167,491.086761 
	C559.194336,485.159729 556.596191,479.758118 554.329956,473.492493 
M664.016602,866.677063 
	C666.141296,865.443726 668.776001,864.954895 670.075256,862.517273 
	C676.686279,850.113159 679.877502,837.078064 678.079041,822.911865 
	C677.469727,818.112671 675.600342,813.324524 677.095581,808.357239 
	C678.082520,805.078308 676.443848,804.208069 673.501587,804.278442 
	C669.506836,804.374084 665.506042,804.381104 661.511841,804.275452 
	C658.773132,804.202942 657.238586,804.901001 657.002441,808.077332 
	C656.517517,814.600769 655.259521,821.078491 654.983582,827.603088 
	C654.535950,838.186523 651.228882,848.490601 652.769348,859.311462 
	C653.889160,867.177185 655.241638,868.717834 664.016602,866.677063 
M609.148621,791.516296 
	C607.510498,792.275574 605.872314,793.034790 604.287170,793.769531 
	C605.818848,812.682007 619.167908,833.193481 631.331970,835.490173 
	C632.982971,828.594421 635.017944,821.753723 635.421814,814.640747 
	C635.632324,810.933228 637.261963,807.605530 637.640320,803.982117 
	C638.342773,797.254578 634.662537,792.030884 631.922974,786.385925 
	C630.289185,783.019348 628.690735,782.855774 625.728943,784.380981 
	C620.597900,787.023315 615.789551,790.453064 609.148621,791.516296 
M564.451111,479.611267 
	C566.242249,485.374786 574.220154,485.502350 575.552185,491.749573 
	C575.633606,492.131226 576.676697,492.391754 577.311829,492.556702 
	C579.835266,493.212097 582.374329,493.807037 585.045288,494.457977 
	C586.697754,491.325684 589.471497,488.963623 589.629883,485.329681 
	C587.729614,483.686401 584.776428,484.151398 583.575500,481.056488 
	C586.885864,478.957428 590.264038,476.798187 593.660706,474.668335 
	C595.520142,473.502441 597.940674,472.127869 597.094299,469.817444 
	C596.216370,467.420807 595.888367,465.067993 595.553467,462.631805 
	C595.408691,461.578308 594.612122,460.482391 593.690552,460.525024 
	C589.842651,460.703186 586.334473,458.842682 582.586609,458.821960 
	C580.135986,458.808441 577.646851,459.090363 576.622803,462.188416 
	C576.058044,463.896667 574.101318,464.022797 572.505005,464.564606 
	C564.209595,467.380280 564.227234,467.436218 564.269531,476.294373 
	C564.273499,477.125702 564.308838,477.956879 564.451111,479.611267 
M527.495361,269.225067 
	C529.567566,272.712433 531.529724,276.171753 528.976501,280.331573 
	C528.261536,281.496521 529.523010,282.462067 529.908997,283.515259 
	C532.007263,289.241058 536.322083,293.503815 539.741089,298.347595 
	C542.151672,301.762756 543.429749,306.019196 547.369934,309.112823 
	C547.369934,300.584686 547.074829,292.659485 547.498352,284.772858 
	C547.700378,281.011047 546.475586,278.240356 544.069214,275.873962 
	C536.846863,268.771484 528.121277,263.623169 519.977356,257.720520 
	C518.482178,256.636810 516.878723,256.439178 515.596130,258.157837 
	C514.022522,260.266388 515.694519,261.098053 517.165894,261.941406 
	C520.624756,263.923889 524.103271,265.872040 527.495361,269.225067 
M329.858551,807.393494 
	C331.012604,806.058533 333.242432,805.990051 333.989838,803.892517 
	C331.721313,803.822327 330.170959,804.864258 328.652222,806.216370 
	C315.602997,817.833679 300.812195,826.948853 285.393494,834.895020 
	C278.411591,838.493286 271.151306,842.623962 262.624207,841.766541 
	C261.143036,841.617554 260.536774,842.611755 260.260773,843.822021 
	C259.163239,848.634399 260.412415,853.258301 261.263062,857.941345 
	C261.926544,855.996521 262.000641,854.075500 261.907745,852.162598 
	C261.791962,849.778076 262.862244,848.118896 265.143982,847.901672 
	C268.310699,847.600159 271.161987,846.243286 274.256195,845.645691 
	C280.995636,844.344055 288.565033,844.868591 294.067688,840.040039 
	C301.301331,833.692749 309.007019,827.811401 315.392853,820.547546 
	C319.580200,815.784424 324.091248,811.430237 329.858551,807.393494 
M447.086121,834.426697 
	C456.209229,840.776428 465.848511,846.224609 476.762726,848.627625 
	C480.945160,849.548462 483.045044,851.193970 483.160492,855.335510 
	C483.231995,857.901306 483.810791,859.903259 487.187836,859.723022 
	C487.432739,858.629944 487.661407,857.675049 487.859711,856.713806 
	C489.493774,848.793396 489.858154,848.968567 483.021667,846.966309 
	C470.683380,843.352600 460.657440,835.615723 450.181091,828.752991 
	C443.434113,824.333252 437.242889,819.066711 430.768585,814.225220 
	C430.396393,813.946899 429.692993,813.348022 429.348999,813.935181 
	C434.945129,820.845215 439.858551,828.185059 447.086121,834.426697 
M529.333862,528.055298 
	C530.335449,529.032349 530.409607,530.957031 532.399475,531.025024 
	C535.287903,527.971375 538.251343,524.957886 540.158936,519.758911 
	C536.504517,522.750122 534.538940,520.903442 532.707581,518.887085 
	C527.162537,512.781799 523.038025,505.654907 518.276794,498.986572 
	C515.768311,495.473328 516.697937,489.902130 511.636078,488.021667 
	C509.400177,492.434753 520.288513,517.264771 529.333862,528.055298 
M346.096954,338.423340 
	C349.083466,340.220520 352.076691,342.006592 355.054016,343.818878 
	C356.990448,344.997528 358.715118,345.209076 360.305450,343.166626 
	C362.595245,340.225983 362.278961,332.782837 359.551147,330.184875 
	C357.892242,328.604950 356.128998,327.369110 355.330353,324.877655 
	C354.633759,322.704529 351.992126,322.247498 349.816101,322.328674 
	C347.682892,322.408203 347.330719,324.233948 347.232635,325.980377 
	C347.129211,327.822693 345.902771,328.970245 344.750031,330.170776 
	C341.948242,333.088745 342.094543,335.720337 346.096954,338.423340 
M502.907959,513.431824 
	C501.417114,511.317657 501.835846,508.190094 498.852753,506.275848 
	C497.894287,514.981445 498.250397,523.391418 498.659424,531.778625 
	C498.756561,533.770142 500.164703,535.838379 502.476654,535.755493 
	C507.132233,535.588684 511.675140,537.736877 516.589111,536.410950 
	C512.085144,528.851501 507.680908,521.459351 502.907959,513.431824 
M339.497437,329.014801 
	C341.098022,327.453766 342.690338,325.767822 341.332581,323.383881 
	C340.099701,321.219147 338.059265,320.331421 335.489258,320.257172 
	C325.714722,319.974701 315.889984,321.136139 306.160919,319.245514 
	C305.266968,319.071747 303.747955,318.794556 303.456970,320.809479 
	C312.655334,325.335358 322.759613,327.498901 332.206512,331.406952 
	C334.632263,332.410492 337.149658,331.761475 339.497437,329.014801 
M570.066833,637.802917 
	C569.399536,635.856628 568.359680,634.691406 566.010132,635.338501 
	C562.408203,636.330566 558.917480,636.071716 555.338501,634.701660 
	C553.118835,633.851990 550.536255,633.894470 548.088440,634.962280 
	C552.332031,645.487427 562.006836,647.718262 571.295227,651.166504 
	C571.814392,646.719727 572.505737,642.528381 570.066833,637.802917 
M656.036133,534.342041 
	C657.653870,540.588440 654.909485,546.416138 653.709106,552.326721 
	C657.229614,553.403687 658.251221,551.522705 658.605713,549.249695 
	C659.166870,545.651489 660.118103,542.184692 661.292542,538.751953 
	C662.165833,536.199524 661.785522,533.671570 659.741516,531.926575 
	C657.791870,530.262146 656.048462,530.401794 656.036133,534.342041 
M721.600098,514.237610 
	C715.024963,517.066467 707.460999,516.300476 700.143555,519.610107 
	C713.423828,523.369995 717.163269,522.401489 721.600098,514.237610 
M571.725952,720.130493 
	C573.112976,711.420044 574.500061,702.709656 575.887146,693.999207 
	C571.748352,704.133118 570.570007,714.749146 570.061462,725.622559 
	C571.093567,724.133240 571.595642,722.603027 571.725952,720.130493 
M484.976288,343.043884 
	C485.423676,341.466827 486.281219,339.652924 483.619812,339.312531 
	C481.663971,339.062347 480.375427,340.123535 480.333496,342.089935 
	C480.269135,345.105621 479.518127,348.242249 481.222046,351.231934 
	C485.048370,349.823212 484.589417,346.653717 484.976288,343.043884 
M498.506012,904.313477 
	C498.455170,905.255981 497.504913,906.078552 498.904602,907.231567 
	C501.714874,900.144470 502.872925,892.801208 501.436096,883.696899 
	C500.830231,886.700806 500.703094,888.501587 500.094940,890.121704 
	C498.435974,894.541016 501.560486,899.392029 498.506012,904.313477 
M483.708557,533.687805 
	C487.239044,533.287170 487.543304,532.146545 485.390564,527.093567 
	C483.473236,528.742554 484.603363,531.227173 483.708557,533.687805 
z"/>
<path fill="#000000" opacity="1.000000" stroke="none" 
	d="
M478.361572,73.368683 
	C480.485474,83.083389 482.186920,92.521072 484.848938,101.679550 
	C486.704041,108.061913 485.490845,114.554184 486.883820,120.937683 
	C487.722168,124.779640 488.308899,128.861481 489.956635,132.235352 
	C491.831635,136.074677 490.350830,139.081528 489.267578,142.151428 
	C488.573517,144.118347 486.822906,145.996643 483.714966,144.706894 
	C481.440063,143.762833 478.853394,144.063919 476.438385,145.155472 
	C464.362823,150.613480 451.181152,151.549545 438.497894,154.550873 
	C429.655853,156.643234 420.205994,155.396896 411.809723,159.732452 
	C410.577637,160.368652 408.879211,160.156586 407.391266,160.229080 
	C405.349304,160.328583 403.108002,160.343964 402.414215,157.939270 
	C401.834991,155.931656 403.488739,154.696503 404.777710,153.361404 
	C413.907715,143.904800 424.824707,137.009964 436.429077,131.078064 
	C437.313507,130.625961 438.262726,130.187149 438.965912,129.515930 
	C440.829742,127.736946 443.955383,126.508316 443.480743,123.418961 
	C443.028351,120.474243 439.603638,121.572029 437.718231,120.367271 
	C429.013062,114.804710 418.909790,113.672676 409.109039,111.644005 
	C405.202789,110.835434 401.179871,111.435081 397.199463,110.682678 
	C383.759521,108.142159 370.339386,104.945389 356.762695,103.855606 
	C346.036804,102.994652 335.068542,104.021194 324.315063,106.467270 
	C315.389313,108.497604 306.402771,110.359116 297.285034,111.666954 
	C289.340393,112.806519 281.611145,115.576775 273.870819,117.905983 
	C272.259308,118.390923 270.417908,119.817665 269.712372,121.300438 
	C267.196075,126.588669 263.406464,123.953842 260.370819,122.740540 
	C257.250153,121.493279 256.579987,118.823410 256.867096,115.029762 
	C257.201263,110.614792 255.766602,105.953613 254.539993,101.555344 
	C251.651901,91.199532 249.334778,80.727150 247.634857,70.127121 
	C247.102066,66.804802 243.259979,63.323719 248.293442,59.951260 
	C251.344574,57.906960 254.066101,55.758144 257.880432,55.196407 
	C264.570984,54.211086 271.171356,52.564213 277.876434,51.736797 
	C292.632965,49.915813 307.454346,48.531544 322.339691,48.849712 
	C337.285645,49.169182 351.703339,52.938534 366.080322,56.592724 
	C375.828857,59.070507 385.370544,62.362755 395.120148,64.835770 
	C406.864807,67.814819 417.476288,73.253860 427.799774,79.276108 
	C437.685394,85.042938 448.034973,89.973145 458.087952,96.844238 
	C461.302521,84.864601 463.404083,73.389191 461.294952,61.643742 
	C460.573456,57.626060 462.052032,53.844131 461.183960,49.830299 
	C460.681519,47.507160 463.707397,46.581791 465.789368,46.178253 
	C467.898529,45.769436 470.309418,45.616470 471.152008,48.413635 
	C473.612427,56.581608 478.205292,64.126862 478.361572,73.368683 
z"/>
<path fill="#000000" opacity="1.000000" stroke="none" 
	d="
M445.174255,471.847717 
	C440.222839,467.549011 437.176605,461.684723 434.005707,456.269379 
	C428.696228,447.201904 423.316010,438.264923 416.967010,429.894287 
	C415.210724,427.578735 415.232086,425.062866 417.566467,421.796570 
	C427.482452,438.168579 441.037811,451.630005 445.948120,470.681274 
	C445.779266,471.268311 445.569122,471.488647 445.174255,471.847717 
z"/>
<path fill="#000000" opacity="1.000000" stroke="none" 
	d="
M357.692169,242.664581 
	C357.035645,242.825974 356.518890,242.955872 356.411621,242.801437 
	C353.777161,239.006882 350.106140,238.221146 345.804657,238.906006 
	C345.156128,239.009247 344.382599,238.327789 343.694794,238.021729 
	C343.645081,235.275665 345.367126,234.852585 347.263397,234.725937 
	C348.912750,234.615799 350.494232,234.467529 352.062805,233.758545 
	C354.222260,232.782486 356.835541,232.067291 358.186554,234.653702 
	C359.451935,237.076187 361.647095,239.985229 357.692169,242.664581 
z"/>
</svg>