<?xml version="1.0" ?>
<!-- Uploaded to: SVG Repo, www.svgrepo.com, Generator: SVG Repo Mixer Tools -->
<svg width="800px" height="800px" viewBox="0 0 64 64" xmlns="http://www.w3.org/2000/svg">
<g id="a"/>
<g id="b"/>
<g id="c"/>
<g id="d">
<path d="M17.4,49.36v5.61c0,2.01,1.62,3.63,3.64,3.63h21.94c2.01,0,3.64-1.62,3.64-3.63v-5.61l-14.05-4.93-15.16,4.93ZM21.03,5.4c-2.01,0-3.64,1.62-3.64,3.63v5.09l15.61,6.63,13.6-6.63v-5.09c0-2.01-1.62-3.63-3.64-3.63H21.03Z" fill="#8fd7f8" fill-rule="evenodd"/>
<path d="M43.61,48.3v6.66c0,2.01-1.62,3.63-3.63,3.63h3c2.01,0,3.64-1.62,3.64-3.63v-5.61l-3-1.05Zm-3.63-42.9c2.01,0,3.63,1.62,3.63,3.63v6.55l3-1.46v-5.09c0-2.01-1.62-3.63-3.64-3.63h-3Z" fill="#75cdf8" fill-rule="evenodd"/>
<rect fill="#f0f3f5" height="35.22" width="29.21" x="17.4" y="14.13"/>
<rect fill="#e4ecf0" height="35.22" width="3" x="43.61" y="14.13"/>
<rect fill="#f5e680" height="19.85" rx="1.83" ry="1.83" width="45.56" x="9.22" y="22.07"/>
<path d="M49.84,22.07c1.01,0,1.83,.81,1.83,1.83v16.19c0,1.01-.82,1.83-1.83,1.83h3.12c1.01,0,1.83-.82,1.83-1.83V23.9c0-1.01-.82-1.83-1.83-1.83h-3.12Z" fill="#f2d865" fill-rule="evenodd"/>
<path d="M28.58,10.77h6.84c.55,0,1-.45,1-1s-.45-1-1-1h-6.84c-.55,0-1,.45-1,1s.45,1,1,1Z"/>
<path d="M35.42,52.72h-6.84c-.55,0-1,.45-1,1s.45,1,1,1h6.84c.55,0,1-.45,1-1s-.45-1-1-1Z"/>
<path d="M52.95,21.07h-5.35V9.04c0-2.56-2.08-4.64-4.64-4.64H21.03c-2.56,0-4.64,2.08-4.64,4.64v12.04h-5.35c-1.56,0-2.83,1.27-2.83,2.83v16.19c0,1.56,1.27,2.83,2.83,2.83h5.35v12.04c0,2.56,2.08,4.64,4.64,4.64h21.94c2.56,0,4.64-2.08,4.64-4.64v-12.04h5.35c1.56,0,2.83-1.27,2.83-2.83V23.9c0-1.56-1.27-2.83-2.83-2.83ZM21.03,6.4h21.94c1.45,0,2.64,1.18,2.64,2.64v4.09H18.4v-4.09c0-1.45,1.18-2.64,2.64-2.64Zm-2.64,8.73h27.21v5.94H18.4v-5.94Zm24.57,42.47H21.03c-1.45,0-2.64-1.18-2.64-2.64v-4.61h27.21v4.61c0,1.45-1.18,2.64-2.64,2.64Zm2.64-9.24H18.4v-5.43h27.21v5.43Zm8.17-8.26c0,.46-.37,.83-.83,.83H11.05c-.46,0-.83-.37-.83-.83V23.9c0-.46,.36-.83,.83-.83H52.95c.46,0,.83,.36,.83,.83v16.19Z"/>
<path d="M21,32.05v-4.89c0-.55-.45-1-1-1s-1,.45-1,1v2.29l-.88-.98c-.19-.21-.46-.33-.74-.33s-.55,.12-.74,.33l-.88,.98v-2.29c0-.55-.45-1-1-1s-1,.45-1,1v4.89c0,.41,.25,.79,.64,.93,.39,.15,.82,.04,1.1-.26l1.88-2.09,1.88,2.09c.19,.21,.46,.33,.74,.33,.12,0,.24-.02,.36-.07,.39-.15,.64-.52,.64-.93Z"/>
<path d="M22.96,26.16c-.55,0-1,.45-1,1v4.89c0,.55,.45,1,1,1s1-.45,1-1v-4.89c0-.55-.45-1-1-1Z"/>
<path d="M25.92,33.05c.55,0,1-.45,1-1v-2.11l2.26,2.74c.19,.24,.48,.36,.77,.36,.11,0,.23-.02,.34-.06,.4-.14,.66-.52,.66-.94v-4.89c0-.55-.45-1-1-1s-1,.45-1,1v2.11l-2.26-2.74c-.27-.33-.71-.45-1.11-.31-.4,.14-.66,.52-.66,.94v4.89c0,.55,.45,1,1,1Z"/>
<path d="M32.9,33.05c.55,0,1-.45,1-1v-2.11l2.26,2.74c.19,.24,.48,.36,.77,.36,.11,0,.23-.02,.34-.06,.4-.14,.66-.52,.66-.94v-4.89c0-.55-.45-1-1-1s-1,.45-1,1v2.11l-2.26-2.74c-.27-.33-.71-.45-1.11-.31-.4,.14-.66,.52-.66,.94v4.89c0,.55,.45,1,1,1Z"/>
<path d="M42.41,33.06c.55,0,1-.45,1-1,0-.55-.44-1-1-1h-1.52v-.45h1.52c.55,0,1-.45,1-1s-.45-1-1-1h-1.52v-.45h1.52c.55,0,1-.45,1-1s-.45-1-1-1h-2.52c-.55,0-1,.45-1,1v4.89c0,.55,.45,1,1,1h2.52Z"/>
<path d="M50.25,28.79c0-1.45-1.18-2.63-2.63-2.63h-2.25c-.55,0-1,.45-1,1v4.89c0,.55,.45,1,1,1s1-.45,1-1v-.62h.85l1.34,1.31c.19,.19,.45,.28,.7,.28s.52-.1,.72-.3c.39-.4,.38-1.03-.02-1.41l-.58-.57c.54-.48,.89-1.16,.89-1.94Zm-3.89-.63h1.25c.36,0,.63,.28,.63,.63s-.28,.63-.63,.63h-1.25v-1.27Z"/>
<path d="M38.35,35.18h-12.7c-.55,0-1,.45-1,1s.45,1,1,1h12.7c.55,0,1-.45,1-1s-.45-1-1-1Z"/>
<path d="M16.93,35.18c-.27,0-.52,.11-.71,.29-.39,.39-.39,1.03,0,1.41,.19,.19,.44,.29,.71,.29s.52-.11,.71-.29c.39-.39,.39-1.03,0-1.41-.19-.19-.44-.29-.71-.29Z"/>
<path d="M21.08,35.18c-.26,0-.52,.11-.71,.29-.39,.39-.39,1.03,0,1.41,.19,.19,.44,.29,.71,.29s.52-.11,.71-.29c.39-.39,.39-1.03,0-1.41-.19-.19-.44-.29-.71-.29Z"/>
<path d="M42.92,35.18c-.27,0-.52,.11-.71,.29-.39,.39-.39,1.03,0,1.41,.19,.19,.44,.29,.71,.29s.52-.11,.71-.29c.39-.39,.39-1.03,0-1.41-.19-.19-.44-.29-.71-.29Z"/>
<path d="M47.07,35.18c-.27,0-.52,.11-.71,.29-.39,.39-.39,1.03,0,1.41,.19,.19,.44,.29,.71,.29s.52-.11,.71-.29c.39-.39,.39-1.03,0-1.41-.19-.19-.44-.29-.71-.29Z"/>
<path d="M13.06,17.87c.16,.09,.33,.13,.5,.13,.35,0,.68-.18,.87-.5,.28-.48,.11-1.09-.37-1.37l-1.65-.95c-.48-.28-1.09-.11-1.37,.37-.28,.48-.11,1.09,.37,1.37l1.65,.95Z"/>
<path d="M13.06,46.13l-1.65,.95c-.48,.28-.64,.89-.37,1.37,.19,.32,.52,.5,.87,.5,.17,0,.34-.04,.5-.13l1.65-.95c.48-.28,.64-.89,.37-1.37-.28-.48-.89-.64-1.37-.37Z"/>
<path d="M50.94,17.87l1.65-.95c.48-.28,.64-.89,.37-1.37-.28-.48-.89-.64-1.37-.37l-1.65,.95c-.48,.28-.64,.89-.37,1.37,.19,.32,.52,.5,.87,.5,.17,0,.34-.04,.5-.13Z"/>
<path d="M50.94,46.13c-.48-.28-1.09-.11-1.37,.37-.28,.48-.11,1.09,.37,1.37l1.65,.95c.16,.09,.33,.13,.5,.13,.35,0,.68-.18,.87-.5,.28-.48,.11-1.09-.37-1.37l-1.65-.95Z"/>
</g>
<g id="e"/>
<g id="f"/>
<g id="g"/>
<g id="h"/>
<g id="i"/>
<g id="j"/>
<g id="k"/>
<g id="l"/>
<g id="m"/>
<g id="n"/>
<g id="o"/>
<g id="p"/>
<g id="q"/>
<g id="r"/>
<g id="s"/>
<g id="t"/>
<g id="u"/>
<g id="v"/>
<g id="w"/>
<g id="x"/>
<g id="y"/>
<g id="a`"/>
<g id="aa"/>
<g id="ab"/>
<g id="ac"/>
<g id="ad"/>
<g id="ae"/>
<g id="af"/>
<g id="ag"/>
<g id="ah"/>
<g id="ai"/>
<g id="aj"/>
<g id="ak"/>
<g id="al"/>
<g id="am"/>
<g id="an"/>
<g id="ao"/>
<g id="ap"/>
<g id="aq"/>
<g id="ar"/>
<g id="as"/>
<g id="at"/>
<g id="au"/>
<g id="av"/>
<g id="aw"/>
<g id="ax"/>
</svg>