<?xml version="1.0" encoding="iso-8859-1"?>
<!-- Uploaded to: SVG Repo, www.svgrepo.com, Generator: SVG Repo Mixer Tools -->
<svg height="800px" width="800px" version="1.1" id="Layer_1" xmlns="http://www.w3.org/2000/svg" xmlns:xlink="http://www.w3.org/1999/xlink" 
	 viewBox="0 0 512 512" xml:space="preserve">
<g transform="translate(1 1)">
	<path style="fill:#D0E8F9;" d="M281.483,502.172C161.428,502.172,65.207,391.828,65.207,255S162.31,7.828,281.483,7.828
		S497.759,118.172,497.759,255S400.655,502.172,281.483,502.172L281.483,502.172z"/>
	<path style="fill:#0096E6;" d="M281.483,511C157.014,511,56.379,396.241,56.379,255S157.014-1,281.483-1
		s225.103,114.759,225.103,256S405.069,511,281.483,511z M281.483,16.655C166.724,16.655,74.034,123.469,74.034,255
		s92.69,238.345,207.448,238.345S488.931,386.531,488.931,255S395.359,16.655,281.483,16.655z"/>
	<path style="fill:#FFFFFF;" d="M65.207,255C65.207,128.766,148.186,24.6,255,9.593c-8.828-0.883-17.655-1.766-26.483-1.766
		C108.462,7.828,12.241,118.172,12.241,255s97.103,247.172,216.276,247.172c8.828,0,17.655-0.883,26.483-1.766
		C147.303,485.4,65.207,381.234,65.207,255L65.207,255z"/>
	<g>
		<path style="fill:#0096E6;" d="M228.517,511C104.048,511,3.414,396.241,3.414,255S104.048-1,228.517-1
			c8.828,0,17.655,0.883,27.366,1.766v17.655C151.717,32.545,74.034,134.945,74.034,255S152.6,477.455,255.883,491.579v17.655
			C246.172,510.117,237.345,511,228.517,511z M190.559,20.186C94.338,40.49,21.069,138.476,21.069,255
			s73.269,214.51,170.372,234.814C111.11,449.207,56.379,358.283,56.379,255S111.11,60.793,190.559,20.186z"/>
		<path style="fill:#0096E6;" d="M157.897,466.862h-52.966c-5.297,0-8.828-3.531-8.828-8.828s3.531-8.828,8.828-8.828h52.966
			c5.297,0,8.828,3.531,8.828,8.828S162.31,466.862,157.897,466.862z M115.524,422.724H62.559c-5.297,0-8.828-3.531-8.828-8.828
			s3.531-8.828,8.828-8.828h52.966c5.297,0,8.828,3.531,8.828,8.828S119.938,422.724,115.524,422.724z M85.51,369.759H32.545
			c-5.297,0-8.828-3.531-8.828-8.828s3.531-8.828,8.828-8.828H85.51c5.297,0,8.828,3.531,8.828,8.828S90.807,369.759,85.51,369.759z
			 M71.386,325.621H18.421c-5.297,0-8.828-3.531-8.828-8.828s3.531-8.828,8.828-8.828h52.966c5.297,0,8.828,3.531,8.828,8.828
			S76.683,325.621,71.386,325.621z M65.207,281.483H13.124c-5.297,0-8.828-3.531-8.828-8.828c0-5.297,3.531-8.828,8.828-8.828
			h52.083c5.297,0,8.828,3.531,8.828,8.828C74.034,277.952,69.621,281.483,65.207,281.483z M66.09,237.345H13.124
			c-5.297,0-8.828-3.531-8.828-8.828s3.531-8.828,8.828-8.828H66.09c5.297,0,8.828,3.531,8.828,8.828S70.503,237.345,66.09,237.345z
			 M74.034,193.207H21.069c-5.297,0-8.828-3.531-8.828-8.828s3.531-8.828,8.828-8.828h52.966c5.297,0,8.828,3.531,8.828,8.828
			S78.448,193.207,74.034,193.207z M89.041,149.069H36.076c-5.297,0-8.828-3.531-8.828-8.828s3.531-8.828,8.828-8.828h52.966
			c5.297,0,8.828,3.531,8.828,8.828S94.338,149.069,89.041,149.069z M122.586,96.103H69.621c-5.297,0-8.828-3.531-8.828-8.828
			s3.531-8.828,8.828-8.828h52.966c5.297,0,8.828,3.531,8.828,8.828S127,96.103,122.586,96.103z M169.372,51.966H117.29
			c-5.297,0-8.828-3.531-8.828-8.828s3.531-8.828,8.828-8.828h52.083c5.297,0,8.828,3.531,8.828,8.828
			S173.786,51.966,169.372,51.966z"/>
		<path style="fill:#0096E6;" d="M281.483,453.621c-6.179,0-12.359,0-18.538-0.883c-4.414-0.883-7.945-5.297-7.945-9.71
			c0.883-4.414,5.297-7.945,9.71-7.945c5.297,0.883,10.593,0.883,16.772,0.883c5.297,0,8.828,3.531,8.828,8.828
			S286.779,453.621,281.483,453.621l0.883-8.828L281.483,453.621L281.483,453.621z M332.683,443.91
			c-3.531,0-7.062-1.766-7.945-5.297c-1.766-4.414,0.883-9.71,5.297-11.476c5.297-1.766,9.71-4.414,15.007-7.062
			c4.414-2.648,9.71-0.883,11.476,3.531c2.648,4.414,0.883,9.71-3.531,11.476c-5.297,2.648-11.476,5.297-16.772,7.062
			C335.331,443.91,334.448,443.91,332.683,443.91z M213.51,437.731c-1.766,0-2.648,0-4.414-0.883
			c-5.297-2.648-10.593-6.179-15.89-8.828c-4.414-2.648-5.297-7.945-2.648-12.359c2.648-4.414,7.945-5.297,12.359-2.648
			c4.414,2.648,9.71,6.179,14.124,7.945s6.179,7.945,3.531,11.476C219.69,435.966,217.041,437.731,213.51,437.731z M390.945,405.952
			c-2.648,0-4.414-0.883-6.179-2.648c-3.531-3.531-3.531-8.828,0-12.359c3.531-3.531,7.945-7.945,11.476-12.359
			c2.648-3.531,8.828-4.414,12.359-0.883c3.531,2.648,4.414,8.828,0.883,12.359c-3.531,4.414-7.945,9.71-12.359,13.241
			C395.359,405.069,393.593,405.952,390.945,405.952z M159.662,393.593c-2.648,0-5.297-0.883-7.062-3.531
			c-3.531-4.414-7.945-9.71-10.593-15.007c-2.648-4.414-1.766-9.71,2.648-12.359s9.71-1.766,12.359,2.648
			c3.531,4.414,6.179,8.828,9.71,13.241c3.531,3.531,2.648,9.71-0.883,12.359C164.076,392.71,161.428,393.593,159.662,393.593z
			 M429.786,348.572c-0.883,0-2.648,0-3.531-0.883c-4.414-1.766-6.179-7.062-4.414-11.476c1.766-5.297,4.414-10.593,6.179-15.89
			c1.766-4.414,6.179-7.062,11.476-5.297c4.414,1.766,7.062,6.179,5.297,11.476c-1.766,6.179-4.414,11.476-6.179,16.772
			C436.848,346.807,433.317,348.572,429.786,348.572z M126.117,332.683c-3.531,0-7.062-2.648-7.945-6.179
			c-1.766-5.297-3.531-11.476-5.297-17.655c-0.883-4.414,1.766-9.71,6.179-10.593c4.414-0.883,9.71,1.766,10.593,6.179
			c1.766,5.297,2.648,10.593,4.414,15.89c1.766,4.414-0.883,9.71-5.297,11.476C127.883,332.683,127,332.683,126.117,332.683z
			 M446.559,280.6L446.559,280.6c-5.297,0-8.828-4.414-8.828-9.71c0-5.297,0.883-10.593,0.883-15.89
			c0-5.297,3.531-8.828,8.828-8.828s8.828,3.531,8.828,8.828l0,0c0,6.179,0,11.476-0.883,17.655
			C455.386,277.069,450.972,280.6,446.559,280.6z M114.641,263.828c-5.297,0-8.828-3.531-8.828-8.828h8.828h-8.828
			c0-6.179,0-12.359,0.883-18.538c0-5.297,4.414-8.828,9.71-7.945c5.297,0,8.828,4.414,7.945,9.71
			c0,5.297-0.883,11.476-0.883,16.772C123.469,260.297,119.938,263.828,114.641,263.828z M441.262,211.745
			c-3.531,0-7.945-2.648-8.828-7.062c-1.766-5.297-2.648-10.593-4.414-15.89c-1.766-4.414,0.883-9.71,5.297-11.476
			c4.414-1.766,9.71,0.883,11.476,5.297c1.766,5.297,3.531,11.476,5.297,17.655c0.883,4.414-1.766,9.71-6.179,10.593
			C442.145,210.862,441.262,211.745,441.262,211.745z M126.117,194.972c-0.883,0-1.766,0-2.648-0.883
			c-4.414-1.766-7.062-6.179-5.297-11.476c1.766-5.297,4.414-11.476,6.179-16.772c1.766-4.414,7.062-6.179,11.476-4.414
			c4.414,1.766,6.179,7.062,4.414,11.476c-2.648,5.297-4.414,10.593-6.179,15.89C133.179,193.207,129.648,194.972,126.117,194.972z
			 M413.014,147.303c-2.648,0-5.297-1.766-7.062-3.531c-3.531-4.414-6.179-8.828-9.71-13.241c-3.531-3.531-2.648-9.71,0.883-12.359
			c3.531-3.531,9.71-2.648,12.359,0.883c3.531,4.414,7.945,9.71,10.593,15.007c2.648,4.414,1.766,9.71-2.648,12.359
			C415.662,147.303,414.779,147.303,413.014,147.303z M159.662,134.062c-1.766,0-3.531-0.883-5.297-1.766
			c-3.531-2.648-4.414-8.828-0.883-12.359c3.531-4.414,7.945-9.71,12.359-13.241c3.531-3.531,8.828-3.531,12.359,0
			c3.531,3.531,3.531,8.828,0,12.359c-3.531,3.531-7.945,7.945-11.476,12.359C164.959,133.179,162.31,134.062,159.662,134.062z
			 M363.579,98.752c-1.766,0-3.531-0.883-4.414-1.766c-4.414-2.648-9.71-6.179-14.124-7.945c-4.414-1.766-6.179-7.945-3.531-11.476
			c1.766-4.414,7.062-6.179,11.476-3.531c5.297,2.648,10.593,6.179,15.89,8.828c4.414,2.648,5.297,7.945,2.648,12.359
			C368.876,96.986,366.228,98.752,363.579,98.752z M213.51,89.924c-3.531,0-6.179-1.766-7.945-4.414
			c-2.648-4.414-0.883-9.71,3.531-11.476c5.297-2.648,11.476-5.297,16.772-7.062c4.414-1.766,9.71,0.883,11.476,5.297
			c1.766,4.414-0.883,9.71-5.297,11.476c-5.297,1.766-10.593,4.414-15.007,7.062C216.159,89.924,214.393,89.924,213.51,89.924z
			 M298.255,74.917h-0.883c-5.297-0.883-10.593-0.883-15.89-0.883c-5.297,0-8.828-3.531-8.828-8.828
			c0-5.297,3.531-8.828,8.828-8.828v8.828v-8.828l0,0c6.179,0,12.359,0,18.538,0.883c4.414,0.883,7.062,5.297,7.062,9.71
			C306.2,71.386,302.669,74.917,298.255,74.917z"/>
		<path style="fill:#0096E6;" d="M342.393,238.228c14.124-9.71,21.186-23.834,21.186-42.372c0-15.89-5.297-29.131-15.89-39.724
			s-24.717-15.89-41.49-15.89h-90.041c-5.297,0-8.828,3.531-8.828,8.828s3.531,8.828,8.828,8.828h20.303v178.317h-20.303
			c-5.297,0-8.828,3.531-8.828,8.828s3.531,8.828,8.828,8.828h100.634c18.538,0,33.545-5.297,44.138-15.89s15.89-24.717,15.89-41.49
			C377.703,265.593,365.345,246.172,342.393,238.228L342.393,238.228z M334.448,222.338c-7.062,7.062-15.89,11.476-27.366,11.476
			h-52.966v-75.917l0,0h51.2c12.359,0,22.069,3.531,29.131,10.593c7.062,7.062,10.593,15.89,10.593,26.483
			S341.51,215.276,334.448,222.338L334.448,222.338z M255,251.469h62.676c13.241,0,23.835,3.531,30.897,11.476
			c7.062,7.062,11.476,17.655,11.476,30.897c0,13.241-3.531,23.834-11.476,30.897c-7.062,7.062-17.655,11.476-30.897,11.476H255
			V251.469C255,251.469,254.117,251.469,255,251.469L255,251.469z"/>
		<path style="fill:#0096E6;" d="M290.31,303.552h-79.448c-4.414,0-8.828-4.414-8.828-8.828c0-5.297,4.414-8.828,8.828-8.828h79.448
			c4.414,0,8.828,3.531,8.828,8.828C299.138,299.138,294.724,303.552,290.31,303.552"/>
	</g>
</g>
</svg>