<svg id="svg" version="1.1" xmlns="http://www.w3.org/2000/svg" xmlns:xlink="http://www.w3.org/1999/xlink" width="400" height="420" viewBox="0, 0, 400,420"><g id="svgg"><path id="path0" d="M139.506 95.535 C 138.744 96.379,137.618 98.130,137.005 99.427 C 136.392 100.723,135.230 102.687,134.423 103.792 C 133.007 105.730,130.121 110.523,128.879 113.000 C 128.548 113.660,127.576 115.190,126.719 116.400 C 125.863 117.610,123.955 120.703,122.481 123.274 C 120.477 126.768,119.349 128.286,118.013 129.284 C 116.498 130.417,116.065 131.078,115.160 133.635 C 113.641 137.927,112.546 139.933,110.549 142.083 C 109.587 143.118,108.800 144.176,108.800 144.434 C 108.800 145.655,104.075 154.228,102.108 156.577 C 101.565 157.225,100.683 158.746,100.148 159.957 C 99.612 161.168,98.685 162.795,98.087 163.572 C 97.489 164.350,96.509 165.709,95.908 166.593 C 95.308 167.477,94.389 168.830,93.867 169.600 C 93.344 170.370,92.778 171.450,92.609 172.000 C 92.439 172.550,91.432 174.350,90.370 176.000 C 86.604 181.851,84.886 184.632,83.451 187.200 C 80.734 192.060,79.922 193.399,79.206 194.200 C 78.812 194.640,77.900 196.080,77.180 197.400 C 76.459 198.720,75.559 200.160,75.180 200.600 C 74.800 201.040,73.895 202.480,73.168 203.800 C 72.441 205.120,71.404 206.792,70.864 207.515 C 66.818 212.934,65.009 218.732,66.500 221.502 C 68.215 224.688,71.242 229.816,73.404 233.200 C 74.599 235.070,75.931 237.320,76.364 238.200 C 76.796 239.080,77.843 240.790,78.689 242.000 C 79.535 243.210,80.941 245.431,81.813 246.935 C 86.275 254.627,87.095 255.995,88.221 257.629 C 89.883 260.040,92.800 264.973,92.800 265.373 C 92.800 265.552,93.581 266.801,94.536 268.149 C 95.491 269.497,96.938 271.770,97.752 273.200 C 99.958 277.074,102.370 280.896,103.179 281.800 C 103.573 282.240,104.368 283.559,104.946 284.730 C 105.524 285.902,106.628 287.810,107.399 288.972 C 108.169 290.133,108.800 291.259,108.800 291.475 C 108.800 291.691,109.518 292.893,110.396 294.146 C 111.274 295.399,112.288 297.003,112.650 297.712 C 113.012 298.420,114.952 301.610,116.960 304.800 C 121.174 311.492,121.510 312.053,123.512 315.743 C 124.330 317.252,125.643 319.322,126.429 320.343 C 127.216 321.364,128.321 323.121,128.886 324.246 C 129.451 325.371,131.309 328.416,133.016 331.011 C 134.723 333.607,136.714 336.920,137.441 338.373 C 139.841 343.171,142.231 344.293,143.581 341.256 C 143.839 340.675,145.268 338.310,146.757 336.000 C 149.530 331.696,152.515 326.793,154.307 323.600 C 154.862 322.610,155.807 321.170,156.407 320.400 C 157.006 319.630,157.999 318.010,158.613 316.800 C 159.227 315.590,160.396 313.694,161.212 312.586 C 162.028 311.478,163.089 309.858,163.569 308.986 C 164.742 306.858,168.728 300.156,170.124 297.964 C 170.743 296.994,172.252 294.490,173.477 292.400 C 174.703 290.310,176.537 287.305,177.553 285.721 C 180.984 280.374,182.328 278.206,183.208 276.600 C 183.690 275.720,184.659 274.190,185.360 273.200 C 186.061 272.210,187.421 269.960,188.381 268.200 C 190.191 264.884,191.268 263.203,192.512 261.753 C 192.912 261.288,193.914 259.578,194.739 257.953 C 196.323 254.833,198.332 251.483,201.042 247.446 C 201.945 246.101,203.072 244.239,203.546 243.308 C 205.983 238.523,210.697 239.588,214.579 245.800 C 214.991 246.460,216.364 248.284,217.630 249.854 C 218.896 251.424,220.222 253.224,220.577 253.854 C 220.931 254.484,222.201 256.350,223.397 258.000 C 225.952 261.524,227.395 263.703,231.477 270.200 C 233.135 272.840,234.848 275.389,235.282 275.865 C 235.717 276.340,236.732 277.810,237.537 279.131 C 243.790 289.392,251.088 298.694,254.113 300.258 C 256.756 301.625,257.410 298.169,255.274 294.124 C 254.152 291.999,247.358 281.992,244.946 278.911 C 243.703 277.322,242.331 275.432,241.898 274.711 C 241.465 273.990,240.082 272.230,238.823 270.800 C 237.565 269.370,236.196 267.660,235.782 267.000 C 235.368 266.340,233.754 264.270,232.196 262.400 C 229.323 258.952,228.856 258.324,226.249 254.400 C 225.445 253.190,223.635 250.490,222.227 248.400 C 216.900 240.492,215.705 234.381,218.687 230.293 C 220.420 227.918,220.456 227.899,225.800 226.661 C 232.279 225.160,232.938 225.116,238.400 225.811 C 247.568 226.978,249.245 227.007,250.497 226.016 C 253.488 223.647,245.400 218.505,236.002 216.800 C 234.713 216.567,232.161 215.687,230.329 214.845 C 228.498 214.003,226.280 213.083,225.400 212.799 C 219.375 210.860,215.891 204.676,218.571 200.676 C 219.873 198.731,228.171 192.787,231.200 191.630 C 231.970 191.336,234.040 190.426,235.800 189.609 C 237.560 188.792,239.670 187.903,240.490 187.634 C 241.309 187.365,242.791 186.475,243.782 185.656 C 244.773 184.837,246.262 183.923,247.092 183.626 C 247.921 183.329,249.013 182.764,249.519 182.371 C 250.024 181.977,251.014 181.529,251.719 181.376 C 252.423 181.222,253.413 180.772,253.919 180.376 C 254.424 179.979,255.369 179.539,256.019 179.396 C 257.536 179.063,257.599 177.996,256.100 178.010 C 254.622 178.023,251.675 178.703,250.200 179.372 C 249.540 179.671,247.686 180.133,246.081 180.397 C 244.282 180.694,241.923 181.484,239.931 182.457 C 238.155 183.326,235.778 184.281,234.651 184.581 C 233.523 184.881,230.530 185.717,228.000 186.438 C 214.975 190.151,213.673 182.792,224.795 168.322 C 225.251 167.730,226.078 166.200,226.634 164.922 C 227.190 163.645,228.075 161.700,228.602 160.600 C 230.742 156.129,230.142 152.799,227.200 152.819 C 225.519 152.830,223.583 155.000,220.968 159.800 C 220.130 161.340,218.938 163.239,218.320 164.019 C 217.702 164.799,216.792 166.191,216.298 167.110 C 209.521 179.731,199.759 183.710,193.132 176.554 C 192.008 175.340,189.565 171.429,186.791 166.400 C 185.881 164.750,184.812 163.040,184.416 162.600 C 183.659 161.759,180.344 155.969,179.835 154.600 C 179.672 154.160,179.278 152.180,178.960 150.200 C 178.005 144.258,177.397 142.579,175.994 141.998 C 175.327 141.721,173.825 140.574,172.655 139.448 C 171.486 138.321,170.005 136.939,169.364 136.376 C 167.995 135.172,164.860 130.879,163.685 128.600 C 163.232 127.720,162.037 125.840,161.030 124.422 C 160.024 123.004,159.200 121.710,159.200 121.546 C 159.200 121.382,158.300 119.752,157.201 117.924 C 156.101 116.096,155.201 114.475,155.201 114.321 C 155.200 114.168,154.300 112.853,153.200 111.400 C 152.100 109.947,151.200 108.564,151.200 108.328 C 151.200 107.782,147.495 101.655,145.508 98.914 C 144.676 97.767,143.797 96.392,143.554 95.858 C 143.200 95.083,141.729 94.000,141.028 94.000 C 140.954 94.000,140.269 94.691,139.506 95.535 M294.320 149.280 C 294.693 149.653,294.907 149.653,295.280 149.280 C 295.653 148.907,295.547 148.800,294.800 148.800 C 294.053 148.800,293.947 148.907,294.320 149.280 M298.587 219.252 C 299.459 219.456,300.539 219.955,300.987 220.361 C 302.544 221.773,311.501 221.927,310.335 220.521 C 309.156 219.101,307.716 218.799,302.320 218.840 C 298.108 218.872,297.331 218.958,298.587 219.252 M284.000 264.027 C 284.000 266.681,290.377 271.394,291.904 269.868 C 293.264 268.507,291.211 266.033,286.913 263.857 C 284.265 262.515,284.000 262.531,284.000 264.027 M200.800 318.390 L 200.800 321.600 202.000 321.600 L 203.200 321.600 203.200 319.010 C 203.200 316.537,203.146 316.393,202.000 315.800 L 200.800 315.179 200.800 318.390 M226.136 371.809 C 225.365 372.892,225.330 373.147,225.798 374.261 C 226.931 376.954,228.037 375.534,227.349 372.271 L 226.997 370.601 226.136 371.809 " stroke="none" fill="#262626" fill-rule="evenodd"></path><path id="path1" d="M0.000 210.000 L 0.000 420.000 200.000 420.000 L 400.000 420.000 400.000 210.000 L 400.000 0.000 200.000 0.000 L 0.000 0.000 0.000 210.000 M168.756 83.000 C 169.716 83.990,170.844 84.800,171.263 84.800 C 174.451 84.800,176.125 87.257,176.579 92.600 C 176.746 94.573,177.235 96.720,177.853 98.200 C 179.305 101.675,179.496 102.466,180.208 107.993 C 180.708 111.875,181.158 113.684,182.231 116.124 C 185.574 123.728,184.569 128.400,179.590 128.400 C 175.979 128.400,174.752 125.825,174.794 118.333 C 174.815 114.653,174.653 113.551,173.622 110.331 C 172.964 108.277,172.231 104.797,171.993 102.598 C 171.290 96.097,170.654 94.922,166.900 93.198 C 165.069 92.357,164.282 91.748,163.962 90.925 C 161.042 83.404,164.157 78.255,168.756 83.000 M145.379 91.149 C 146.553 92.607,147.965 94.741,148.517 95.892 C 149.068 97.042,150.054 98.662,150.708 99.492 C 151.361 100.321,152.278 101.797,152.745 102.770 C 153.716 104.791,155.806 108.115,158.348 111.681 C 159.310 113.030,160.365 114.778,160.693 115.567 C 161.315 117.062,164.055 121.342,166.316 124.352 C 167.040 125.316,167.905 126.756,168.238 127.552 C 169.252 129.981,170.662 131.172,172.222 130.919 C 176.977 130.147,179.312 133.233,181.609 143.322 C 183.534 151.780,184.573 154.760,186.662 157.822 C 188.401 160.372,192.800 168.059,192.800 168.547 C 192.800 169.164,197.215 174.780,198.053 175.228 C 201.901 177.288,207.615 173.340,212.565 165.200 C 214.371 162.230,216.492 158.900,217.277 157.800 C 218.063 156.700,219.162 154.900,219.720 153.800 C 221.873 149.554,225.286 147.200,229.288 147.200 C 231.484 147.200,231.851 147.596,233.170 151.386 C 234.996 156.635,232.174 166.229,226.676 173.458 C 224.999 175.663,224.097 177.048,222.580 179.741 C 220.696 183.086,223.234 183.736,229.600 181.538 C 231.470 180.892,234.350 179.951,236.000 179.446 C 237.650 178.942,240.539 177.885,242.420 177.099 C 244.301 176.313,246.821 175.488,248.020 175.266 C 249.219 175.044,251.460 174.382,253.000 173.795 C 254.540 173.208,257.960 171.931,260.600 170.957 C 263.240 169.983,266.218 168.841,267.218 168.417 C 268.218 167.994,270.468 167.526,272.218 167.376 C 275.193 167.121,278.797 165.671,278.799 164.729 C 278.800 164.334,277.604 163.200,277.187 163.200 C 275.525 163.200,275.880 157.657,277.629 156.318 C 278.288 155.813,279.924 154.455,281.264 153.300 C 282.604 152.145,283.877 151.200,284.093 151.200 C 284.801 151.200,286.922 149.164,288.023 147.428 C 290.784 143.075,300.627 137.931,304.313 138.915 C 306.552 139.513,310.208 138.758,312.687 137.186 C 313.707 136.539,315.184 135.894,315.971 135.752 C 317.857 135.412,318.427 135.093,320.058 133.462 C 321.099 132.421,322.000 131.977,323.814 131.611 C 325.126 131.346,327.142 130.605,328.294 129.965 C 329.731 129.165,330.948 128.800,332.173 128.800 L 333.958 128.800 333.546 129.984 C 333.319 130.635,332.795 131.275,332.381 131.406 C 331.967 131.537,330.947 132.416,330.114 133.359 C 328.424 135.273,322.645 139.148,319.231 140.657 C 318.004 141.200,316.550 142.062,316.000 142.574 C 315.450 143.086,314.517 143.751,313.928 144.052 C 311.630 145.226,307.673 149.032,306.496 151.200 C 305.739 152.596,305.101 153.332,304.751 153.214 C 302.458 152.442,296.732 153.692,295.822 155.164 C 295.695 155.370,294.648 155.833,293.495 156.193 C 291.037 156.961,289.427 157.782,287.881 159.057 C 287.266 159.565,285.864 160.247,284.766 160.573 C 280.151 161.944,278.752 163.502,281.516 164.192 C 286.049 165.323,284.558 172.800,279.800 172.800 C 278.867 172.800,276.806 174.438,276.151 175.700 C 275.837 176.305,275.284 176.800,274.923 176.800 C 273.278 176.800,275.119 177.378,278.298 177.861 C 281.056 178.279,282.403 178.293,284.638 177.928 C 291.342 176.833,299.439 180.764,297.591 184.216 C 296.046 187.104,290.473 187.899,284.542 186.077 C 281.076 185.013,279.875 184.848,274.600 184.709 C 268.164 184.540,266.672 184.173,264.301 182.178 C 262.819 180.931,261.957 181.066,259.169 182.984 C 258.088 183.727,256.618 184.463,255.902 184.618 C 255.186 184.774,253.954 185.363,253.164 185.929 L 251.728 186.956 252.316 189.637 C 253.491 194.989,252.478 196.200,246.830 196.200 C 243.622 196.200,243.241 196.109,241.356 194.900 C 240.242 194.185,238.839 193.600,238.238 193.600 C 236.862 193.600,230.244 196.774,228.166 198.431 C 227.305 199.118,225.970 200.003,225.200 200.397 C 220.746 202.680,221.284 205.643,226.653 208.397 C 230.297 210.266,232.672 210.290,235.396 208.486 C 237.550 207.059,238.029 206.999,242.023 207.659 C 245.750 208.274,245.400 209.271,240.496 212.002 L 238.792 212.952 241.096 213.895 C 242.363 214.415,244.300 215.024,245.400 215.250 C 247.454 215.671,252.919 218.998,254.738 220.935 C 257.798 224.191,256.720 229.273,252.715 230.473 C 251.108 230.954,241.156 230.405,236.333 229.570 C 233.147 229.017,226.018 230.269,223.809 231.768 C 218.600 235.303,220.119 238.812,236.200 260.392 C 237.300 261.868,238.820 263.914,239.577 264.938 C 241.401 267.405,242.705 267.494,243.661 265.217 C 244.650 262.863,249.459 262.262,251.626 264.223 C 252.619 265.122,253.760 268.907,253.432 270.214 C 252.890 272.376,249.095 274.455,247.890 273.250 C 247.073 272.433,246.532 272.755,246.708 273.953 C 246.815 274.682,247.231 275.268,247.839 275.545 C 248.367 275.786,248.800 276.200,248.800 276.466 C 248.800 276.731,249.516 277.797,250.391 278.835 C 251.266 279.872,252.211 281.234,252.491 281.861 C 252.771 282.487,253.810 284.108,254.800 285.463 C 260.453 293.198,260.773 293.927,260.790 299.113 C 260.805 303.415,260.238 304.439,257.107 305.770 L 254.518 306.870 255.073 308.483 C 255.881 310.828,256.554 312.016,258.378 314.325 C 259.273 315.456,260.370 317.359,260.816 318.552 C 261.263 319.746,262.213 321.505,262.927 322.461 C 263.641 323.417,264.421 324.650,264.659 325.200 C 264.898 325.750,265.744 326.978,266.539 327.929 C 267.334 328.879,268.178 330.409,268.414 331.329 C 268.650 332.248,268.878 333.109,268.922 333.242 C 268.965 333.376,269.691 334.546,270.535 335.842 C 272.939 339.537,275.968 345.085,276.813 347.342 C 277.236 348.474,278.217 350.385,278.992 351.588 C 279.768 352.792,280.503 354.141,280.626 354.588 C 280.749 355.035,281.007 355.760,281.199 356.200 C 283.662 361.844,283.799 363.074,282.079 364.090 C 280.543 364.997,278.145 364.445,276.800 362.874 C 274.019 359.627,272.598 357.581,271.609 355.400 C 271.010 354.080,270.040 352.430,269.452 351.733 C 268.865 351.036,268.003 349.596,267.537 348.533 C 267.071 347.470,266.089 345.687,265.354 344.572 C 264.538 343.334,263.800 341.504,263.458 339.873 C 263.051 337.933,262.514 336.734,261.495 335.490 C 260.723 334.548,259.803 332.927,259.450 331.887 C 259.097 330.847,258.201 328.782,257.459 327.298 C 256.718 325.814,255.885 323.880,255.608 323.000 C 255.332 322.120,254.508 320.770,253.777 320.000 C 252.277 318.421,251.828 317.412,251.437 314.746 C 251.277 313.654,250.826 312.586,250.341 312.147 C 248.937 310.876,248.383 309.313,248.128 305.895 C 247.794 301.420,246.641 299.037,241.713 292.635 C 240.881 291.554,239.947 290.204,239.637 289.635 C 239.328 289.066,238.338 287.689,237.437 286.577 C 236.537 285.464,234.810 282.968,233.600 281.031 C 232.390 279.094,230.623 276.537,229.674 275.349 C 228.725 274.162,227.676 272.392,227.344 271.417 C 227.012 270.442,226.075 268.869,225.262 267.922 C 223.769 266.182,221.335 262.727,219.721 260.055 C 218.537 258.097,214.849 254.218,214.501 254.566 C 214.347 254.719,214.277 256.155,214.344 257.757 C 214.612 264.190,210.173 267.486,207.600 262.765 C 207.050 261.755,206.263 260.326,205.851 259.589 C 205.124 258.289,204.905 255.559,205.403 253.990 C 205.662 253.174,207.988 251.842,209.878 251.427 C 211.428 251.086,211.882 249.706,211.004 248.008 C 209.312 244.735,206.260 245.676,204.549 250.000 C 204.158 250.990,203.237 252.420,202.503 253.177 C 201.769 253.935,200.808 255.375,200.366 256.377 C 199.925 257.380,199.056 258.834,198.437 259.608 C 197.817 260.383,196.918 261.733,196.439 262.608 C 195.960 263.484,195.125 264.812,194.584 265.559 C 193.291 267.345,193.206 270.592,194.413 272.125 C 196.847 275.220,200.174 289.015,199.435 292.952 C 199.076 294.870,197.125 295.101,196.492 293.300 C 196.279 292.695,195.337 290.040,194.398 287.400 C 193.459 284.760,192.372 280.742,191.983 278.471 C 191.594 276.200,191.206 274.273,191.121 274.188 C 190.658 273.725,185.190 280.392,184.385 282.400 C 184.077 283.170,183.171 284.790,182.373 286.000 C 181.575 287.210,180.686 288.650,180.399 289.200 C 180.111 289.750,179.304 290.920,178.606 291.800 C 177.907 292.680,176.410 295.318,175.279 297.663 C 174.148 300.008,172.514 302.743,171.650 303.743 C 170.785 304.742,169.588 306.603,168.990 307.880 C 168.392 309.156,167.322 310.920,166.611 311.800 C 165.900 312.680,164.995 314.030,164.600 314.800 C 164.205 315.570,163.470 316.742,162.966 317.404 C 162.463 318.066,161.400 319.866,160.603 321.404 C 159.806 322.942,158.545 325.100,157.800 326.200 C 154.903 330.481,152.823 333.846,152.442 334.867 C 152.224 335.454,151.380 336.804,150.567 337.867 C 149.754 338.930,148.779 340.520,148.399 341.400 C 147.702 343.015,144.820 346.976,143.670 347.900 C 141.449 349.683,137.090 347.162,135.250 343.031 C 134.850 342.134,133.776 340.247,132.862 338.838 C 131.948 337.429,131.200 336.100,131.200 335.886 C 131.200 335.671,130.582 334.635,129.826 333.584 C 129.071 332.532,128.059 330.900,127.578 329.957 C 127.097 329.014,125.217 326.058,123.400 323.389 C 121.584 320.720,119.737 317.720,119.295 316.723 C 118.854 315.725,117.752 313.769,116.847 312.375 C 115.941 310.981,115.200 309.694,115.200 309.515 C 115.200 309.335,114.416 308.226,113.457 307.049 C 112.498 305.872,111.595 304.436,111.450 303.858 C 111.305 303.280,109.596 300.421,107.652 297.504 C 105.708 294.587,103.776 291.347,103.359 290.304 C 102.941 289.261,101.925 287.461,101.100 286.304 C 99.074 283.462,95.889 278.429,95.338 277.200 C 95.092 276.650,93.951 274.940,92.802 273.400 C 91.654 271.860,89.856 268.855,88.808 266.722 C 87.759 264.589,86.068 261.736,85.050 260.382 C 84.033 259.028,83.200 257.749,83.200 257.538 C 83.200 257.328,82.497 256.121,81.638 254.856 C 80.779 253.590,79.783 251.855,79.425 250.999 C 79.068 250.143,78.286 248.818,77.688 248.055 C 76.424 246.442,73.587 241.888,71.174 237.600 C 70.246 235.950,69.002 233.880,68.409 233.000 C 66.387 229.996,63.600 225.610,63.600 225.431 C 63.600 225.333,63.018 224.317,62.307 223.173 C 59.924 219.340,60.576 216.337,65.425 208.800 C 66.345 207.370,67.346 205.727,67.649 205.149 C 67.952 204.570,68.842 203.130,69.628 201.949 C 70.413 200.767,71.902 198.244,72.938 196.341 C 73.973 194.439,75.721 191.661,76.824 190.168 C 77.926 188.675,79.157 186.708,79.560 185.798 C 79.963 184.887,80.871 183.345,81.579 182.371 C 82.287 181.397,83.112 180.016,83.412 179.301 C 83.713 178.587,84.615 177.216,85.418 176.256 C 86.221 175.295,87.275 173.540,87.760 172.355 C 88.588 170.333,89.483 168.795,93.385 162.682 C 94.256 161.317,95.300 159.485,95.705 158.611 C 96.109 157.738,96.852 156.478,97.356 155.811 C 101.292 150.608,102.805 147.842,102.790 145.881 C 102.779 144.454,101.450 140.183,100.757 139.348 C 100.051 138.498,101.441 138.191,103.500 138.742 C 108.794 140.158,112.509 133.673,108.701 129.663 C 103.219 123.891,99.634 114.126,102.285 112.187 C 103.419 111.358,106.440 112.202,107.688 113.697 C 108.287 114.414,109.367 115.693,110.088 116.541 C 110.810 117.388,111.942 118.990,112.605 120.101 C 115.612 125.141,117.601 124.748,120.201 118.600 C 120.573 117.720,122.136 115.338,123.675 113.306 C 125.213 111.274,126.831 108.664,127.269 107.506 C 127.707 106.348,128.771 104.463,129.633 103.317 C 130.495 102.172,131.200 101.103,131.200 100.943 C 131.200 100.336,135.756 92.550,136.755 91.448 C 140.475 87.348,142.269 87.286,145.379 91.149 M266.472 108.360 C 268.330 110.129,267.225 114.447,264.441 116.297 C 258.976 119.929,254.388 111.480,259.658 107.489 C 261.893 105.796,264.071 106.075,266.472 108.360 M215.427 112.638 C 216.224 117.956,214.900 121.887,212.072 122.596 C 209.625 123.210,209.453 121.007,211.485 115.109 C 213.272 109.923,214.869 108.922,215.427 112.638 M251.627 124.232 C 252.935 125.808,251.947 130.005,249.799 132.000 C 249.207 132.550,248.371 133.685,247.941 134.523 C 246.508 137.318,241.970 141.531,240.064 141.836 C 239.146 141.983,237.579 142.620,236.583 143.252 C 232.552 145.808,230.819 143.037,233.661 138.578 C 234.354 137.490,235.328 135.686,235.825 134.569 C 236.322 133.453,237.229 132.211,237.840 131.811 C 238.451 131.410,239.903 130.055,241.066 128.798 C 244.473 125.118,250.279 122.608,251.627 124.232 M207.992 131.584 C 210.738 136.967,206.868 165.637,203.125 167.640 C 197.498 170.652,196.467 157.766,201.299 144.800 C 202.078 142.710,202.926 139.650,203.185 138.000 C 204.181 131.644,204.542 130.908,207.092 130.032 C 207.142 130.014,207.547 130.713,207.992 131.584 M257.453 148.058 C 260.175 149.357,258.138 154.208,253.414 157.677 C 245.787 163.277,242.619 156.729,249.668 149.935 C 252.670 147.041,254.431 146.617,257.453 148.058 M287.347 196.769 C 288.431 197.853,288.591 202.380,287.582 203.390 C 284.660 206.311,277.998 204.323,278.001 200.531 C 278.006 196.245,284.292 193.714,287.347 196.769 M307.800 214.797 C 318.354 215.353,319.140 215.478,320.479 216.818 C 322.429 218.768,321.719 223.118,319.300 224.038 C 316.260 225.194,308.600 225.601,301.320 224.994 C 297.404 224.668,290.359 224.131,285.665 223.802 C 280.971 223.473,276.980 223.111,276.797 222.998 C 276.613 222.884,275.233 222.778,273.731 222.762 C 267.576 222.697,263.539 220.578,264.240 217.781 C 264.719 215.876,266.128 215.564,276.957 214.966 C 294.758 213.982,292.565 213.994,307.800 214.797 M313.386 232.168 C 315.597 233.092,316.455 235.377,315.557 237.952 C 314.269 241.647,305.263 241.475,304.563 237.742 C 303.699 233.138,308.480 230.118,313.386 232.168 M286.531 258.860 C 290.973 260.481,295.041 263.697,296.480 266.727 C 299.662 273.422,294.029 278.609,288.298 274.262 C 287.364 273.554,285.970 272.582,285.200 272.101 C 283.829 271.246,279.919 267.401,278.777 265.784 C 278.460 265.335,277.615 264.557,276.900 264.056 C 273.365 261.579,277.323 256.694,282.200 257.516 C 282.860 257.627,284.809 258.232,286.531 258.860 M223.343 284.700 C 223.480 285.525,223.593 286.797,223.596 287.526 C 223.601 289.241,224.971 295.352,226.228 299.267 C 226.769 300.953,227.487 304.463,227.823 307.067 C 228.780 314.478,229.587 320.258,230.263 324.543 C 231.193 330.433,230.885 342.306,229.737 344.800 C 227.046 350.647,224.036 349.196,223.415 341.752 C 223.270 340.019,222.814 337.070,222.400 335.200 C 219.525 322.202,218.572 287.528,220.983 283.627 C 221.662 282.529,223.092 283.179,223.343 284.700 M268.473 289.418 C 269.336 290.198,270.450 291.022,270.947 291.249 C 271.445 291.475,272.127 292.114,272.463 292.669 C 273.206 293.894,275.929 297.026,278.500 299.615 C 279.545 300.667,280.400 301.704,280.400 301.920 C 280.400 302.136,281.134 303.187,282.031 304.256 C 282.929 305.325,284.075 307.100,284.580 308.200 C 285.084 309.300,286.060 310.729,286.748 311.375 C 287.589 312.164,288.000 312.928,288.000 313.701 C 288.000 318.178,283.395 316.949,279.574 311.452 C 278.789 310.323,277.759 309.206,277.285 308.969 C 276.811 308.732,275.473 307.648,274.311 306.560 C 273.150 305.473,270.654 303.275,268.765 301.676 C 264.690 298.227,263.568 296.450,263.325 293.058 C 262.985 288.302,265.370 286.615,268.473 289.418 M204.125 306.784 C 206.704 309.848,208.828 320.438,207.413 323.174 C 205.050 327.744,201.841 328.476,198.587 325.186 L 196.200 322.771 196.215 318.286 C 196.246 309.089,200.662 302.669,204.125 306.784 M228.639 362.100 C 231.124 364.732,231.215 364.919,231.824 368.672 C 233.280 377.641,231.460 382.000,226.260 382.000 C 219.393 382.000,219.916 361.709,226.817 360.440 C 226.936 360.418,227.756 361.165,228.639 362.100 " stroke="none" fill="#fbfbfa" fill-rule="evenodd"></path><path id="path2" d="M164.058 81.731 C 162.808 83.236,162.493 84.951,163.014 87.400 C 163.899 91.554,164.157 91.939,166.900 93.198 C 170.654 94.922,171.290 96.097,171.993 102.598 C 172.231 104.797,172.964 108.277,173.622 110.331 C 174.653 113.551,174.815 114.653,174.794 118.333 C 174.752 125.825,175.979 128.400,179.590 128.400 C 184.569 128.400,185.574 123.728,182.231 116.124 C 181.158 113.684,180.708 111.875,180.208 107.993 C 179.496 102.466,179.305 101.675,177.853 98.200 C 177.235 96.720,176.746 94.573,176.579 92.600 C 176.125 87.257,174.451 84.800,171.263 84.800 C 170.844 84.800,169.716 83.990,168.756 83.000 C 166.922 81.108,165.005 80.589,164.058 81.731 M167.581 86.142 C 168.043 87.542,167.600 89.600,166.837 89.600 C 166.263 89.600,164.800 87.386,164.800 86.518 C 164.800 84.499,166.943 84.209,167.581 86.142 M139.270 89.213 C 136.832 91.010,131.200 99.196,131.200 100.943 C 131.200 101.103,130.495 102.172,129.633 103.317 C 128.771 104.463,127.707 106.348,127.269 107.506 C 126.831 108.664,125.213 111.274,123.675 113.306 C 122.136 115.338,120.573 117.720,120.201 118.600 C 117.601 124.748,115.612 125.141,112.605 120.101 C 111.942 118.990,110.810 117.388,110.088 116.541 C 109.367 115.693,108.287 114.414,107.688 113.697 C 106.440 112.202,103.419 111.358,102.285 112.187 C 99.634 114.126,103.219 123.891,108.701 129.663 C 112.509 133.673,108.794 140.158,103.500 138.742 C 101.441 138.191,100.051 138.498,100.757 139.348 C 101.450 140.183,102.779 144.454,102.790 145.881 C 102.805 147.842,101.292 150.608,97.356 155.811 C 96.852 156.478,96.109 157.738,95.705 158.611 C 95.300 159.485,94.256 161.317,93.385 162.682 C 89.483 168.795,88.588 170.333,87.760 172.355 C 87.275 173.540,86.221 175.295,85.418 176.256 C 84.615 177.216,83.713 178.587,83.412 179.301 C 83.112 180.016,82.287 181.397,81.579 182.371 C 80.871 183.345,79.963 184.887,79.560 185.798 C 79.157 186.708,77.926 188.675,76.824 190.168 C 75.721 191.661,73.973 194.439,72.938 196.341 C 71.902 198.244,70.413 200.767,69.628 201.949 C 68.842 203.130,67.952 204.570,67.649 205.149 C 67.346 205.727,66.345 207.370,65.425 208.800 C 60.576 216.337,59.924 219.340,62.307 223.173 C 63.018 224.317,63.600 225.333,63.600 225.431 C 63.600 225.610,66.387 229.996,68.409 233.000 C 69.002 233.880,70.246 235.950,71.174 237.600 C 73.587 241.888,76.424 246.442,77.688 248.055 C 78.286 248.818,79.068 250.143,79.425 250.999 C 79.783 251.855,80.779 253.590,81.638 254.856 C 82.497 256.121,83.200 257.328,83.200 257.538 C 83.200 257.749,84.033 259.028,85.050 260.382 C 86.068 261.736,87.759 264.589,88.808 266.722 C 89.856 268.855,91.654 271.860,92.802 273.400 C 93.951 274.940,95.092 276.650,95.338 277.200 C 95.889 278.429,99.074 283.462,101.100 286.304 C 101.925 287.461,102.941 289.261,103.359 290.304 C 103.776 291.347,105.708 294.587,107.652 297.504 C 109.596 300.421,111.305 303.280,111.450 303.858 C 111.595 304.436,112.498 305.872,113.457 307.049 C 114.416 308.226,115.200 309.335,115.200 309.515 C 115.200 309.694,115.941 310.981,116.847 312.375 C 117.752 313.769,118.854 315.725,119.295 316.723 C 119.737 317.720,121.584 320.720,123.400 323.389 C 125.217 326.058,127.097 329.014,127.578 329.957 C 128.059 330.900,129.071 332.532,129.826 333.584 C 130.582 334.635,131.200 335.671,131.200 335.886 C 131.200 336.100,131.948 337.429,132.862 338.838 C 133.776 340.247,134.850 342.134,135.250 343.031 C 137.090 347.162,141.449 349.683,143.670 347.900 C 144.820 346.976,147.702 343.015,148.399 341.400 C 148.779 340.520,149.754 338.930,150.567 337.867 C 151.380 336.804,152.224 335.454,152.442 334.867 C 152.823 333.846,154.903 330.481,157.800 326.200 C 158.545 325.100,159.806 322.942,160.603 321.404 C 161.400 319.866,162.463 318.066,162.966 317.404 C 163.470 316.742,164.205 315.570,164.600 314.800 C 164.995 314.030,165.900 312.680,166.611 311.800 C 167.322 310.920,168.392 309.156,168.990 307.880 C 169.588 306.603,170.785 304.742,171.650 303.743 C 172.514 302.743,174.148 300.008,175.279 297.663 C 176.410 295.318,177.907 292.680,178.606 291.800 C 179.304 290.920,180.111 289.750,180.399 289.200 C 180.686 288.650,181.575 287.210,182.373 286.000 C 183.171 284.790,184.077 283.170,184.385 282.400 C 185.190 280.392,190.658 273.725,191.121 274.188 C 191.206 274.273,191.594 276.200,191.983 278.471 C 192.372 280.742,193.459 284.760,194.398 287.400 C 195.337 290.040,196.279 292.695,196.492 293.300 C 197.125 295.101,199.076 294.870,199.435 292.952 C 200.174 289.015,196.847 275.220,194.413 272.125 C 193.206 270.592,193.291 267.345,194.584 265.559 C 195.125 264.812,195.960 263.484,196.439 262.608 C 196.918 261.733,197.817 260.383,198.437 259.608 C 199.056 258.834,199.925 257.380,200.366 256.377 C 200.808 255.375,201.769 253.935,202.503 253.177 C 203.237 252.420,204.158 250.990,204.549 250.000 C 206.260 245.676,209.312 244.735,211.004 248.008 C 211.882 249.706,211.428 251.086,209.878 251.427 C 207.988 251.842,205.662 253.174,205.403 253.990 C 204.905 255.559,205.124 258.289,205.851 259.589 C 206.263 260.326,207.050 261.755,207.600 262.765 C 210.173 267.486,214.612 264.190,214.344 257.757 C 214.277 256.155,214.347 254.719,214.501 254.566 C 214.849 254.218,218.537 258.097,219.721 260.055 C 221.335 262.727,223.769 266.182,225.262 267.922 C 226.075 268.869,227.012 270.442,227.344 271.417 C 227.676 272.392,228.725 274.162,229.674 275.349 C 230.623 276.537,232.390 279.094,233.600 281.031 C 234.810 282.968,236.537 285.464,237.437 286.577 C 238.338 287.689,239.328 289.066,239.637 289.635 C 239.947 290.204,240.881 291.554,241.713 292.635 C 246.641 299.037,247.794 301.420,248.128 305.895 C 248.383 309.313,248.937 310.876,250.341 312.147 C 250.826 312.586,251.277 313.654,251.437 314.746 C 251.828 317.412,252.277 318.421,253.777 320.000 C 254.508 320.770,255.332 322.120,255.608 323.000 C 255.885 323.880,256.718 325.814,257.459 327.298 C 258.201 328.782,259.097 330.847,259.450 331.887 C 259.803 332.927,260.723 334.548,261.495 335.490 C 262.514 336.734,263.051 337.933,263.458 339.873 C 263.800 341.504,264.538 343.334,265.354 344.572 C 266.089 345.687,267.071 347.470,267.537 348.533 C 268.003 349.596,268.865 351.036,269.452 351.733 C 270.040 352.430,271.010 354.080,271.609 355.400 C 272.598 357.581,274.019 359.627,276.800 362.874 C 278.145 364.445,280.543 364.997,282.079 364.090 C 283.799 363.074,283.662 361.844,281.199 356.200 C 281.007 355.760,280.749 355.035,280.626 354.588 C 280.503 354.141,279.768 352.792,278.992 351.588 C 278.217 350.385,277.236 348.474,276.813 347.342 C 275.968 345.085,272.939 339.537,270.535 335.842 C 269.691 334.546,268.965 333.376,268.922 333.242 C 268.878 333.109,268.650 332.248,268.414 331.329 C 268.178 330.409,267.334 328.879,266.539 327.929 C 265.744 326.978,264.898 325.750,264.659 325.200 C 264.421 324.650,263.641 323.417,262.927 322.461 C 262.213 321.505,261.263 319.746,260.816 318.552 C 260.370 317.359,259.273 315.456,258.378 314.325 C 256.554 312.016,255.881 310.828,255.073 308.483 L 254.518 306.870 257.107 305.770 C 260.238 304.439,260.805 303.415,260.790 299.113 C 260.773 293.927,260.453 293.198,254.800 285.463 C 253.810 284.108,252.771 282.487,252.491 281.861 C 252.211 281.234,251.266 279.872,250.391 278.835 C 249.516 277.797,248.800 276.731,248.800 276.466 C 248.800 276.200,248.367 275.786,247.839 275.545 C 247.231 275.268,246.815 274.682,246.708 273.953 C 246.532 272.755,247.073 272.433,247.890 273.250 C 249.095 274.455,252.890 272.376,253.432 270.214 C 253.760 268.907,252.619 265.122,251.626 264.223 C 249.459 262.262,244.650 262.863,243.661 265.217 C 242.705 267.494,241.401 267.405,239.577 264.938 C 238.820 263.914,237.300 261.868,236.200 260.392 C 220.119 238.812,218.600 235.303,223.809 231.768 C 226.018 230.269,233.147 229.017,236.333 229.570 C 241.156 230.405,251.108 230.954,252.715 230.473 C 256.720 229.273,257.798 224.191,254.738 220.935 C 252.919 218.998,247.454 215.671,245.400 215.250 C 244.300 215.024,242.363 214.415,241.096 213.895 L 238.792 212.952 240.496 212.002 C 245.400 209.271,245.750 208.274,242.023 207.659 C 238.029 206.999,237.550 207.059,235.396 208.486 C 232.672 210.290,230.297 210.266,226.653 208.397 C 221.284 205.643,220.746 202.680,225.200 200.397 C 225.970 200.003,227.305 199.118,228.166 198.431 C 230.244 196.774,236.862 193.600,238.238 193.600 C 238.839 193.600,240.242 194.185,241.356 194.900 C 243.241 196.109,243.622 196.200,246.830 196.200 C 252.478 196.200,253.491 194.989,252.316 189.637 L 251.728 186.956 253.164 185.929 C 253.954 185.363,255.186 184.774,255.902 184.618 C 256.618 184.463,258.088 183.727,259.169 182.984 C 261.957 181.066,262.819 180.931,264.301 182.178 C 266.672 184.173,268.164 184.540,274.600 184.709 C 279.875 184.848,281.076 185.013,284.542 186.077 C 290.473 187.899,296.046 187.104,297.591 184.216 C 299.439 180.764,291.342 176.833,284.638 177.928 C 282.403 178.293,281.056 178.279,278.298 177.861 C 275.119 177.378,273.278 176.800,274.923 176.800 C 275.284 176.800,275.837 176.305,276.151 175.700 C 276.806 174.438,278.867 172.800,279.800 172.800 C 284.558 172.800,286.049 165.323,281.516 164.192 C 278.752 163.502,280.151 161.944,284.766 160.573 C 285.864 160.247,287.266 159.565,287.881 159.057 C 289.427 157.782,291.037 156.961,293.495 156.193 C 294.648 155.833,295.695 155.370,295.822 155.164 C 296.732 153.692,302.458 152.442,304.751 153.214 C 305.101 153.332,305.739 152.596,306.496 151.200 C 307.673 149.032,311.630 145.226,313.928 144.052 C 314.517 143.751,315.450 143.086,316.000 142.574 C 316.550 142.062,318.004 141.200,319.231 140.657 C 322.645 139.148,328.424 135.273,330.114 133.359 C 330.947 132.416,331.967 131.537,332.381 131.406 C 332.795 131.275,333.319 130.635,333.546 129.984 L 333.958 128.800 332.173 128.800 C 330.948 128.800,329.731 129.165,328.294 129.965 C 327.142 130.605,325.126 131.346,323.814 131.611 C 322.000 131.977,321.099 132.421,320.058 133.462 C 318.427 135.093,317.857 135.412,315.971 135.752 C 315.184 135.894,313.707 136.539,312.687 137.186 C 310.208 138.758,306.552 139.513,304.313 138.915 C 300.627 137.931,290.784 143.075,288.023 147.428 C 286.922 149.164,284.801 151.200,284.093 151.200 C 283.877 151.200,282.604 152.145,281.264 153.300 C 279.924 154.455,278.288 155.813,277.629 156.318 C 275.880 157.657,275.525 163.200,277.187 163.200 C 277.604 163.200,278.800 164.334,278.799 164.729 C 278.797 165.671,275.193 167.121,272.218 167.376 C 270.468 167.526,268.218 167.994,267.218 168.417 C 266.218 168.841,263.240 169.983,260.600 170.957 C 257.960 171.931,254.540 173.208,253.000 173.795 C 251.460 174.382,249.219 175.044,248.020 175.266 C 246.821 175.488,244.301 176.313,242.420 177.099 C 240.539 177.885,237.650 178.942,236.000 179.446 C 234.350 179.951,231.470 180.892,229.600 181.538 C 223.234 183.736,220.696 183.086,222.580 179.741 C 224.097 177.048,224.999 175.663,226.676 173.458 C 232.174 166.229,234.996 156.635,233.170 151.386 C 231.851 147.596,231.484 147.200,229.288 147.200 C 225.286 147.200,221.873 149.554,219.720 153.800 C 219.162 154.900,218.063 156.700,217.277 157.800 C 216.492 158.900,214.371 162.230,212.565 165.200 C 207.615 173.340,201.901 177.288,198.053 175.228 C 197.215 174.780,192.800 169.164,192.800 168.547 C 192.800 168.059,188.401 160.372,186.662 157.822 C 184.573 154.760,183.534 151.780,181.609 143.322 C 179.312 133.233,176.977 130.147,172.222 130.919 C 170.662 131.172,169.252 129.981,168.238 127.552 C 167.905 126.756,167.040 125.316,166.316 124.352 C 164.055 121.342,161.315 117.062,160.693 115.567 C 160.365 114.778,159.310 113.030,158.348 111.681 C 155.806 108.115,153.716 104.791,152.745 102.770 C 152.278 101.797,151.361 100.321,150.708 99.492 C 150.054 98.662,149.068 97.042,148.517 95.892 C 145.535 89.676,142.054 87.162,139.270 89.213 M142.474 91.175 C 142.983 91.381,144.390 93.098,145.600 94.990 C 146.810 96.882,148.388 99.279,149.108 100.315 C 149.827 101.352,150.912 103.190,151.518 104.400 C 152.125 105.610,153.986 108.671,155.654 111.202 C 157.322 113.732,159.160 116.738,159.739 117.880 C 160.318 119.022,161.753 121.368,162.928 123.094 C 164.103 124.819,165.837 127.533,166.783 129.125 C 168.717 132.380,170.136 133.600,171.988 133.600 C 173.645 133.600,174.541 134.113,176.327 136.081 C 178.742 138.743,179.123 139.569,179.787 143.574 C 180.135 145.678,180.602 148.300,180.823 149.400 C 181.319 151.865,183.707 157.160,185.458 159.676 C 186.177 160.708,187.338 162.688,188.038 164.076 C 188.739 165.464,189.716 167.140,190.210 167.800 C 190.704 168.460,191.481 169.741,191.935 170.647 C 193.167 173.101,196.604 176.673,198.258 177.219 C 202.254 178.538,209.403 174.653,212.292 169.594 C 214.639 165.484,216.969 161.743,218.025 160.389 C 218.631 159.613,219.634 157.903,220.255 156.589 C 222.569 151.693,226.194 149.002,228.934 150.147 C 232.718 151.728,233.097 156.865,229.900 163.222 C 228.855 165.300,228.000 167.165,228.000 167.367 C 228.000 167.569,226.259 170.326,224.131 173.493 C 219.777 179.972,218.960 182.535,220.734 184.141 C 222.198 185.465,229.182 184.376,235.281 181.872 C 237.106 181.122,239.590 180.199,240.800 179.819 C 242.010 179.439,244.276 178.612,245.835 177.980 C 247.395 177.348,250.365 176.454,252.435 175.993 C 254.666 175.496,257.178 174.613,258.600 173.824 C 259.920 173.092,262.350 172.193,264.000 171.827 C 265.650 171.461,268.453 170.630,270.229 169.981 C 272.671 169.088,274.149 168.800,276.294 168.800 L 279.131 168.800 278.693 169.958 C 278.381 170.786,277.836 171.242,276.786 171.557 C 275.977 171.799,274.505 172.711,273.514 173.583 C 272.523 174.456,270.672 175.558,269.401 176.034 C 268.130 176.509,266.474 177.317,265.721 177.828 C 264.967 178.339,263.417 179.030,262.276 179.362 C 261.134 179.695,259.120 180.625,257.800 181.430 C 256.480 182.234,254.148 183.323,252.617 183.850 C 247.374 185.656,245.970 188.620,248.627 192.274 C 250.297 194.569,245.505 194.799,243.756 192.507 L 242.685 191.102 239.759 191.290 C 236.527 191.497,230.221 194.257,226.516 197.085 C 225.525 197.841,223.837 199.000,222.764 199.660 C 217.084 203.155,220.931 209.876,229.846 212.034 C 230.921 212.294,232.970 213.107,234.400 213.840 C 235.888 214.602,238.686 215.533,240.942 216.017 C 248.145 217.561,254.400 222.022,254.400 225.616 C 254.400 228.457,251.760 228.982,241.527 228.178 C 223.110 226.731,217.323 229.908,220.203 239.884 C 220.570 241.158,221.275 242.740,221.769 243.400 C 222.263 244.060,223.184 245.500,223.816 246.600 C 224.448 247.700,225.783 249.707,226.782 251.061 C 227.782 252.415,229.320 254.561,230.200 255.830 C 231.080 257.099,232.430 258.892,233.200 259.813 C 233.970 260.734,235.410 262.633,236.400 264.033 C 237.390 265.433,239.322 267.693,240.693 269.056 C 242.473 270.825,243.422 272.162,244.008 273.730 C 244.460 274.938,245.079 276.022,245.384 276.139 C 246.035 276.388,250.421 282.202,251.919 284.800 C 252.489 285.790,253.528 287.320,254.227 288.200 C 258.975 294.180,260.839 301.681,257.959 303.222 C 254.012 305.335,252.315 303.965,243.128 291.251 C 241.438 288.913,239.278 285.932,238.328 284.626 C 237.378 283.320,236.150 281.474,235.600 280.524 C 235.050 279.574,233.378 277.066,231.884 274.951 C 230.390 272.836,228.793 270.362,228.334 269.453 C 227.543 267.888,226.788 266.763,222.623 260.943 C 221.656 259.592,220.598 257.972,220.272 257.343 C 219.945 256.714,218.294 254.490,216.603 252.400 C 214.912 250.310,212.979 247.641,212.308 246.469 C 210.020 242.471,206.164 242.523,204.109 246.579 C 203.546 247.691,202.418 249.590,201.602 250.800 C 199.799 253.474,197.982 256.476,195.911 260.200 C 195.054 261.740,193.929 263.450,193.409 264.000 C 192.890 264.550,192.022 266.007,191.482 267.237 C 190.598 269.251,189.836 270.526,186.915 274.880 C 186.428 275.606,185.528 277.080,184.915 278.156 C 184.302 279.232,183.046 281.243,182.124 282.625 C 181.202 284.007,180.080 285.826,179.629 286.669 C 179.179 287.511,178.292 288.920,177.659 289.800 C 177.026 290.680,175.463 293.290,174.187 295.600 C 172.911 297.910,171.161 300.759,170.298 301.930 C 169.434 303.102,168.374 304.861,167.941 305.839 C 167.509 306.818,165.785 309.639,164.110 312.109 C 162.436 314.579,160.488 317.776,159.781 319.213 C 159.074 320.650,158.049 322.360,157.504 323.013 C 156.959 323.666,156.193 324.830,155.801 325.600 C 155.410 326.370,154.572 327.660,153.938 328.467 C 153.304 329.274,152.349 330.921,151.815 332.127 C 151.282 333.334,150.330 334.924,149.701 335.660 C 149.072 336.397,147.773 338.388,146.816 340.085 C 142.624 347.513,139.692 347.783,136.343 341.052 C 135.165 338.684,134.662 337.843,130.376 331.088 C 129.290 329.377,128.121 327.307,127.779 326.488 C 127.437 325.670,126.738 324.550,126.226 324.000 C 125.196 322.895,122.761 319.009,120.211 314.400 C 118.471 311.255,116.277 307.698,114.411 305.000 C 113.802 304.120,112.752 302.302,112.076 300.960 C 111.401 299.617,110.391 297.975,109.831 297.310 C 108.731 296.003,106.604 292.459,104.572 288.550 C 103.871 287.202,101.765 283.766,99.891 280.915 C 98.017 278.064,96.113 275.006,95.661 274.119 C 95.208 273.232,94.398 271.984,93.860 271.344 C 93.322 270.705,92.351 269.106,91.702 267.791 C 90.253 264.857,87.360 260.082,86.376 259.000 C 85.976 258.560,84.944 256.940,84.083 255.400 C 82.291 252.195,80.167 248.605,78.529 246.012 C 77.018 243.620,74.474 239.385,73.000 236.807 C 72.340 235.653,71.217 233.874,70.504 232.854 C 69.791 231.834,68.667 230.010,68.006 228.800 C 67.345 227.590,66.104 225.477,65.248 224.103 C 62.758 220.108,62.810 216.454,65.413 212.619 C 65.973 211.794,67.055 209.923,67.819 208.460 C 68.582 206.997,69.790 204.952,70.503 203.915 C 72.746 200.654,75.490 196.231,75.761 195.440 C 75.904 195.022,76.748 193.672,77.637 192.440 C 79.219 190.246,81.675 186.183,83.825 182.200 C 84.419 181.100,85.400 179.570,86.005 178.800 C 86.610 178.030,87.684 176.329,88.391 175.019 C 90.970 170.247,92.899 166.961,94.155 165.200 C 94.861 164.210,96.385 161.741,97.542 159.714 C 98.698 157.687,100.429 154.961,101.389 153.657 C 103.715 150.499,104.228 149.440,105.234 145.737 C 106.165 142.309,106.590 141.666,109.042 139.974 C 112.371 137.678,113.806 129.716,111.189 128.056 C 107.294 125.584,103.806 119.621,104.542 116.690 C 104.933 115.130,106.868 115.671,107.980 117.650 C 108.466 118.515,109.372 119.599,109.992 120.057 C 110.704 120.584,111.358 121.646,111.769 122.945 C 113.515 128.463,117.703 127.680,121.077 121.204 C 122.050 119.336,123.888 116.366,125.160 114.604 C 126.432 112.842,127.959 110.328,128.552 109.017 C 129.146 107.706,130.047 106.086,130.555 105.417 C 131.774 103.811,134.835 98.723,136.130 96.151 C 137.052 94.321,140.407 90.800,141.230 90.800 C 141.405 90.800,141.965 90.969,142.474 91.175 M262.000 106.312 C 256.126 107.255,255.902 117.200,261.755 117.200 C 265.783 117.200,269.143 110.904,266.472 108.360 C 265.215 107.164,263.003 106.151,262.000 106.312 M263.771 109.028 C 265.490 110.747,264.217 115.200,262.007 115.200 C 260.830 115.200,260.553 114.824,259.985 112.451 C 259.275 109.484,261.875 107.133,263.771 109.028 M178.607 113.058 C 178.933 113.183,179.200 113.581,179.200 113.943 C 179.200 114.304,179.647 116.040,180.194 117.800 C 181.763 122.852,180.875 126.524,178.403 125.201 C 176.476 124.170,176.293 123.276,176.619 116.506 C 176.901 110.653,176.962 110.295,177.469 111.515 C 177.769 112.239,178.282 112.933,178.607 113.058 M211.485 115.109 C 209.453 121.007,209.625 123.210,212.072 122.596 C 214.164 122.071,215.283 120.331,215.503 117.262 C 216.075 109.268,213.899 108.103,211.485 115.109 M246.091 125.072 C 244.098 126.059,242.515 127.233,241.066 128.798 C 239.903 130.055,238.451 131.410,237.840 131.811 C 237.229 132.211,236.322 133.453,235.825 134.569 C 235.328 135.686,234.354 137.490,233.661 138.578 C 230.819 143.037,232.552 145.808,236.583 143.252 C 237.579 142.620,239.146 141.983,240.064 141.836 C 241.970 141.531,246.508 137.318,247.941 134.523 C 248.371 133.685,249.207 132.550,249.799 132.000 C 251.366 130.545,252.091 128.912,252.123 126.761 C 252.177 123.210,250.690 122.794,246.091 125.072 M205.902 130.464 C 204.662 130.917,204.012 132.721,203.185 138.000 C 202.926 139.650,202.078 142.710,201.299 144.800 C 197.559 154.837,197.067 162.858,199.949 166.800 C 204.082 172.452,208.771 157.439,208.794 138.484 C 208.799 133.692,208.000 129.720,207.092 130.032 C 207.041 130.049,206.506 130.244,205.902 130.464 M243.295 133.815 C 243.033 135.187,241.095 136.237,240.391 135.389 C 239.981 134.895,240.113 134.757,241.204 134.539 C 241.991 134.382,242.583 133.986,242.700 133.539 C 242.994 132.415,243.516 132.657,243.295 133.815 M312.000 141.819 C 312.000 142.555,311.646 143.026,310.723 143.519 C 310.021 143.893,308.626 144.941,307.623 145.846 C 306.621 146.752,304.900 147.936,303.800 148.478 C 300.655 150.026,292.243 154.450,291.800 154.789 C 291.580 154.957,290.448 155.405,289.285 155.784 C 288.122 156.164,286.259 157.088,285.145 157.837 C 282.439 159.658,280.000 159.783,280.000 158.099 C 280.000 157.204,280.334 156.822,281.785 156.052 C 282.767 155.531,283.852 154.675,284.195 154.151 C 284.539 153.626,285.514 152.759,286.362 152.224 C 287.210 151.689,288.299 150.610,288.784 149.827 C 290.604 146.882,296.916 143.124,300.600 142.793 C 302.360 142.635,304.700 142.140,305.800 141.694 C 308.893 140.438,312.000 140.501,312.000 141.819 M206.289 145.198 C 205.636 154.146,203.435 163.600,202.004 163.600 C 199.042 163.600,199.323 153.966,202.406 149.792 C 203.793 147.914,204.099 147.126,204.496 144.406 C 205.130 140.050,206.617 140.706,206.289 145.198 M252.583 147.561 C 249.414 148.925,244.845 155.813,245.670 157.983 C 247.510 162.822,259.272 155.491,258.721 149.848 C 258.540 147.992,254.811 146.603,252.583 147.561 M255.535 150.270 C 256.768 152.473,252.465 156.755,249.883 155.894 C 248.133 155.311,248.694 153.861,251.660 151.300 C 253.754 149.492,254.926 149.181,255.535 150.270 M287.222 180.800 C 288.092 180.800,288.527 181.085,288.974 181.950 L 289.569 183.100 288.160 183.329 C 284.648 183.899,278.091 182.987,276.014 181.639 C 275.087 181.038,283.341 180.210,285.533 180.685 C 285.826 180.748,286.586 180.800,287.222 180.800 M280.503 195.987 C 276.839 197.560,277.495 203.656,281.434 204.644 C 285.277 205.609,288.200 203.688,288.200 200.197 C 288.200 196.363,284.429 194.300,280.503 195.987 M285.100 198.898 C 285.649 199.337,285.757 200.750,285.294 201.435 C 284.420 202.729,280.466 201.847,280.992 200.476 C 281.106 200.178,281.200 199.707,281.200 199.428 C 281.200 198.220,283.809 197.865,285.100 198.898 M290.200 214.261 C 266.810 215.354,264.781 215.629,264.240 217.781 C 263.539 220.578,267.576 222.697,273.731 222.762 C 275.233 222.778,276.613 222.884,276.797 222.998 C 276.980 223.111,280.971 223.473,285.665 223.802 C 290.359 224.131,297.404 224.668,301.320 224.994 C 308.600 225.601,316.260 225.194,319.300 224.038 C 321.719 223.118,322.429 218.768,320.479 216.818 C 319.140 215.478,318.354 215.353,307.800 214.797 C 295.927 214.171,293.626 214.101,290.200 214.261 M313.602 216.777 C 317.450 217.165,318.933 218.008,319.124 219.918 C 319.529 223.981,306.859 225.137,293.749 222.235 C 291.344 221.703,287.255 221.161,284.600 221.024 C 280.399 220.806,277.218 220.513,271.000 219.768 C 268.386 219.455,268.009 219.017,269.268 217.754 L 270.336 216.682 279.668 216.378 C 289.965 216.043,308.476 216.260,313.602 216.777 M306.735 232.210 C 304.014 233.688,303.741 238.592,306.311 239.846 C 311.843 242.545,317.811 238.662,315.373 233.949 C 314.259 231.793,309.329 230.801,306.735 232.210 M312.069 234.262 C 312.980 235.087,313.017 237.098,312.138 238.069 C 310.575 239.796,307.251 238.345,307.540 236.061 C 307.826 233.796,310.417 232.767,312.069 234.262 M211.537 255.946 C 213.025 260.915,210.269 264.119,208.313 259.696 C 207.069 256.885,207.854 254.400,209.986 254.400 C 210.902 254.400,211.146 254.644,211.537 255.946 M279.800 257.587 C 275.749 258.511,274.133 262.117,276.900 264.056 C 277.615 264.557,278.460 265.335,278.777 265.784 C 279.919 267.401,283.829 271.246,285.200 272.101 C 285.970 272.582,287.364 273.554,288.298 274.262 C 294.029 278.609,299.662 273.422,296.480 266.727 C 294.198 261.923,284.379 256.543,279.800 257.587 M286.012 260.540 C 287.535 261.085,292.676 264.532,293.509 265.567 C 297.587 270.635,295.090 274.901,289.391 272.604 C 286.486 271.433,278.400 263.320,278.400 261.577 C 278.400 260.079,282.979 259.455,286.012 260.540 M250.091 265.900 C 251.043 266.907,251.362 267.942,251.244 269.636 C 251.083 271.946,245.999 270.327,245.354 267.761 C 244.729 265.268,248.202 263.903,250.091 265.900 M220.983 283.627 C 218.572 287.528,219.525 322.202,222.400 335.200 C 222.814 337.070,223.270 340.019,223.415 341.752 C 224.036 349.196,227.046 350.647,229.737 344.800 C 230.885 342.306,231.193 330.433,230.263 324.543 C 229.587 320.258,228.780 314.478,227.823 307.067 C 227.487 304.463,226.769 300.953,226.228 299.267 C 224.971 295.352,223.601 289.241,223.596 287.526 C 223.583 283.846,222.161 281.722,220.983 283.627 M263.969 289.300 C 261.818 292.711,263.598 297.303,268.765 301.676 C 270.654 303.275,273.150 305.473,274.311 306.560 C 275.473 307.648,276.811 308.732,277.285 308.969 C 277.759 309.206,278.789 310.323,279.574 311.452 C 283.395 316.949,288.000 318.178,288.000 313.701 C 288.000 312.928,287.589 312.164,286.748 311.375 C 286.060 310.729,285.084 309.300,284.580 308.200 C 284.075 307.100,282.929 305.325,282.031 304.256 C 281.134 303.187,280.400 302.136,280.400 301.920 C 280.400 301.704,279.545 300.667,278.500 299.615 C 275.929 297.026,273.206 293.894,272.463 292.669 C 272.127 292.114,271.445 291.475,270.947 291.249 C 270.450 291.022,269.336 290.198,268.473 289.418 C 266.432 287.575,265.079 287.539,263.969 289.300 M270.400 293.693 C 270.730 293.972,271.534 294.914,272.187 295.787 C 272.840 296.661,274.370 298.572,275.587 300.036 C 279.300 304.501,279.518 304.828,279.308 305.630 C 279.197 306.054,279.029 306.400,278.933 306.400 C 278.417 306.400,276.400 305.122,276.400 304.795 C 276.400 304.583,275.643 303.932,274.718 303.348 C 273.793 302.765,272.758 301.965,272.418 301.573 C 272.078 301.180,271.117 300.504,270.282 300.070 C 268.600 299.196,265.743 295.452,265.532 293.846 C 265.237 291.588,267.814 291.507,270.400 293.693 M199.271 307.369 C 197.005 309.827,196.235 312.580,196.215 318.286 L 196.200 322.771 198.587 325.186 C 201.528 328.159,202.341 328.257,204.957 325.954 C 208.272 323.036,208.649 321.149,207.161 314.915 C 204.940 305.608,202.790 303.552,199.271 307.369 M224.397 308.999 C 227.589 310.012,229.685 331.565,227.539 341.300 C 225.848 348.972,222.755 331.460,222.823 314.600 C 222.847 308.875,222.960 307.220,223.284 307.891 C 223.521 308.381,224.022 308.880,224.397 308.999 M203.311 309.159 C 203.775 309.611,205.600 318.562,205.600 320.388 C 205.600 322.447,203.680 324.800,202.000 324.800 C 198.777 324.800,197.644 320.561,199.046 313.743 C 200.082 308.703,201.394 307.293,203.311 309.159 M263.392 327.254 C 263.530 327.833,264.365 329.418,265.247 330.776 C 266.129 332.134,267.116 333.995,267.440 334.914 C 267.764 335.832,268.736 337.421,269.599 338.445 C 270.463 339.469,271.481 341.093,271.862 342.054 C 272.242 343.014,273.136 344.716,273.847 345.835 C 274.559 346.954,275.404 348.876,275.725 350.106 C 276.046 351.337,277.050 353.399,277.955 354.689 C 280.195 357.883,280.142 360.352,277.846 359.776 C 277.118 359.593,276.496 358.968,275.931 357.853 C 275.470 356.944,274.601 355.570,274.000 354.800 C 273.399 354.030,272.521 352.640,272.051 351.711 C 271.580 350.782,270.689 349.432,270.070 348.711 C 269.451 347.990,268.702 346.770,268.404 346.000 C 268.106 345.230,267.195 343.250,266.379 341.600 C 265.563 339.950,264.684 337.581,264.427 336.336 C 264.121 334.858,263.404 333.298,262.361 331.841 C 260.757 329.601,259.949 326.552,260.547 324.995 C 260.898 324.078,263.040 325.778,263.392 327.254 M225.626 360.752 C 222.628 361.589,220.227 371.779,221.789 377.037 C 224.045 384.634,232.401 382.873,232.398 374.800 C 232.397 371.521,231.412 365.359,230.748 364.472 C 229.866 363.296,227.042 360.398,226.817 360.440 C 226.698 360.462,226.162 360.602,225.626 360.752 M228.104 365.479 C 230.820 370.143,230.897 377.270,228.250 379.004 C 225.489 380.813,223.370 377.996,223.433 372.600 C 223.517 365.360,225.911 361.712,228.104 365.479 " stroke="none" fill="#abacaa" fill-rule="evenodd"></path><path id="path3" d="M139.011 93.452 C 137.992 94.471,136.627 96.357,135.978 97.644 C 135.328 98.930,133.528 101.974,131.977 104.408 C 130.426 106.841,128.832 109.590,128.434 110.516 C 128.036 111.442,127.018 113.100,126.172 114.200 C 124.806 115.977,122.032 120.565,120.412 123.728 C 119.483 125.543,118.071 126.712,115.963 127.412 C 113.650 128.180,113.200 128.852,113.200 131.532 C 113.200 135.394,111.922 138.342,109.214 140.724 C 107.886 141.892,106.800 143.116,106.800 143.444 C 106.800 144.938,103.997 150.936,101.762 154.224 C 100.408 156.217,98.988 158.467,98.608 159.224 C 98.228 159.981,96.617 162.580,95.027 165.000 C 93.438 167.420,91.186 171.110,90.022 173.200 C 88.859 175.290,87.141 178.170,86.205 179.600 C 85.269 181.030,83.415 184.090,82.083 186.400 C 80.752 188.710,78.953 191.590,78.086 192.800 C 77.219 194.010,76.129 195.810,75.664 196.800 C 75.200 197.790,74.230 199.452,73.510 200.494 C 70.230 205.235,67.137 210.449,64.736 215.281 C 63.715 217.334,63.784 220.234,64.900 222.281 C 66.589 225.378,68.199 228.098,70.030 230.950 C 72.541 234.861,74.320 237.793,75.772 240.419 C 76.448 241.639,77.505 243.349,78.123 244.219 C 79.291 245.863,81.960 250.347,83.826 253.800 C 84.420 254.900,85.753 257.060,86.787 258.600 C 90.471 264.085,91.538 265.820,92.159 267.335 C 92.505 268.180,93.307 269.530,93.940 270.335 C 94.572 271.141,95.407 272.430,95.795 273.200 C 96.580 274.761,99.094 278.728,102.048 283.070 C 103.121 284.648,104.000 286.076,104.000 286.244 C 104.000 286.785,108.521 294.540,110.038 296.600 C 110.847 297.700,111.897 299.371,112.370 300.313 C 112.843 301.256,114.426 303.866,115.888 306.113 C 117.350 308.361,119.432 311.820,120.513 313.800 C 121.595 315.780,123.722 319.250,125.240 321.510 C 126.758 323.771,128.000 325.781,128.000 325.977 C 128.000 326.173,128.864 327.653,129.920 329.266 C 133.330 334.474,134.340 336.143,135.974 339.271 C 139.740 346.474,141.983 346.878,145.589 341.000 C 146.534 339.460,148.039 337.123,148.933 335.807 C 149.827 334.491,151.063 332.421,151.679 331.207 C 152.295 329.993,153.384 328.152,154.100 327.115 C 156.540 323.577,159.150 319.402,159.672 318.200 C 159.959 317.540,161.745 314.660,163.641 311.800 C 165.537 308.940,167.219 306.182,167.380 305.671 C 167.541 305.160,168.646 303.320,169.836 301.582 C 171.026 299.845,172.000 298.316,172.000 298.185 C 172.000 298.055,172.929 296.385,174.065 294.474 C 176.010 291.203,176.766 290.000,181.296 282.963 C 182.301 281.402,183.587 279.210,184.154 278.091 C 184.721 276.972,185.362 275.947,185.578 275.814 C 186.018 275.541,190.136 268.666,191.335 266.200 C 191.763 265.320,192.696 263.880,193.408 263.000 C 194.121 262.120,195.085 260.642,195.552 259.716 C 196.019 258.789,197.600 256.089,199.066 253.716 C 200.532 251.342,202.313 248.410,203.024 247.200 C 205.911 242.283,209.630 241.221,211.794 244.695 C 212.237 245.407,213.816 247.567,215.302 249.495 C 218.540 253.695,223.008 260.127,227.000 266.334 C 230.793 272.232,232.706 275.113,233.948 276.800 C 234.677 277.790,235.613 279.261,236.028 280.068 C 236.444 280.875,237.642 282.700,238.692 284.123 C 239.741 285.546,241.584 288.125,242.786 289.855 C 251.079 301.787,255.223 305.156,257.988 302.213 C 259.819 300.264,258.088 294.471,254.039 289.000 C 253.225 287.900,252.133 286.280,251.612 285.400 C 250.189 282.993,246.830 278.381,245.350 276.800 C 244.629 276.030,243.758 274.726,243.415 273.903 C 243.072 273.079,241.960 271.549,240.944 270.503 C 239.928 269.456,238.093 267.250,236.865 265.600 C 235.638 263.950,233.276 260.874,231.617 258.764 C 229.957 256.654,228.104 254.134,227.498 253.164 C 226.892 252.194,225.878 250.680,225.245 249.800 C 213.305 233.207,217.915 225.905,239.297 227.539 C 251.167 228.446,253.574 228.082,253.594 225.380 C 253.618 222.088,247.264 217.898,239.702 216.219 C 237.336 215.694,234.590 214.820,233.600 214.278 C 232.610 213.735,230.314 212.806,228.499 212.213 C 222.712 210.321,219.593 207.467,219.605 204.074 C 219.617 200.952,219.352 201.222,228.200 195.323 C 231.927 192.838,236.492 190.963,240.984 190.072 C 244.046 189.465,244.252 189.352,246.386 187.116 C 248.217 185.198,249.142 184.592,251.677 183.646 C 253.367 183.015,255.616 181.971,256.675 181.325 C 257.734 180.679,259.410 179.834,260.400 179.447 C 261.390 179.060,263.100 178.245,264.200 177.635 C 265.300 177.025,267.100 176.199,268.200 175.799 C 269.300 175.400,271.010 174.303,272.000 173.363 C 272.990 172.422,274.294 171.531,274.897 171.383 C 275.501 171.236,275.895 170.954,275.774 170.757 C 275.435 170.209,272.773 170.332,270.524 171.000 C 269.413 171.330,266.965 171.869,265.084 172.196 C 262.740 172.605,261.057 173.169,259.732 173.990 C 258.642 174.666,255.882 175.696,253.400 176.354 C 248.207 177.730,239.533 180.689,236.335 182.174 C 233.838 183.334,224.096 185.725,222.200 185.643 C 218.632 185.489,218.428 180.545,221.794 175.793 C 231.958 161.445,234.286 151.917,227.938 150.648 C 225.890 150.238,220.400 155.172,220.400 157.423 C 220.400 157.700,219.275 159.631,217.900 161.715 C 216.525 163.798,215.086 166.020,214.701 166.652 C 211.833 171.367,210.971 172.533,209.108 174.217 C 205.441 177.531,200.019 179.170,197.459 177.737 C 196.064 176.956,193.123 173.809,192.118 172.021 C 191.555 171.020,190.601 169.480,190.000 168.600 C 189.398 167.720,188.409 166.010,187.803 164.800 C 187.197 163.590,186.115 161.790,185.399 160.800 C 182.285 156.495,180.591 152.168,179.793 146.484 C 178.913 140.213,175.467 134.819,172.332 134.805 C 170.440 134.796,168.918 133.512,166.729 130.080 C 165.558 128.244,163.843 125.629,162.918 124.271 C 161.993 122.912,160.464 120.360,159.522 118.600 C 158.579 116.840,156.546 113.510,155.004 111.200 C 153.462 108.890,151.894 106.338,151.520 105.528 C 151.046 104.502,143.883 93.214,143.035 92.156 C 142.321 91.266,140.664 91.799,139.011 93.452 M142.137 94.444 C 142.673 94.688,143.311 95.325,143.554 95.858 C 143.797 96.392,144.676 97.767,145.508 98.914 C 147.495 101.655,151.200 107.782,151.200 108.328 C 151.200 108.564,152.100 109.947,153.200 111.400 C 154.300 112.853,155.200 114.168,155.201 114.321 C 155.201 114.475,156.101 116.096,157.201 117.924 C 158.300 119.752,159.200 121.382,159.200 121.546 C 159.200 121.710,160.024 123.004,161.030 124.422 C 162.037 125.840,163.232 127.720,163.685 128.600 C 164.860 130.879,167.995 135.172,169.364 136.376 C 170.005 136.939,171.486 138.321,172.655 139.448 C 173.825 140.574,175.327 141.721,175.994 141.998 C 177.397 142.579,178.005 144.258,178.960 150.200 C 179.278 152.180,179.672 154.160,179.835 154.600 C 180.344 155.969,183.659 161.759,184.416 162.600 C 184.812 163.040,185.881 164.750,186.791 166.400 C 189.565 171.429,192.008 175.340,193.132 176.554 C 199.759 183.710,209.521 179.731,216.298 167.110 C 216.792 166.191,217.702 164.799,218.320 164.019 C 218.938 163.239,220.130 161.340,220.968 159.800 C 223.583 155.000,225.519 152.830,227.200 152.819 C 230.142 152.799,230.742 156.129,228.602 160.600 C 228.075 161.700,227.190 163.645,226.634 164.922 C 226.078 166.200,225.251 167.730,224.795 168.322 C 213.673 182.792,214.975 190.151,228.000 186.438 C 230.530 185.717,233.523 184.881,234.651 184.581 C 235.778 184.281,238.155 183.326,239.931 182.457 C 241.923 181.484,244.282 180.694,246.081 180.397 C 247.686 180.133,249.540 179.671,250.200 179.372 C 251.675 178.703,254.622 178.023,256.100 178.010 C 257.599 177.996,257.536 179.063,256.019 179.396 C 255.369 179.539,254.424 179.979,253.919 180.376 C 253.413 180.772,252.423 181.222,251.719 181.376 C 251.014 181.529,250.024 181.977,249.519 182.371 C 249.013 182.764,247.921 183.329,247.092 183.626 C 246.262 183.923,244.773 184.837,243.782 185.656 C 242.791 186.475,241.309 187.365,240.490 187.634 C 239.670 187.903,237.560 188.792,235.800 189.609 C 234.040 190.426,231.970 191.336,231.200 191.630 C 228.171 192.787,219.873 198.731,218.571 200.676 C 215.891 204.676,219.375 210.860,225.400 212.799 C 226.280 213.083,228.498 214.003,230.329 214.845 C 232.161 215.687,234.713 216.567,236.002 216.800 C 245.400 218.505,253.488 223.647,250.497 226.016 C 249.245 227.007,247.568 226.978,238.400 225.811 C 232.938 225.116,232.279 225.160,225.800 226.661 C 220.456 227.899,220.420 227.918,218.687 230.293 C 215.705 234.381,216.900 240.492,222.227 248.400 C 223.635 250.490,225.445 253.190,226.249 254.400 C 228.856 258.324,229.323 258.952,232.196 262.400 C 233.754 264.270,235.368 266.340,235.782 267.000 C 236.196 267.660,237.565 269.370,238.823 270.800 C 240.082 272.230,241.465 273.990,241.898 274.711 C 242.331 275.432,243.703 277.322,244.946 278.911 C 247.358 281.992,254.152 291.999,255.274 294.124 C 257.410 298.169,256.756 301.625,254.113 300.258 C 251.088 298.694,243.790 289.392,237.537 279.131 C 236.732 277.810,235.717 276.340,235.282 275.865 C 234.848 275.389,233.135 272.840,231.477 270.200 C 227.395 263.703,225.952 261.524,223.397 258.000 C 222.201 256.350,220.931 254.484,220.577 253.854 C 220.222 253.224,218.896 251.424,217.630 249.854 C 216.364 248.284,214.991 246.460,214.579 245.800 C 210.697 239.588,205.983 238.523,203.546 243.308 C 203.072 244.239,201.945 246.101,201.042 247.446 C 198.332 251.483,196.323 254.833,194.739 257.953 C 193.914 259.578,192.912 261.288,192.512 261.753 C 191.268 263.203,190.191 264.884,188.381 268.200 C 187.421 269.960,186.061 272.210,185.360 273.200 C 184.659 274.190,183.690 275.720,183.208 276.600 C 182.328 278.206,180.984 280.374,177.553 285.721 C 176.537 287.305,174.703 290.310,173.477 292.400 C 172.252 294.490,170.743 296.994,170.124 297.964 C 168.728 300.156,164.742 306.858,163.569 308.986 C 163.089 309.858,162.028 311.478,161.212 312.586 C 160.396 313.694,159.227 315.590,158.613 316.800 C 157.999 318.010,157.006 319.630,156.407 320.400 C 155.807 321.170,154.862 322.610,154.307 323.600 C 152.515 326.793,149.530 331.696,146.757 336.000 C 145.268 338.310,143.839 340.675,143.581 341.256 C 142.231 344.293,139.841 343.171,137.441 338.373 C 136.714 336.920,134.723 333.607,133.016 331.011 C 131.309 328.416,129.451 325.371,128.886 324.246 C 128.321 323.121,127.216 321.364,126.429 320.343 C 125.643 319.322,124.330 317.252,123.512 315.743 C 121.510 312.053,121.174 311.492,116.960 304.800 C 114.952 301.610,113.012 298.420,112.650 297.712 C 112.288 297.003,111.274 295.399,110.396 294.146 C 109.518 292.893,108.800 291.691,108.800 291.475 C 108.800 291.259,108.169 290.133,107.399 288.972 C 106.628 287.810,105.524 285.902,104.946 284.730 C 104.368 283.559,103.573 282.240,103.179 281.800 C 102.370 280.896,99.958 277.074,97.752 273.200 C 96.938 271.770,95.491 269.497,94.536 268.149 C 93.581 266.801,92.800 265.552,92.800 265.373 C 92.800 264.973,89.883 260.040,88.221 257.629 C 87.095 255.995,86.275 254.627,81.813 246.935 C 80.941 245.431,79.535 243.210,78.689 242.000 C 77.843 240.790,76.796 239.080,76.364 238.200 C 75.931 237.320,74.599 235.070,73.404 233.200 C 71.242 229.816,68.215 224.688,66.500 221.502 C 65.009 218.732,66.818 212.934,70.864 207.515 C 71.404 206.792,72.441 205.120,73.168 203.800 C 73.895 202.480,74.800 201.040,75.180 200.600 C 75.559 200.160,76.459 198.720,77.180 197.400 C 77.900 196.080,78.812 194.640,79.206 194.200 C 79.922 193.399,80.734 192.060,83.451 187.200 C 84.886 184.632,86.604 181.851,90.370 176.000 C 91.432 174.350,92.439 172.550,92.609 172.000 C 92.778 171.450,93.344 170.370,93.867 169.600 C 94.389 168.830,95.308 167.477,95.908 166.593 C 96.509 165.709,97.489 164.350,98.087 163.572 C 98.685 162.795,99.612 161.168,100.148 159.957 C 100.683 158.746,101.565 157.225,102.108 156.577 C 104.075 154.228,108.800 145.655,108.800 144.434 C 108.800 144.176,109.587 143.118,110.549 142.083 C 112.546 139.933,113.641 137.927,115.160 133.635 C 116.065 131.078,116.498 130.417,118.013 129.284 C 119.349 128.286,120.477 126.768,122.481 123.274 C 123.955 120.703,125.863 117.610,126.719 116.400 C 127.576 115.190,128.548 113.660,128.879 113.000 C 130.121 110.523,133.007 105.730,134.423 103.792 C 135.230 102.687,136.392 100.723,137.005 99.427 C 137.922 97.488,140.508 94.000,141.028 94.000 C 141.102 94.000,141.601 94.200,142.137 94.444 M261.600 109.492 C 259.639 110.238,259.996 114.000,262.027 114.000 C 263.004 114.000,263.234 113.779,263.630 112.459 C 264.339 110.091,263.448 108.788,261.600 109.492 M177.627 117.562 C 177.092 118.313,176.802 119.338,176.806 120.462 C 176.813 122.338,176.934 122.605,178.296 123.758 L 179.192 124.517 179.804 123.053 C 180.360 121.723,180.352 121.352,179.724 118.994 C 178.941 116.055,178.779 115.945,177.627 117.562 M105.676 118.250 C 104.999 119.460,108.260 124.821,110.093 125.513 C 111.297 125.967,111.345 125.895,111.206 123.845 C 111.121 122.589,110.858 122.186,108.909 120.322 C 108.199 119.644,107.512 118.753,107.382 118.344 C 107.091 117.427,106.165 117.376,105.676 118.250 M307.400 142.548 C 306.740 142.796,305.930 143.177,305.600 143.392 C 305.270 143.608,303.506 143.827,301.681 143.880 C 299.856 143.932,297.928 144.205,297.397 144.487 C 293.441 146.590,290.721 148.601,289.403 150.396 C 288.594 151.498,287.776 152.400,287.586 152.400 C 287.144 152.400,284.804 154.884,284.802 155.356 C 284.793 157.008,294.773 153.088,299.976 149.395 C 300.979 148.683,302.495 147.854,303.344 147.554 C 304.338 147.202,305.313 146.416,306.080 145.349 C 307.032 144.023,307.591 143.640,308.875 143.434 C 310.230 143.218,310.404 143.086,309.991 142.589 C 309.435 141.919,309.083 141.913,307.400 142.548 M295.280 149.280 C 294.907 149.653,294.693 149.653,294.320 149.280 C 293.947 148.907,294.053 148.800,294.800 148.800 C 295.547 148.800,295.653 148.907,295.280 149.280 M252.800 151.391 C 252.800 151.716,252.350 152.276,251.800 152.637 C 251.144 153.067,250.804 153.654,250.812 154.346 C 250.823 155.255,250.880 155.304,251.232 154.700 C 251.456 154.315,251.969 154.000,252.371 154.000 C 253.426 154.000,253.961 153.166,253.718 151.900 C 253.497 150.752,252.800 150.365,252.800 151.391 M201.823 152.672 C 200.711 154.068,199.965 160.098,200.801 160.934 C 202.665 162.799,204.000 160.243,204.000 154.810 C 204.000 151.452,203.323 150.788,201.823 152.672 M283.600 216.770 C 275.450 216.992,274.888 217.057,272.855 218.027 L 270.710 219.050 275.655 219.515 C 278.375 219.770,282.741 220.082,285.358 220.209 C 288.831 220.377,291.639 220.815,295.758 221.829 C 302.904 223.590,309.979 223.810,314.483 222.411 C 317.369 221.515,317.366 221.517,317.737 219.961 C 318.382 217.254,306.547 216.148,283.600 216.770 M308.749 219.374 C 311.096 220.587,311.019 221.072,308.430 221.365 C 305.284 221.721,301.997 221.278,300.987 220.361 C 300.539 219.955,299.459 219.456,298.587 219.252 C 297.331 218.958,298.108 218.872,302.320 218.840 C 306.223 218.811,307.935 218.953,308.749 219.374 M309.938 234.710 C 308.806 234.855,308.005 236.565,308.729 237.289 C 309.571 238.131,311.394 237.455,311.531 236.251 C 311.689 234.867,311.341 234.530,309.938 234.710 M208.643 256.233 C 207.895 258.182,208.503 259.788,210.100 260.085 C 211.651 260.373,211.845 256.266,210.300 255.852 C 209.012 255.507,208.913 255.530,208.643 256.233 M280.229 261.029 C 278.301 262.956,286.682 271.650,291.150 272.356 C 294.356 272.863,295.677 270.895,294.153 267.880 C 291.799 263.221,282.575 258.682,280.229 261.029 M286.913 263.857 C 291.211 266.033,293.264 268.507,291.904 269.868 C 290.377 271.394,284.000 266.681,284.000 264.027 C 284.000 262.531,284.265 262.515,286.913 263.857 M246.628 266.754 C 246.144 267.538,248.775 270.022,249.566 269.528 C 250.909 268.689,250.068 266.625,248.323 266.478 C 247.526 266.411,246.764 266.535,246.628 266.754 M266.806 293.851 C 266.803 294.539,267.070 295.326,267.400 295.600 C 267.730 295.874,268.000 296.322,268.000 296.595 C 268.000 297.562,269.627 299.142,270.905 299.415 C 271.617 299.568,272.425 299.874,272.700 300.095 C 273.067 300.391,273.200 300.289,273.200 299.710 C 273.200 297.758,270.350 294.197,268.408 293.723 C 267.854 293.588,267.268 293.280,267.106 293.038 C 266.944 292.797,266.809 293.163,266.806 293.851 M200.484 310.574 C 199.878 311.906,198.708 319.980,198.971 321.025 C 200.117 325.593,204.828 324.637,204.779 319.846 C 204.749 316.919,203.408 310.377,202.754 309.963 C 201.780 309.346,200.941 309.573,200.484 310.574 M224.654 313.113 C 222.818 316.083,223.813 334.941,225.984 338.336 L 227.093 340.071 227.609 334.736 C 228.327 327.300,227.676 319.305,226.034 315.413 C 225.409 313.931,224.788 312.896,224.654 313.113 M203.200 319.010 L 203.200 321.600 202.000 321.600 L 200.800 321.600 200.800 318.390 L 200.800 315.179 202.000 315.800 C 203.146 316.393,203.200 316.537,203.200 319.010 M266.188 336.419 C 265.882 336.914,266.731 340.710,267.214 341.009 C 267.397 341.122,267.843 342.230,268.203 343.471 C 268.611 344.873,269.529 346.549,270.630 347.900 C 271.603 349.095,272.400 350.299,272.400 350.575 C 272.400 350.851,273.030 351.726,273.800 352.519 L 275.200 353.960 275.200 351.869 C 275.200 350.582,274.949 349.419,274.546 348.845 C 273.439 347.263,271.734 343.861,271.436 342.635 C 271.280 341.994,270.362 340.734,269.397 339.835 C 268.431 338.936,267.522 337.705,267.377 337.100 C 267.104 335.961,266.637 335.693,266.188 336.419 M276.800 356.782 C 276.800 357.911,276.886 358.027,277.405 357.596 C 277.892 357.191,277.914 356.968,277.518 356.447 C 277.248 356.091,276.975 355.725,276.913 355.633 C 276.851 355.542,276.800 356.059,276.800 356.782 M225.934 365.428 C 223.280 366.827,223.254 377.432,225.903 378.439 C 229.074 379.645,230.376 375.655,228.754 369.704 C 227.505 365.124,227.249 364.735,225.934 365.428 M227.439 374.987 C 227.124 376.242,226.519 375.974,225.798 374.261 C 225.330 373.147,225.365 372.892,226.136 371.809 L 226.997 370.601 227.349 372.271 C 227.543 373.190,227.583 374.412,227.439 374.987 " stroke="none" fill="#848482" fill-rule="evenodd"></path><path id="path4" d="M165.280 85.280 C 164.570 85.990,164.695 87.129,165.627 88.438 C 166.651 89.877,167.106 89.900,167.622 88.542 C 168.476 86.296,166.716 83.844,165.280 85.280 M139.037 92.451 C 138.006 93.359,136.698 95.024,136.130 96.151 C 134.835 98.723,131.774 103.811,130.555 105.417 C 130.047 106.086,129.146 107.706,128.552 109.017 C 127.959 110.328,126.432 112.842,125.160 114.604 C 123.888 116.366,122.050 119.336,121.077 121.204 C 118.903 125.378,117.448 126.564,114.851 126.279 C 112.889 126.064,112.687 125.845,111.769 122.945 C 111.358 121.646,110.704 120.584,109.992 120.057 C 109.372 119.599,108.466 118.515,107.980 117.650 C 106.868 115.671,104.933 115.130,104.542 116.690 C 103.806 119.621,107.294 125.584,111.189 128.056 C 113.806 129.716,112.371 137.678,109.042 139.974 C 106.590 141.666,106.165 142.309,105.234 145.737 C 104.228 149.440,103.715 150.499,101.389 153.657 C 100.429 154.961,98.698 157.687,97.542 159.714 C 96.385 161.741,94.861 164.210,94.155 165.200 C 92.899 166.961,90.970 170.247,88.391 175.019 C 87.684 176.329,86.610 178.030,86.005 178.800 C 85.400 179.570,84.419 181.100,83.825 182.200 C 81.675 186.183,79.219 190.246,77.637 192.440 C 76.748 193.672,75.904 195.022,75.761 195.440 C 75.490 196.231,72.746 200.654,70.503 203.915 C 69.790 204.952,68.582 206.997,67.819 208.460 C 67.055 209.923,65.973 211.794,65.413 212.619 C 62.810 216.454,62.758 220.108,65.248 224.103 C 66.104 225.477,67.345 227.590,68.006 228.800 C 68.667 230.010,69.791 231.834,70.504 232.854 C 71.217 233.874,72.340 235.653,73.000 236.807 C 74.474 239.385,77.018 243.620,78.529 246.012 C 80.167 248.605,82.291 252.195,84.083 255.400 C 84.944 256.940,85.976 258.560,86.376 259.000 C 87.360 260.082,90.253 264.857,91.702 267.791 C 92.351 269.106,93.322 270.705,93.860 271.344 C 94.398 271.984,95.208 273.232,95.661 274.119 C 96.113 275.006,98.017 278.064,99.891 280.915 C 101.765 283.766,103.871 287.202,104.572 288.550 C 106.604 292.459,108.731 296.003,109.831 297.310 C 110.391 297.975,111.401 299.617,112.076 300.960 C 112.752 302.302,113.802 304.120,114.411 305.000 C 116.277 307.698,118.471 311.255,120.211 314.400 C 122.761 319.009,125.196 322.895,126.226 324.000 C 126.738 324.550,127.437 325.670,127.779 326.488 C 128.121 327.307,129.290 329.377,130.376 331.088 C 134.662 337.843,135.165 338.684,136.343 341.052 C 139.692 347.783,142.624 347.513,146.816 340.085 C 147.773 338.388,149.072 336.397,149.701 335.660 C 150.330 334.924,151.282 333.334,151.815 332.127 C 152.349 330.921,153.304 329.274,153.938 328.467 C 154.572 327.660,155.410 326.370,155.801 325.600 C 156.193 324.830,156.959 323.666,157.504 323.013 C 158.049 322.360,159.074 320.650,159.781 319.213 C 160.488 317.776,162.436 314.579,164.110 312.109 C 165.785 309.639,167.509 306.818,167.941 305.839 C 168.374 304.861,169.434 303.102,170.298 301.930 C 171.161 300.759,172.911 297.910,174.187 295.600 C 175.463 293.290,177.026 290.680,177.659 289.800 C 178.292 288.920,179.179 287.511,179.629 286.669 C 180.080 285.826,181.202 284.007,182.124 282.625 C 183.046 281.243,184.302 279.232,184.915 278.156 C 185.528 277.080,186.428 275.606,186.915 274.880 C 189.836 270.526,190.598 269.251,191.482 267.237 C 192.022 266.007,192.890 264.550,193.409 264.000 C 193.929 263.450,195.054 261.740,195.911 260.200 C 197.982 256.476,199.799 253.474,201.602 250.800 C 202.418 249.590,203.546 247.691,204.109 246.579 C 206.164 242.523,210.020 242.471,212.308 246.469 C 212.979 247.641,214.912 250.310,216.603 252.400 C 218.294 254.490,219.945 256.714,220.272 257.343 C 220.598 257.972,221.656 259.592,222.623 260.943 C 226.788 266.763,227.543 267.888,228.334 269.453 C 228.793 270.362,230.390 272.836,231.884 274.951 C 233.378 277.066,235.050 279.574,235.600 280.524 C 236.150 281.474,237.378 283.320,238.328 284.626 C 239.278 285.932,241.438 288.913,243.128 291.251 C 252.315 303.965,254.012 305.335,257.959 303.222 C 260.839 301.681,258.975 294.180,254.227 288.200 C 253.528 287.320,252.489 285.790,251.919 284.800 C 250.421 282.202,246.035 276.388,245.384 276.139 C 245.079 276.022,244.460 274.938,244.008 273.730 C 243.422 272.162,242.473 270.825,240.693 269.056 C 239.322 267.693,237.390 265.433,236.400 264.033 C 235.410 262.633,233.970 260.734,233.200 259.813 C 232.430 258.892,231.080 257.099,230.200 255.830 C 229.320 254.561,227.782 252.415,226.782 251.061 C 225.783 249.707,224.448 247.700,223.816 246.600 C 223.184 245.500,222.263 244.060,221.769 243.400 C 221.275 242.740,220.570 241.158,220.203 239.884 C 217.323 229.908,223.110 226.731,241.527 228.178 C 251.760 228.982,254.400 228.457,254.400 225.616 C 254.400 222.022,248.145 217.561,240.942 216.017 C 238.686 215.533,235.888 214.602,234.400 213.840 C 232.970 213.107,230.921 212.294,229.846 212.034 C 220.931 209.876,217.084 203.155,222.764 199.660 C 223.837 199.000,225.525 197.841,226.516 197.085 C 230.221 194.257,236.527 191.497,239.759 191.290 L 242.685 191.102 243.756 192.507 C 245.505 194.799,250.297 194.569,248.627 192.274 C 245.970 188.620,247.374 185.656,252.617 183.850 C 254.148 183.323,256.480 182.234,257.800 181.430 C 259.120 180.625,261.134 179.695,262.276 179.362 C 263.417 179.030,264.967 178.339,265.721 177.828 C 266.474 177.317,268.130 176.509,269.401 176.034 C 270.672 175.558,272.523 174.456,273.514 173.583 C 274.505 172.711,275.977 171.799,276.786 171.557 C 277.836 171.242,278.381 170.786,278.693 169.958 L 279.131 168.800 276.294 168.800 C 274.149 168.800,272.671 169.088,270.229 169.981 C 268.453 170.630,265.650 171.461,264.000 171.827 C 262.350 172.193,259.920 173.092,258.600 173.824 C 257.178 174.613,254.666 175.496,252.435 175.993 C 250.365 176.454,247.395 177.348,245.835 177.980 C 244.276 178.612,242.010 179.439,240.800 179.819 C 239.590 180.199,237.106 181.122,235.281 181.872 C 220.380 187.989,216.400 184.999,224.131 173.493 C 226.259 170.326,228.000 167.569,228.000 167.367 C 228.000 167.165,228.855 165.300,229.900 163.222 C 233.097 156.865,232.718 151.728,228.934 150.147 C 226.194 149.002,222.569 151.693,220.255 156.589 C 219.634 157.903,218.631 159.613,218.025 160.389 C 216.969 161.743,214.639 165.484,212.292 169.594 C 209.403 174.653,202.254 178.538,198.258 177.219 C 196.604 176.673,193.167 173.101,191.935 170.647 C 191.481 169.741,190.704 168.460,190.210 167.800 C 189.716 167.140,188.739 165.464,188.038 164.076 C 187.338 162.688,186.177 160.708,185.458 159.676 C 183.707 157.160,181.319 151.865,180.823 149.400 C 180.602 148.300,180.135 145.678,179.787 143.574 C 179.123 139.569,178.742 138.743,176.327 136.081 C 174.541 134.113,173.645 133.600,171.988 133.600 C 170.136 133.600,168.717 132.380,166.783 129.125 C 165.837 127.533,164.103 124.819,162.928 123.094 C 161.753 121.368,160.318 119.022,159.739 117.880 C 159.160 116.738,157.322 113.732,155.654 111.202 C 153.986 108.671,152.125 105.610,151.518 104.400 C 150.912 103.190,149.827 101.352,149.108 100.315 C 148.388 99.279,146.810 96.882,145.600 94.990 C 143.687 91.998,142.437 90.800,141.230 90.800 C 141.056 90.800,140.069 91.543,139.037 92.451 M143.035 92.156 C 143.883 93.214,151.046 104.502,151.520 105.528 C 151.894 106.338,153.462 108.890,155.004 111.200 C 156.546 113.510,158.579 116.840,159.522 118.600 C 160.464 120.360,161.993 122.912,162.918 124.271 C 163.843 125.629,165.558 128.244,166.729 130.080 C 168.918 133.512,170.440 134.796,172.332 134.805 C 175.467 134.819,178.913 140.213,179.793 146.484 C 180.591 152.168,182.285 156.495,185.399 160.800 C 186.115 161.790,187.197 163.590,187.803 164.800 C 188.409 166.010,189.398 167.720,190.000 168.600 C 190.601 169.480,191.555 171.020,192.118 172.021 C 193.123 173.809,196.064 176.956,197.459 177.737 C 200.019 179.170,205.441 177.531,209.108 174.217 C 210.971 172.533,211.833 171.367,214.701 166.652 C 215.086 166.020,216.525 163.798,217.900 161.715 C 219.275 159.631,220.400 157.700,220.400 157.423 C 220.400 155.172,225.890 150.238,227.938 150.648 C 234.286 151.917,231.958 161.445,221.794 175.793 C 218.428 180.545,218.632 185.489,222.200 185.643 C 224.096 185.725,233.838 183.334,236.335 182.174 C 239.533 180.689,248.207 177.730,253.400 176.354 C 255.882 175.696,258.642 174.666,259.732 173.990 C 261.057 173.169,262.740 172.605,265.084 172.196 C 266.965 171.869,269.413 171.330,270.524 171.000 C 272.773 170.332,275.435 170.209,275.774 170.757 C 275.895 170.954,275.501 171.236,274.897 171.383 C 274.294 171.531,272.990 172.422,272.000 173.363 C 271.010 174.303,269.300 175.400,268.200 175.799 C 267.100 176.199,265.300 177.025,264.200 177.635 C 263.100 178.245,261.390 179.060,260.400 179.447 C 259.410 179.834,257.734 180.679,256.675 181.325 C 255.616 181.971,253.367 183.015,251.677 183.646 C 249.142 184.592,248.217 185.198,246.386 187.116 C 244.252 189.352,244.046 189.465,240.984 190.072 C 236.492 190.963,231.927 192.838,228.200 195.323 C 219.352 201.222,219.617 200.952,219.605 204.074 C 219.593 207.467,222.712 210.321,228.499 212.213 C 230.314 212.806,232.610 213.735,233.600 214.278 C 234.590 214.820,237.336 215.694,239.702 216.219 C 247.264 217.898,253.618 222.088,253.594 225.380 C 253.574 228.082,251.167 228.446,239.297 227.539 C 217.915 225.905,213.305 233.207,225.245 249.800 C 225.878 250.680,226.892 252.194,227.498 253.164 C 228.104 254.134,229.957 256.654,231.617 258.764 C 233.276 260.874,235.638 263.950,236.865 265.600 C 238.093 267.250,239.928 269.456,240.944 270.503 C 241.960 271.549,243.072 273.079,243.415 273.903 C 243.758 274.726,244.629 276.030,245.350 276.800 C 246.830 278.381,250.189 282.993,251.612 285.400 C 252.133 286.280,253.225 287.900,254.039 289.000 C 258.088 294.471,259.819 300.264,257.988 302.213 C 255.223 305.156,251.079 301.787,242.786 289.855 C 241.584 288.125,239.741 285.546,238.692 284.123 C 237.642 282.700,236.444 280.875,236.028 280.068 C 235.613 279.261,234.677 277.790,233.948 276.800 C 232.706 275.113,230.793 272.232,227.000 266.334 C 223.008 260.127,218.540 253.695,215.302 249.495 C 213.816 247.567,212.237 245.407,211.794 244.695 C 209.630 241.221,205.911 242.283,203.024 247.200 C 202.313 248.410,200.532 251.342,199.066 253.716 C 197.600 256.089,196.019 258.789,195.552 259.716 C 195.085 260.642,194.121 262.120,193.408 263.000 C 192.696 263.880,191.763 265.320,191.335 266.200 C 190.136 268.666,186.018 275.541,185.578 275.814 C 185.362 275.947,184.721 276.972,184.154 278.091 C 183.587 279.210,182.301 281.402,181.296 282.963 C 176.766 290.000,176.010 291.203,174.065 294.474 C 172.929 296.385,172.000 298.055,172.000 298.185 C 172.000 298.316,171.026 299.845,169.836 301.582 C 168.646 303.320,167.541 305.160,167.380 305.671 C 167.219 306.182,165.537 308.940,163.641 311.800 C 161.745 314.660,159.959 317.540,159.672 318.200 C 159.150 319.402,156.540 323.577,154.100 327.115 C 153.384 328.152,152.295 329.993,151.679 331.207 C 151.063 332.421,149.827 334.491,148.933 335.807 C 148.039 337.123,146.534 339.460,145.589 341.000 C 141.983 346.878,139.740 346.474,135.974 339.271 C 134.340 336.143,133.330 334.474,129.920 329.266 C 128.864 327.653,128.000 326.173,128.000 325.977 C 128.000 325.781,126.758 323.771,125.240 321.510 C 123.722 319.250,121.595 315.780,120.513 313.800 C 119.432 311.820,117.350 308.361,115.888 306.113 C 114.426 303.866,112.843 301.256,112.370 300.313 C 111.897 299.371,110.847 297.700,110.038 296.600 C 108.521 294.540,104.000 286.785,104.000 286.244 C 104.000 286.076,103.121 284.648,102.048 283.070 C 99.094 278.728,96.580 274.761,95.795 273.200 C 95.407 272.430,94.572 271.141,93.940 270.335 C 93.307 269.530,92.505 268.180,92.159 267.335 C 91.538 265.820,90.471 264.085,86.787 258.600 C 85.753 257.060,84.420 254.900,83.826 253.800 C 81.960 250.347,79.291 245.863,78.123 244.219 C 77.505 243.349,76.448 241.639,75.772 240.419 C 74.320 237.793,72.541 234.861,70.030 230.950 C 68.199 228.098,66.589 225.378,64.900 222.281 C 63.784 220.234,63.715 217.334,64.736 215.281 C 67.137 210.449,70.230 205.235,73.510 200.494 C 74.230 199.452,75.200 197.790,75.664 196.800 C 76.129 195.810,77.219 194.010,78.086 192.800 C 78.953 191.590,80.752 188.710,82.083 186.400 C 83.415 184.090,85.269 181.030,86.205 179.600 C 87.141 178.170,88.859 175.290,90.022 173.200 C 91.186 171.110,93.438 167.420,95.027 165.000 C 96.617 162.580,98.228 159.981,98.608 159.224 C 98.988 158.467,100.408 156.217,101.762 154.224 C 103.997 150.936,106.800 144.938,106.800 143.444 C 106.800 143.116,107.886 141.892,109.214 140.724 C 111.922 138.342,113.200 135.394,113.200 131.532 C 113.200 128.852,113.650 128.180,115.963 127.412 C 118.071 126.712,119.483 125.543,120.412 123.728 C 122.032 120.565,124.806 115.977,126.172 114.200 C 127.018 113.100,128.036 111.442,128.434 110.516 C 128.832 109.590,130.426 106.841,131.977 104.408 C 133.528 101.974,135.328 98.930,135.978 97.644 C 138.066 93.506,141.794 90.608,143.035 92.156 M260.992 108.706 C 259.728 109.616,259.565 112.001,260.597 114.500 C 261.565 116.847,265.303 113.258,264.640 110.618 C 264.184 108.798,262.262 107.792,260.992 108.706 M263.632 110.059 C 264.438 111.566,263.447 114.000,262.027 114.000 C 259.996 114.000,259.639 110.238,261.600 109.492 C 262.712 109.068,263.170 109.196,263.632 110.059 M176.619 116.506 C 176.293 123.276,176.476 124.170,178.403 125.201 C 180.875 126.524,181.763 122.852,180.194 117.800 C 179.647 116.040,179.200 114.304,179.200 113.943 C 179.200 113.581,178.933 113.183,178.607 113.058 C 178.282 112.933,177.769 112.239,177.469 111.515 C 176.962 110.295,176.901 110.653,176.619 116.506 M179.724 118.994 C 180.352 121.352,180.360 121.723,179.804 123.053 L 179.192 124.517 178.296 123.758 C 176.934 122.605,176.813 122.338,176.806 120.462 C 176.800 118.842,177.965 116.400,178.744 116.400 C 178.903 116.400,179.344 117.568,179.724 118.994 M107.382 118.344 C 107.512 118.753,108.199 119.644,108.909 120.322 C 110.858 122.186,111.121 122.589,111.206 123.845 C 111.345 125.895,111.297 125.967,110.093 125.513 C 108.260 124.821,104.999 119.460,105.676 118.250 C 106.165 117.376,107.091 117.427,107.382 118.344 M242.700 133.539 C 242.583 133.986,241.991 134.382,241.204 134.539 C 240.113 134.757,239.981 134.895,240.391 135.389 C 241.095 136.237,243.033 135.187,243.295 133.815 C 243.516 132.657,242.994 132.415,242.700 133.539 M305.800 141.694 C 304.700 142.140,302.360 142.635,300.600 142.793 C 296.916 143.124,290.604 146.882,288.784 149.827 C 288.299 150.610,287.210 151.689,286.362 152.224 C 285.514 152.759,284.539 153.626,284.195 154.151 C 283.852 154.675,282.767 155.531,281.785 156.052 C 280.334 156.822,280.000 157.204,280.000 158.099 C 280.000 159.783,282.439 159.658,285.145 157.837 C 286.259 157.088,288.122 156.164,289.285 155.784 C 290.448 155.405,291.580 154.957,291.800 154.789 C 292.243 154.450,300.655 150.026,303.800 148.478 C 304.900 147.936,306.621 146.752,307.623 145.846 C 308.626 144.941,310.021 143.893,310.723 143.519 C 314.633 141.432,310.353 139.846,305.800 141.694 M204.496 144.406 C 204.099 147.126,203.793 147.914,202.406 149.792 C 199.323 153.966,199.042 163.600,202.004 163.600 C 204.120 163.600,207.551 143.566,205.720 141.908 C 204.982 141.241,204.946 141.313,204.496 144.406 M309.991 142.589 C 310.404 143.086,310.230 143.218,308.875 143.434 C 307.591 143.640,307.032 144.023,306.080 145.349 C 305.313 146.416,304.338 147.202,303.344 147.554 C 302.495 147.854,300.979 148.683,299.976 149.395 C 294.773 153.088,284.793 157.008,284.802 155.356 C 284.804 154.884,287.144 152.400,287.586 152.400 C 287.776 152.400,288.594 151.498,289.403 150.396 C 290.721 148.601,293.441 146.590,297.397 144.487 C 297.928 144.205,299.856 143.932,301.681 143.880 C 303.506 143.827,305.270 143.608,305.600 143.392 C 306.301 142.934,308.399 142.117,309.051 142.048 C 309.299 142.021,309.722 142.265,309.991 142.589 M251.660 151.300 C 248.694 153.861,248.133 155.311,249.883 155.894 C 252.465 156.755,256.768 152.473,255.535 150.270 C 254.926 149.181,253.754 149.492,251.660 151.300 M253.718 151.900 C 253.961 153.166,253.426 154.000,252.371 154.000 C 251.969 154.000,251.456 154.315,251.232 154.700 C 250.880 155.304,250.823 155.255,250.812 154.346 C 250.804 153.654,251.144 153.067,251.800 152.637 C 252.350 152.276,252.800 151.716,252.800 151.391 C 252.800 150.365,253.497 150.752,253.718 151.900 M204.000 154.810 C 204.000 160.243,202.665 162.799,200.801 160.934 C 199.965 160.098,200.711 154.068,201.823 152.672 C 203.323 150.788,204.000 151.452,204.000 154.810 M280.014 180.785 C 275.265 180.990,275.076 181.030,276.014 181.639 C 278.091 182.987,284.648 183.899,288.160 183.329 L 289.569 183.100 288.974 181.950 C 288.527 181.085,288.092 180.800,287.222 180.800 C 286.586 180.800,285.826 180.748,285.533 180.685 C 285.240 180.621,282.757 180.666,280.014 180.785 M282.100 198.492 C 281.605 198.729,281.200 199.150,281.200 199.428 C 281.200 199.707,281.106 200.178,280.992 200.476 C 280.466 201.847,284.420 202.729,285.294 201.435 C 286.541 199.588,284.241 197.469,282.100 198.492 M279.668 216.378 L 270.336 216.682 269.268 217.754 C 268.009 219.017,268.386 219.455,271.000 219.768 C 277.218 220.513,280.399 220.806,284.600 221.024 C 287.255 221.161,291.344 221.703,293.749 222.235 C 306.859 225.137,319.529 223.981,319.124 219.918 C 318.933 218.008,317.450 217.165,313.602 216.777 C 308.476 216.260,289.965 216.043,279.668 216.378 M312.470 217.422 C 317.791 218.292,318.630 218.960,317.328 221.289 C 316.040 223.593,304.129 223.892,295.758 221.829 C 291.639 220.815,288.831 220.377,285.358 220.209 C 282.741 220.082,278.375 219.770,275.655 219.515 L 270.710 219.050 272.855 218.027 C 276.207 216.428,303.810 216.007,312.470 217.422 M308.299 234.300 C 306.667 236.128,307.796 238.800,310.200 238.800 C 311.772 238.800,312.800 237.744,312.800 236.130 C 312.800 233.898,309.761 232.662,308.299 234.300 M311.531 236.251 C 311.394 237.455,309.571 238.131,308.729 237.289 C 308.005 236.565,308.806 234.855,309.938 234.710 C 311.341 234.530,311.689 234.867,311.531 236.251 M208.451 254.938 C 207.553 256.020,207.500 257.858,208.313 259.696 C 210.269 264.119,213.025 260.915,211.537 255.946 C 211.039 254.286,209.429 253.760,208.451 254.938 M210.300 255.852 C 211.845 256.266,211.651 260.373,210.100 260.085 C 208.503 259.788,207.895 258.182,208.643 256.233 C 208.913 255.530,209.012 255.507,210.300 255.852 M279.300 260.412 C 277.853 260.994,278.232 262.184,280.822 265.193 C 286.805 272.145,291.971 274.891,294.434 272.428 C 299.109 267.752,286.313 257.594,279.300 260.412 M284.929 260.829 C 293.121 263.104,298.764 273.560,291.150 272.356 C 288.263 271.900,279.600 264.405,279.600 262.364 C 279.600 260.578,281.771 259.952,284.929 260.829 M246.021 265.778 C 244.742 267.140,245.170 268.465,247.379 269.986 C 249.272 271.288,251.141 271.119,251.244 269.636 C 251.512 265.789,248.264 263.390,246.021 265.778 M250.024 267.843 C 250.450 269.944,249.170 270.327,247.620 268.562 C 246.153 266.891,246.349 266.312,248.323 266.478 C 249.585 266.584,249.804 266.760,250.024 267.843 M266.157 292.281 C 264.578 293.436,267.260 298.500,270.282 300.070 C 271.117 300.504,272.078 301.180,272.418 301.573 C 272.758 301.965,273.793 302.765,274.718 303.348 C 275.643 303.932,276.400 304.583,276.400 304.795 C 276.400 305.122,278.417 306.400,278.933 306.400 C 279.029 306.400,279.197 306.054,279.308 305.630 C 279.518 304.828,279.300 304.501,275.587 300.036 C 274.370 298.572,272.840 296.661,272.187 295.787 C 270.016 292.884,267.407 291.367,266.157 292.281 M268.408 293.723 C 270.350 294.197,273.200 297.758,273.200 299.710 C 273.200 300.289,273.067 300.391,272.700 300.095 C 272.425 299.874,271.617 299.568,270.905 299.415 C 269.627 299.142,268.000 297.562,268.000 296.595 C 268.000 296.322,267.730 295.874,267.400 295.600 C 267.070 295.326,266.803 294.539,266.806 293.851 C 266.809 293.163,266.944 292.797,267.106 293.038 C 267.268 293.280,267.854 293.588,268.408 293.723 M222.823 314.600 C 222.738 335.692,226.887 352.507,228.203 336.400 C 229.122 325.147,226.994 309.823,224.397 308.999 C 224.022 308.880,223.521 308.381,223.284 307.891 C 222.960 307.220,222.847 308.875,222.823 314.600 M200.275 309.464 C 198.194 313.520,197.839 321.333,199.641 323.386 C 201.946 326.011,205.600 324.172,205.600 320.388 C 205.600 318.562,203.775 309.611,203.311 309.159 C 202.321 308.195,200.850 308.343,200.275 309.464 M202.754 309.963 C 204.312 310.950,205.281 321.281,203.971 322.946 C 200.998 326.725,198.388 322.681,199.400 315.865 C 200.282 309.921,200.919 308.801,202.754 309.963 M227.648 323.754 C 228.027 328.241,228.019 330.495,227.609 334.736 L 227.093 340.071 225.984 338.336 C 223.813 334.941,222.818 316.083,224.654 313.113 C 225.398 311.909,227.183 318.253,227.648 323.754 M260.547 324.995 C 259.949 326.552,260.757 329.601,262.361 331.841 C 263.404 333.298,264.121 334.858,264.427 336.336 C 264.684 337.581,265.563 339.950,266.379 341.600 C 267.195 343.250,268.106 345.230,268.404 346.000 C 268.702 346.770,269.451 347.990,270.070 348.711 C 270.689 349.432,271.580 350.782,272.051 351.711 C 272.521 352.640,273.399 354.030,274.000 354.800 C 274.601 355.570,275.470 356.944,275.931 357.853 C 276.496 358.968,277.118 359.593,277.846 359.776 C 280.142 360.352,280.195 357.883,277.955 354.689 C 277.050 353.399,276.046 351.337,275.725 350.106 C 275.404 348.876,274.559 346.954,273.847 345.835 C 273.136 344.716,272.242 343.014,271.862 342.054 C 271.481 341.093,270.463 339.469,269.599 338.445 C 268.736 337.421,267.764 335.832,267.440 334.914 C 267.116 333.995,266.129 332.134,265.247 330.776 C 264.365 329.418,263.530 327.833,263.392 327.254 C 263.040 325.778,260.898 324.078,260.547 324.995 M267.377 337.100 C 267.522 337.705,268.431 338.936,269.397 339.835 C 270.362 340.734,271.280 341.994,271.436 342.635 C 271.734 343.861,273.439 347.263,274.546 348.845 C 274.949 349.419,275.200 350.582,275.200 351.869 L 275.200 353.960 273.800 352.519 C 273.030 351.726,272.400 350.851,272.400 350.575 C 272.400 350.299,271.603 349.095,270.630 347.900 C 269.529 346.549,268.611 344.873,268.203 343.471 C 267.843 342.230,267.397 341.122,267.214 341.009 C 266.731 340.710,265.882 336.914,266.188 336.419 C 266.637 335.693,267.104 335.961,267.377 337.100 M277.518 356.447 C 277.914 356.968,277.892 357.191,277.405 357.596 C 276.886 358.027,276.800 357.911,276.800 356.782 C 276.800 356.059,276.851 355.542,276.913 355.633 C 276.975 355.725,277.248 356.091,277.518 356.447 M225.078 364.579 C 223.503 366.154,222.904 374.114,224.123 377.273 C 225.333 380.410,228.468 380.250,229.833 376.982 C 231.760 372.371,227.748 361.909,225.078 364.579 M228.754 369.704 C 230.376 375.655,229.074 379.645,225.903 378.439 C 223.254 377.432,223.280 366.827,225.934 365.428 C 227.249 364.735,227.505 365.124,228.754 369.704 " stroke="none" fill="#8c8c8c" fill-rule="evenodd"></path></g></svg>