<?xml version="1.0" standalone="no"?>
<!DOCTYPE svg PUBLIC "-//W3C//DTD SVG 20010904//EN"
 "http://www.w3.org/TR/2001/REC-SVG-20010904/DTD/svg10.dtd">
<svg version="1.0" xmlns="http://www.w3.org/2000/svg"
 width="300.000000pt" height="300.000000pt" viewBox="0 0 300.000000 300.000000"
 preserveAspectRatio="xMidYMid meet">
<rect width="100%" height="100%" fill="#13273a"/>
<metadata>
Created by potrace 1.10, written by Peter Selinger 2001-2011
</metadata>
<g transform="translate(0.000000,300.000000) scale(0.100000,-0.100000)"
fill="#FFF" stroke="none">
<path d="M1385 2369 c-150 -25 -283 -122 -354 -258 -43 -84 -57 -128 -66 -214
-12 -127 57 -299 160 -395 72 -68 173 -125 213 -120 24 3 27 -1 30 -29 3 -35
-8 -42 -27 -19 -35 42 -118 19 -146 -41 -14 -30 -17 -68 -16 -250 1 -243 5
-259 64 -282 35 -13 44 -13 90 3 48 16 55 16 82 2 38 -20 92 -20 139 -1 32 14
40 13 76 -1 46 -18 97 -13 127 14 18 15 21 33 26 175 2 87 7 161 10 164 4 3
20 -6 37 -21 39 -32 51 -33 89 0 39 33 39 58 0 95 -39 36 -50 36 -92 -1 l-35
-30 -11 44 c-10 42 -56 94 -84 97 -7 1 -19 2 -27 3 -8 1 -24 -4 -35 -11 -31
-21 -35 -16 -35 42 l0 55 33 -7 c17 -3 38 -10 45 -16 30 -23 139 -72 161 -72
14 0 32 11 43 26 19 25 19 32 7 117 -11 81 -11 93 4 115 64 98 107 221 107
309 1 281 -247 524 -525 517 -22 -1 -62 -5 -90 -10z m215 -45 c70 -16 162 -64
214 -112 49 -46 114 -155 131 -223 12 -46 16 -88 12 -149 -5 -99 -29 -167 -82
-242 l-38 -52 11 -85 c6 -47 14 -96 18 -108 11 -40 -20 -36 -116 17 -58 31
-100 48 -112 44 -17 -5 -18 4 -20 135 -1 78 -2 149 -2 159 -1 14 11 18 64 24
71 8 100 29 100 75 0 40 -24 74 -126 173 -154 151 -171 157 -250 88 -169 -147
-225 -215 -217 -265 9 -54 35 -73 103 -73 l60 0 0 -120 c0 -66 -2 -120 -6
-120 -10 0 -119 78 -146 105 -40 40 -85 114 -98 162 -30 117 -11 248 50 328
19 24 79 85 105 105 83 64 241 89 346 55 78 -25 81 -29 55 -75 -19 -37 -20
-42 -6 -67 9 -16 32 -37 51 -48 20 -11 48 -28 62 -39 25 -17 29 -17 52 -2 24
16 25 15 42 -16 13 -24 18 -55 18 -118 -1 -98 -18 -156 -69 -228 -38 -54 -50
-83 -52 -127 -3 -58 -1 -56 -41 -39 -61 26 -73 28 -73 11 0 -10 33 -33 85 -60
47 -24 85 -44 85 -43 0 1 -5 39 -10 84 -11 82 -11 83 18 125 16 23 42 67 58
97 27 51 29 63 29 165 0 103 -2 114 -32 177 -44 94 -109 160 -202 206 -73 36
-77 37 -191 37 -111 0 -118 -1 -184 -34 -173 -85 -268 -263 -239 -450 6 -39
21 -91 33 -117 34 -70 121 -157 195 -195 51 -27 65 -39 65 -56 0 -30 -11 -29
-81 8 -93 50 -173 129 -214 212 -71 145 -71 281 1 425 99 201 314 299 544 246z
m138 -166 c6 -7 8 -25 5 -40 -4 -23 -11 -28 -33 -28 -32 0 -46 25 -35 60 7 23
46 27 63 8z m72 -105 c0 -20 -4 -24 -22 -21 -25 3 -37 36 -17 48 20 13 39 0
39 -27z m-178 -100 c70 -70 128 -133 128 -139 0 -22 -22 -28 -110 -34 l-85 -5
0 -493 0 -492 -35 -10 c-44 -12 -47 -12 -92 1 l-38 10 0 494 0 495 -83 0 c-83
0 -107 9 -107 39 0 21 251 261 274 261 11 0 72 -52 148 -127z m-306 -650 l24
-26 -2 -246 -3 -245 -33 -10 c-25 -7 -41 -5 -68 7 l-34 17 0 238 c0 249 1 257
45 280 31 17 44 14 71 -15z m395 -49 c23 -25 24 -31 29 -232 5 -206 5 -207
-18 -229 -27 -27 -52 -29 -92 -8 l-30 16 0 213 c0 212 0 213 25 240 30 33 55
33 86 0z m169 -79 c0 -8 9 -15 20 -15 11 0 20 -7 20 -15 0 -8 -8 -15 -19 -15
-11 0 -21 -9 -24 -21 -6 -23 -27 -17 -27 7 0 8 -9 14 -20 14 -11 0 -20 7 -20
15 0 8 9 15 20 15 11 0 20 7 20 15 0 8 7 15 15 15 8 0 15 -7 15 -15z"/>
</g>
</svg>
