<?xml version="1.0" ?>
<!-- Uploaded to: SVG Repo, www.svgrepo.com, Generator: SVG Repo Mixer Tools -->
<svg width="800px" height="800px" viewBox="0 0 64 64" xmlns="http://www.w3.org/2000/svg">
<g id="a">
<path d="M36.08,45.81c7.79-3.37,12.83-11.04,12.83-19.53,0-1.5-.16-2.99-.47-4.46l-2.28-6c-3.77-6.69-10.85-10.82-18.53-10.82C15.88,5,6.35,14.53,6.35,26.28c0,8.49,5.04,16.16,12.83,19.53h16.9Z" fill="#f0f3f5" fill-rule="evenodd"/>
<path d="M27.63,5c-.69,0-1.36,.04-2.04,.1,6.92,.63,13.15,4.6,16.6,10.72l2.28,6c.31,1.47,.47,2.96,.47,4.46,0,8.49-5.04,16.16-12.83,19.53h3.96c7.79-3.37,12.83-11.04,12.83-19.53,0-1.5-.16-2.99-.47-4.46l-2.28-6c-3.77-6.69-10.85-10.82-18.53-10.82Z" fill="#e4ecf0" fill-rule="evenodd"/>
<path d="M34.5,37.18c-.3,0-.59,.05-.88,.14l-.24,2.69,1.85,2.88c1.28-.33,2.17-1.49,2.17-2.81,0-1.6-1.3-2.9-2.9-2.9Z" fill="#e8a3c1" fill-rule="evenodd"/>
<path d="M21.09,34.1c-1.6,0-2.9,1.3-2.9,2.9,0,1.52,1.18,2.79,2.7,2.89l1.57-2.24v-3.2c-.42-.23-.89-.35-1.37-.35h0Z" fill="#8fd7f8" fill-rule="evenodd"/>
<path d="M40.89,30.43c-1.6,0-2.9,1.3-2.9,2.9,0,1.6,1.3,2.9,2.9,2.9,1.6,0,2.9-1.3,2.9-2.9,0-1.6-1.3-2.9-2.9-2.9Z" fill="#8fd7f8" fill-rule="evenodd"/>
<path d="M13.35,28.27c-1.6,0-2.9,1.3-2.9,2.9,0,1.6,1.3,2.9,2.9,2.9,1.6,0,2.9-1.3,2.9-2.9,0-1.6-1.3-2.9-2.9-2.9Z" fill="#e8a3c1" fill-rule="evenodd"/>
<path d="M21.07,20.85c-1.6,0-2.9,1.3-2.9,2.9s1.23,2.84,2.79,2.9l1.99-5.1c-.53-.45-1.19-.69-1.88-.69Z" fill="#f5e680" fill-rule="evenodd"/>
<path d="M31.91,17.05c-1.52,0-2.78,1.17-2.89,2.68l4.14,2.83c1.01-.48,1.65-1.5,1.65-2.62,0-1.6-1.3-2.9-2.9-2.9Z" fill="#b8f5d2" fill-rule="evenodd"/>
<path d="M19.88,12.44c-1.6,0-2.9,1.3-2.9,2.9s1.3,2.9,2.9,2.9c1.6,0,2.9-1.3,2.9-2.9,0-1.6-1.3-2.9-2.9-2.9Z" fill="#e8a3c1" fill-rule="evenodd"/>
<path d="M34.5,37.18c-.28,0-.55,.04-.81,.12,1.2,.36,2.07,1.46,2.07,2.78,0,.84-.36,1.61-.96,2.15l.42,.66c1.28-.33,2.17-1.49,2.17-2.81,0-1.6-1.3-2.9-2.9-2.9Z" fill="#e38fb6" fill-rule="evenodd"/>
<path d="M21.09,34.1c-.29,0-.56,.04-.82,.12,.19,.06,.38,.13,.56,.22l-1.27,5.01c.39,.24,.84,.4,1.33,.43l1.57-2.24v-3.2c-.42-.23-.89-.35-1.37-.35Z" fill="#75cdf8" fill-rule="evenodd"/>
<path d="M40.89,30.43c-.27,0-.54,.05-.8,.13,1.22,.37,2.06,1.5,2.06,2.77,0,1.28-.85,2.4-2.08,2.77,.27,.08,.54,.13,.82,.13,1.6,0,2.9-1.3,2.9-2.9,0-1.6-1.3-2.9-2.9-2.9Z" fill="#75cdf8" fill-rule="evenodd"/>
<path d="M13.35,28.27c-.28,0-.56,.05-.82,.13,1.23,.36,2.08,1.49,2.08,2.77,0,1.28-.84,2.41-2.07,2.77,.26,.08,.53,.12,.81,.13,1.6,0,2.9-1.3,2.9-2.9,0-1.6-1.3-2.9-2.9-2.9Z" fill="#e38fb6" fill-rule="evenodd"/>
<path d="M21.07,20.85c-.29,0-.59,.05-.87,.14,.41,.1,.79,.29,1.11,.55l-1.8,4.62c.43,.29,.93,.45,1.45,.48l1.99-5.1c-.53-.45-1.19-.69-1.88-.69Z" fill="#f2d865" fill-rule="evenodd"/>
<path d="M31.91,17.05c-.28,0-.56,.04-.83,.13,1.24,.36,2.09,1.48,2.1,2.77,0,.77-.3,1.5-.85,2.05l.83,.57c1.01-.48,1.65-1.5,1.65-2.62,0-1.6-1.3-2.9-2.9-2.9Z" fill="#a1f3c0" fill-rule="evenodd"/>
<path d="M19.88,12.44c-.27,0-.54,.05-.8,.13,1.22,.37,2.06,1.49,2.06,2.77,0,1.28-.85,2.4-2.08,2.77,.27,.08,.54,.13,.82,.13,1.6,0,2.9-1.3,2.9-2.9,0-1.6-1.3-2.9-2.9-2.9Z" fill="#e38fb6" fill-rule="evenodd"/>
<polygon fill="#f5e680" fill-rule="evenodd" points="38.22 53.23 31.92 31.42 28.24 29.89 23.34 31.41 17.04 53.23 29.62 55.32 38.22 53.23"/>
<path d="M28.24,29.89l-4.9,1.52-1.11,3.84c1.54,1.25,3.47,1.93,5.45,1.94,1.95-.01,3.84-.66,5.37-1.87l-1.12-3.9-3.68-1.53Z" fill="#f2d865" fill-rule="evenodd"/>
<path d="M27.63,41.72c-1.8,0-3.08,1.46-3.25,3.25l-.8,8.27,3.89,1.83,4.19-1.83-.79-8.27c-.17-1.79-1.45-3.25-3.25-3.25Z" fill="#ebb680" fill-rule="evenodd"/>
<path d="M34,28.36c-.9,2.75-3.47,4.61-6.37,4.61-3.7,0-6.7-3-6.7-6.7s3-6.7,6.7-6.7c2.9,0,5.47,1.86,6.37,4.61v4.17Z" fill="#7a8594" fill-rule="evenodd"/>
<path d="M40.78,15.82c-.94,0-1.77,.63-2.01,1.54l-1.83,6.83h-9.3c-1.15,0-2.09,.93-2.09,2.08s.93,2.09,2.09,2.09h10.9c.94,0,1.77-.63,2.02-1.55l1.83-6.83h5.8v-4.17h-7.41Z" fill="#8fd7f8" fill-rule="evenodd"/>
<path d="M43.67,15.82c-.28,.66-.42,1.37-.42,2.09,0,.72,.15,1.42,.42,2.08h4.51v-4.17h-4.51Z" fill="#75cdf8" fill-rule="evenodd"/>
<path d="M57.65,17.91c0,3.01-2.44,5.44-5.44,5.44s-5.44-2.44-5.44-5.44,2.44-5.44,5.44-5.44,5.44,2.44,5.44,5.44Z" fill="#d9f0f3" fill-rule="evenodd"/>
<path d="M52.21,12.46c-.46,0-.91,.06-1.35,.18,2.39,.63,4.06,2.79,4.06,5.26,0,2.48-1.68,4.64-4.08,5.26,.45,.12,.91,.18,1.37,.18,3.01,0,5.44-2.44,5.44-5.44,0-3.01-2.44-5.44-5.44-5.44Z" fill="#b8e3ee" fill-rule="evenodd"/>
<polygon fill="#f2d865" fill-rule="evenodd" points="17.86 50.38 17.04 53.23 29.62 55.32 38.22 53.23 37.4 50.38 17.86 50.38"/>
<polygon fill="#e6a361" fill-rule="evenodd" points="23.86 50.38 23.59 53.23 27.48 55.06 31.67 53.23 31.4 50.38 23.86 50.38"/>
<path d="M14.9,53.23h25.46c1.6,0,2.88,1.29,2.88,2.88s-1.29,2.88-2.88,2.88H14.9c-1.6,0-2.88-1.29-2.88-2.88s1.29-2.88,2.88-2.88Z" fill="#f0f3f5" fill-rule="evenodd"/>
<path d="M36.69,53.23c1.6,0,2.89,1.29,2.89,2.88s-1.29,2.88-2.89,2.88h3.67c1.6,0,2.88-1.29,2.88-2.88s-1.29-2.88-2.88-2.88h-3.67Z" fill="#e4ecf0" fill-rule="evenodd"/>
<path d="M52.2,11.46c-2.39,0-4.46,1.32-5.57,3.26-4.03-6.62-11.23-10.72-19.01-10.72C15.35,4,5.35,13.99,5.35,26.28c0,8.59,4.95,16.33,12.64,20.04l-1.71,5.92h-1.39c-2.14,0-3.88,1.74-3.88,3.88s1.74,3.88,3.88,3.88h25.46c2.14,0,3.88-1.74,3.88-3.88s-1.74-3.88-3.88-3.88h-1.39l-1.71-5.92c7.69-3.7,12.65-11.44,12.65-20.03,0-.8-.05-1.61-.13-2.41,.75,.31,1.57,.48,2.43,.48,3.55,0,6.44-2.89,6.44-6.44s-2.89-6.44-6.44-6.44Zm-16.36,29.93l-.9-3.12c.82,.21,1.46,.93,1.46,1.81,0,.51-.22,.97-.56,1.31Zm-8.21-9.41c-3.14,0-5.7-2.56-5.7-5.7s2.57-5.7,5.7-5.7c1.82,0,3.59,.83,4.74,2.62h-4.74c-1.7,0-3.08,1.38-3.08,3.08s1.38,3.08,3.08,3.08h4.74c-1.03,1.59-2.78,2.62-4.74,2.62Zm-7.43,6.68c-.6-.32-1.01-.94-1.01-1.66,0-1.05,.85-1.9,1.9-1.9,.04,0,.08,.03,.13,.03l-1.02,3.53Zm-1.03-14.92c0-1.03,.87-1.9,1.9-1.9,.08,0,.16,.03,.24,.04-.69,.99-1.12,2.15-1.29,3.39-.5-.35-.85-.9-.85-1.54Zm14.11-2.58c-.84-.93-1.86-1.67-3.04-2.1,.32-.6,.95-1.02,1.67-1.02,1.05,0,1.9,.85,1.9,1.9,0,.47-.23,.88-.53,1.22Zm-5.65,6.2c-.6,0-1.08-.49-1.08-1.08s.49-1.08,1.08-1.08h9.3c.45,0,.85-.3,.97-.74l1.83-6.83c.13-.47,.56-.8,1.05-.8h5.09c-.06,.35-.11,.71-.11,1.08s.05,.73,.11,1.08h-3.49c-.45,0-.85,.3-.97,.74l-1.83,6.83c-.13,.47-.56,.8-1.05,.8h-10.91Zm-20.28-1.08C7.35,15.1,16.45,6,27.63,6c6.7,0,12.92,3.36,16.68,8.82h-3.53c-1.39,0-2.62,.94-2.98,2.29l-1.63,6.08h-1.57c-.05-.1-.1-.2-.15-.3,.85-.73,1.37-1.8,1.37-2.95,0-2.15-1.75-3.9-3.9-3.9-1.68,0-3.09,1.11-3.62,2.64-.22-.02-.43-.1-.66-.1-1.83,0-3.49,.67-4.81,1.74-.54-.28-1.12-.47-1.74-.47-2.15,0-3.9,1.75-3.9,3.9,0,1.76,1.24,3.22,2.87,3.68,.25,1.67,1.01,3.17,2.16,4.31l-.42,1.45c-.23-.04-.46-.09-.69-.09-2.15,0-3.9,1.75-3.9,3.9,0,1.62,1.02,2.99,2.46,3.58l-1.09,3.78c-6.83-3.43-11.21-10.37-11.21-18.08Zm34.89,29.84c0,1.04-.84,1.88-1.88,1.88H14.9c-1.04,0-1.88-.85-1.88-1.88s.85-1.88,1.88-1.88h25.46c1.04,0,1.88,.85,1.88,1.88Zm-17.56-3.88l.69-7.17c.11-1.13,.86-2.34,2.25-2.34s2.15,1.21,2.25,2.34l.69,7.17h-5.89Zm7.89,0l-.71-7.36c-.23-2.41-2.02-4.15-4.25-4.15s-4.01,1.75-4.24,4.15l-.71,7.36h-4.31l5.56-19.24c1.1,.61,2.36,.99,3.71,.99s2.58-.42,3.69-1.04l5.57,19.29h-4.31Zm4.12-7.87l-.27-.93c1.19-.68,1.97-1.93,1.97-3.35,0-2.15-1.75-3.9-3.9-3.9-.05,0-.1,.02-.16,.02l-1.32-4.56c.65-.65,1.18-1.41,1.56-2.28h3.94c1.39,0,2.62-.94,2.98-2.29l1.63-6.08h3.44c.26,.47,.56,.9,.92,1.29,.26,1.31,.41,2.66,.41,4,0,7.71-4.38,14.66-11.21,18.08Zm15.5-22.01c-2.45,0-4.44-1.99-4.44-4.44s1.99-4.44,4.44-4.44,4.44,1.99,4.44,4.44-1.99,4.44-4.44,4.44Z"/>
<path d="M27.63,35.45c-.55,0-1,.45-1,1v1.55c0,.55,.45,1,1,1s1-.45,1-1v-1.55c0-.55-.45-1-1-1Z"/>
<path d="M40.89,29.43h0c-2.15,0-3.9,1.75-3.9,3.9s1.75,3.9,3.9,3.9,3.9-1.75,3.9-3.9-1.75-3.9-3.9-3.9Zm0,5.8c-1.05,0-1.9-.85-1.9-1.9s.85-1.9,1.9-1.9c1.05,0,1.9,.85,1.9,1.9s-.87,1.9-1.9,1.9Z"/>
<path d="M13.35,27.27c-2.15,0-3.9,1.75-3.9,3.9s1.75,3.9,3.9,3.9,3.9-1.75,3.9-3.9-1.75-3.9-3.9-3.9Zm0,5.8c-1.05,0-1.9-.85-1.9-1.9s.85-1.9,1.9-1.9,1.9,.85,1.9,1.9-.85,1.9-1.9,1.9Z"/>
<path d="M19.88,19.24c2.15,0,3.9-1.75,3.9-3.9,0-2.15-1.75-3.9-3.9-3.9s-3.9,1.75-3.9,3.9,1.75,3.9,3.9,3.9Zm0-5.79h0c1.03,0,1.9,.87,1.9,1.9,0,1.05-.85,1.9-1.9,1.9s-1.9-.87-1.9-1.9,.87-1.9,1.9-1.9Z"/>
</g>
<g id="b"/>
<g id="c"/>
<g id="d"/>
<g id="e"/>
<g id="f"/>
<g id="g"/>
<g id="h"/>
<g id="i"/>
<g id="j"/>
<g id="k"/>
<g id="l"/>
<g id="m"/>
<g id="n"/>
<g id="o"/>
<g id="p"/>
<g id="q"/>
<g id="r"/>
<g id="s"/>
<g id="t"/>
<g id="u"/>
<g id="v"/>
<g id="w"/>
<g id="x"/>
<g id="y"/>
<g id="a`"/>
<g id="aa"/>
<g id="ab"/>
<g id="ac"/>
<g id="ad"/>
<g id="ae"/>
<g id="af"/>
<g id="ag"/>
<g id="ah"/>
<g id="ai"/>
<g id="aj"/>
<g id="ak"/>
<g id="al"/>
<g id="am"/>
<g id="an"/>
<g id="ao"/>
<g id="ap"/>
<g id="aq"/>
<g id="ar"/>
<g id="as"/>
<g id="at"/>
<g id="au"/>
<g id="av"/>
<g id="aw"/>
<g id="ax"/>
</svg>