<?xml version="1.0" encoding="iso-8859-1"?>
<!-- Uploaded to: SVG Repo, www.svgrepo.com, Generator: SVG Repo Mixer Tools -->
<svg fill="#000000" height="800px" width="800px" version="1.1" id="Layer_1" xmlns="http://www.w3.org/2000/svg" xmlns:xlink="http://www.w3.org/1999/xlink" 
	 viewBox="0 0 512 512" xml:space="preserve">
<g transform="translate(2 1)">
	<g>
		<g>
			<path d="M486.96,41.667h-86.187v-0.853c0-8.533-7.68-16.213-16.213-16.213h-60.587h-68.267V7.533c0-5.12-3.413-8.533-8.533-8.533
				s-8.533,3.413-8.533,8.533V24.6v85.333V178.2v153.748c-49.924,1.622-96.606,17.442-135.604,44.496
				c-17.871,12.033-33.828,26.999-47.862,43.249l-3.413,4.267l0.001,0.004c-17.982,22.098-32.516,47.613-42.668,75.943L4.827,511
				H489.52l-4.267-11.093c-35.719-99.681-125.618-164.581-229.547-167.958V178.2h128v0.853c0,8.533,6.827,16.213,16.213,16.213
				h87.04c8.533,0,16.213-7.68,16.213-17.067V57.88C503.173,49.347,495.493,41.667,486.96,41.667z M127.707,412.013
				c0,16.213-13.653,29.867-29.867,29.867c-11.093,0-20.48-5.973-25.6-14.507c12.8-14.507,27.307-27.307,44.373-38.4
				C123.44,394.947,127.707,403.48,127.707,412.013z M465.627,493.933H29.573c8.143-19.246,18.456-36.965,30.593-52.917
				c8.592,11.089,21.972,17.93,36.82,17.93c26.453,0,46.933-21.333,46.933-46.933c0-12.475-5.031-24.025-13.396-32.677
				c32.218-18.314,69.015-28.963,108.116-30.318V383c0,5.12,3.413,8.533,8.533,8.533s8.533-3.413,8.533-8.533v-33.982
				C348.514,352.235,428.364,407.815,465.627,493.933z M323.973,75.8h59.733v17.067h-59.733V75.8z M400.773,92.867h85.333v17.067
				h-85.333V92.867z M400.773,127h85.333v17.067h-85.333V127z M486.107,57.88V75.8h-85.333V58.733L486.107,57.88z M383.707,40.813
				v0.853v17.067h-59.733V41.212L383.707,40.813z M306.907,41.667v51.2h-51.2v-51.2H306.907z M315.44,109.933h8.533h59.733V127h-128
				v-17.067H315.44z M255.707,161.133v-17.067h128v17.067H255.707z M400.773,179.053V178.2v-17.067h85.333V178.2L400.773,179.053z"
				/>
			<path d="M221.573,383c0-5.12-3.413-8.533-8.533-8.533s-8.533,3.413-8.533,8.533c0,23.893,18.773,42.667,42.667,42.667
				S289.84,406.893,289.84,383c0-5.12-3.413-8.533-8.533-8.533c-5.12,0-8.533,3.413-8.533,8.533c0,14.507-11.093,25.6-25.6,25.6
				C232.667,408.6,221.573,397.507,221.573,383z"/>
			<path d="M383.707,459.8c5.12,0,8.533-3.413,8.533-8.533c0-5.12-3.413-8.533-8.533-8.533c-9.387,0-17.067-7.68-17.067-17.067
				c0-5.12-3.413-8.533-8.533-8.533s-8.533,3.413-8.533,8.533C349.573,444.44,364.933,459.8,383.707,459.8z"/>
			<path d="M281.307,468.333c0,5.12,3.413,8.533,8.533,8.533c5.12,0,8.533-3.413,8.533-8.533s-3.413-8.533-8.533-8.533
				C284.72,459.8,281.307,463.213,281.307,468.333z"/>
			<path d="M178.907,425.667c-5.12,0-8.533,3.413-8.533,8.533s3.413,8.533,8.533,8.533s8.533-3.413,8.533-8.533
				S184.027,425.667,178.907,425.667z"/>
		</g>
	</g>
</g>
</svg>