<svg width="133" height="32" viewBox="0 0 133 32" fill="none" xmlns="http://www.w3.org/2000/svg">
<path fill-rule="evenodd" clip-rule="evenodd" d="M124.247 5.67725H120.128V10.3224H124.247V26.3224H128.881V10.3224H133V5.67725H128.881H124.247Z" fill="black"/>
<path fill-rule="evenodd" clip-rule="evenodd" d="M93.3574 5.67725H103.268C106.681 5.67725 109.447 8.45019 109.447 11.8708C109.447 13.1961 109.032 14.4241 108.324 15.4313C109.419 16.5879 110.09 18.1508 110.09 19.8708C110.09 23.4339 107.209 26.3224 103.655 26.3224H93.3574V5.67725ZM97.9912 13.4192H103.268C104.122 13.4192 104.813 12.7259 104.813 11.8708C104.813 11.0156 104.122 10.3224 103.268 10.3224H97.9912V13.4192ZM97.9912 21.6772H103.655C104.65 21.6772 105.457 20.8685 105.457 19.8708C105.457 18.8731 104.65 18.0643 103.655 18.0643H97.9912V21.6772Z" fill="black"/>
<path fill-rule="evenodd" clip-rule="evenodd" d="M84.2185 5.67725H74.5648V26.3224H79.1986V19.8708H84.2185C84.3683 19.8708 84.517 19.8661 84.6644 19.8569L86.3423 26.3224H91.2978L89.1126 17.9017C90.4593 16.6098 91.2978 14.79 91.2978 12.774C91.2978 8.8546 88.1283 5.67725 84.2185 5.67725ZM84.2185 10.3224H79.1986V15.2256H84.2185C85.5691 15.2256 86.664 14.128 86.664 12.774C86.664 11.4201 85.5691 10.3224 84.2185 10.3224Z" fill="black"/>
<path d="M60.4065 5.67725H55.7728V18.5805C55.7728 23.2125 59.5186 26.9676 64.1393 26.9676C68.7599 26.9676 72.5057 23.2125 72.5057 18.5805V5.67725H67.872V18.5805C67.872 20.6471 66.2008 22.3224 64.1393 22.3224C62.0777 22.3224 60.4065 20.6471 60.4065 18.5805V5.67725Z" fill="black"/>
<path fill-rule="evenodd" clip-rule="evenodd" d="M49.0799 18.5796V13.4183C49.0799 11.3517 47.4087 9.67641 45.3472 9.67641C43.2856 9.67641 41.6144 11.3517 41.6144 13.4183V18.5796C41.6144 20.6463 43.2856 22.3216 45.3472 22.3216C47.4087 22.3216 49.0799 20.6463 49.0799 18.5796ZM45.3472 5.03125C40.7265 5.03125 36.9807 8.78628 36.9807 13.4183V18.5796C36.9807 23.2117 40.7265 26.9667 45.3472 26.9667C49.9678 26.9667 53.7137 23.2117 53.7137 18.5796V13.4183C53.7137 8.78628 49.9678 5.03125 45.3472 5.03125Z" fill="black"/>
<rect x="112.148" y="5.67432" width="6.17833" height="20.6452" fill="#60CC00"/>
<rect x="114.98" y="4.38525" width="0.514861" height="23.2258" fill="#60CC00"/>
<path d="M18.4492 2.66667L13.8369 0L9.22458 2.66667L13.8369 5.33333L18.4492 2.66667Z" fill="#60CC00"/>
<path d="M1.98854e-06 8L4.61228 5.33334L9.22458 8.00001L4.6123 10.6667L4.61229 21.3333L13.8369 26.6667L23.0615 21.3333V10.6667L18.4492 8L23.0615 5.33334L27.6738 8L27.6738 24L13.8369 32L0 24L1.98854e-06 8Z" fill="#60CC00"/>
<path d="M18.4201 18.6834V13.3501L13.8078 10.6834L9.19553 13.3501V18.6834L13.8078 21.3501L18.4201 18.6834Z" fill="#60CC00"/>
</svg>
