<svg xmlns="http://www.w3.org/2000/svg" viewBox="0 0 64 64" id="trading"><path fill="#f04c4d" d="M50.511 20.083h6v15h-6zM40.511 16.083h6v8h-6z"></path><path fill="#92ca62" d="M30.511 9.083h6v11h-6zM20.511 20.083h6v17h-6z"></path><path fill="#f04c4d" d="M10.511 35.083h6v8h-6z"></path><path fill="#e13340" d="M13 39v-3.917h-2.489v8h6V41H15a2 2 0 0 1-2-2zM43 20v-3.917h-2.489v8h6V22H45a2 2 0 0 1-2-2z"></path><path fill="#71bc58" d="M33 16V9.083h-2.489v11h6V18H35a2 2 0 0 1-2-2zM23 33V20.083h-2.489v17h6V35H25a2 2 0 0 1-2-2z"></path><path fill="#e13340" d="M53 31V20.083h-2.489v15h6V33H55a2 2 0 0 1-2-2z"></path><path fill="#024665" d="M13.511 48.083a.5.5 0 0 1-.5-.5v-4.5a.5.5 0 0 1 1 0v4.5a.5.5 0 0 1-.5.5zM13.511 35.583a.5.5 0 0 1-.5-.5v-4.5a.5.5 0 0 1 1 0v4.5a.5.5 0 0 1-.5.5zM23.511 20.583a.5.5 0 0 1-.5-.5v-4.5a.5.5 0 0 1 1 0v4.5a.5.5 0 0 1-.5.5zM23.511 42.083a.5.5 0 0 1-.5-.5v-4.5a.5.5 0 0 1 1 0v4.5a.5.5 0 0 1-.5.5zM53.511 20.583a.5.5 0 0 1-.5-.5v-4.5a.5.5 0 0 1 1 0v4.5a.5.5 0 0 1-.5.5zM53.511 40.083a.5.5 0 0 1-.5-.5v-4.5a.5.5 0 0 1 1 0v4.5a.5.5 0 0 1-.5.5zM43.511 16.583a.5.5 0 0 1-.5-.5v-4.5a.5.5 0 0 1 1 0v4.5a.5.5 0 0 1-.5.5zM43.511 29.083a.5.5 0 0 1-.5-.5v-4.5a.5.5 0 0 1 1 0v4.5a.5.5 0 0 1-.5.5zM33.511 9.583a.5.5 0 0 1-.5-.5v-4.5a.5.5 0 0 1 1 0v4.5a.5.5 0 0 1-.5.5zM33.511 25.083a.5.5 0 0 1-.5-.5v-4.5a.5.5 0 0 1 1 0v4.5a.5.5 0 0 1-.5.5z"></path><path fill="#024665" d="M16.511 44.083h-6a1 1 0 0 1-1-1v-8a1 1 0 0 1 1-1h6a1 1 0 0 1 1 1v8a1 1 0 0 1-1 1zm-5-2h4v-6h-4v6zM26.511 38.083h-6a1 1 0 0 1-1-1v-17a1 1 0 0 1 1-1h6a1 1 0 0 1 1 1v17a1 1 0 0 1-1 1zm-5-2h4v-15h-4v15zM36.511 21.083h-6a1 1 0 0 1-1-1v-11a1 1 0 0 1 1-1h6a1 1 0 0 1 1 1v11a1 1 0 0 1-1 1zm-5-2h4v-9h-4v9zM46.511 25.083h-6a1 1 0 0 1-1-1v-8a1 1 0 0 1 1-1h6a1 1 0 0 1 1 1v8a1 1 0 0 1-1 1zm-5-2h4v-6h-4v6zM56.511 36.083h-6a1 1 0 0 1-1-1v-15a1 1 0 0 1 1-1h6a1 1 0 0 1 1 1v15a1 1 0 0 1-1 1zm-5-2h4v-13h-4v13zM6.511 60.083a1 1 0 0 1-1-1v-54a1 1 0 1 1 2 0v54a1 1 0 0 1-1 1z"></path><path fill="#024665" d="M58.511 58.083h-54a1 1 0 1 1 0-2h54a1 1 0 1 1 0 2z"></path></svg>